<?xml version="1.0" encoding="UTF-8"?>
<svg width="1063.7" height="915.42" version="1.1" viewBox="0 0 1063.7 915.42" xmlns="http://www.w3.org/2000/svg" xmlns:xlink="http://www.w3.org/1999/xlink"><defs><filter id="d" x="-.068564" y="-.1243" width="1.1371" height="1.2486" color-interpolation-filters="sRGB"><feGaussianBlur stdDeviation="15.779909"/></filter><filter id="c" x="-.039226" y="-.080449" width="1.0785" height="1.1609" color-interpolation-filters="sRGB"><feGaussianBlur stdDeviation="6.6337263"/></filter><filter id="a" x="-.017948" y="-.048642" width="1.0359" height="1.0973" color-interpolation-filters="sRGB"><feGaussianBlur stdDeviation="0.5221976"/></filter><radialGradient id="b" cx="394.1" cy="1366.6" r="514.92" gradientTransform="matrix(1.1675 0 0 .99584 -66.749 15.178)" gradientUnits="userSpaceOnUse"><stop stop-color="#ff6fbe" offset="0"/><stop stop-color="#ff6fbe" stop-opacity="0" offset="1"/></radialGradient><filter id="f" x="-.11364" y="-.16554" width="1.2273" height="1.334" color-interpolation-filters="sRGB"><feGaussianBlur stdDeviation="29.83376"/></filter><filter id="e" x="-.03047" y="-.035722" width="1.0609" height="1.0714" color-interpolation-filters="sRGB"><feGaussianBlur stdDeviation="15.264626"/></filter></defs><g transform="translate(135.65 -908.93)" filter="url(#e)" opacity=".88993"><ellipse cx="393.37" cy="1376.1" rx="601.18" ry="512.78" fill="url(#b)" opacity=".75118"/></g><g><g transform="translate(6,6)" stroke="#000"><path d="m164.34 389.02c1.1293 0.79054 3.4055 2.373 6.5671 4.4787 3.2504 2.1649 6.0478 3.9582 7.718 5.0205 0.36639 0.23302-0.33062-0.21129 0 0 1.1341 0.72475 3.8292 2.5566 8.0457 5.0308 1.2524 0.73486 2.7932 1.6159 4.5915 2.618 7.3949 4.1209 21.065 11.357 37.291 18.566 12.965 5.7608 27.263 11.376 41.668 15.663 12.254 3.6472 23.476 6.0052 33.679 7.1073 2.4289 0.26235 4.7714 0.44679 7.0304 0.55807 11.499 0.53449 20.643 9e-3 28.004-1.1217 6.8937-1.0589 13.501-2.8388 19.654-5.7595 4.767-2.2626 9.2594-5.1958 13.786-9.2249 0.99435-0.88514 1.9795-1.8127 2.9703-2.7921 2.5262-2.4973 4.8123-5.0344 7.4512-7.9998 8.7153-9.7641 18.241-16.623 28.497-20.769 8.4657-3.4217 16.365-4.5833 23.458-4.9181 6.1142-0.28466 11.846 1.0043 17.116 3.5429 5.0248 2.4201 9.5796 5.9549 13.506 10.198 3.7602 4.0632 6.861 8.6901 9.1244 13.317 1.0969 2.2424 1.9838 4.4586 2.6435 6.5671 0.64979 2.0769 1.0691 4.0178 1.2581 5.7431 0.38396 3.5058 0.20975 6.4566-0.44819 8.8767-0.63263 2.327-1.7154 4.183-3.2385 5.6381-1.4969 1.4301-3.5479 2.5951-6.3177 3.367-2.7282 0.76031-6.1215 1.1289-10.265 0.99073-0.23173-8e-3 -0.33758-0.0602-0.40097-0.0998-0.0878-0.0548-0.22823-0.16543-0.42394-0.4761-0.20013-0.3177-0.42005-0.80015-0.61499-1.5002-0.19294-0.69284-0.34581-1.5424-0.44272-2.5563-0.19357-2.0251-0.14885-4.5404 0.13897-7.464 0.28449-2.8899 0.79912-6.1062 1.513-9.528 1.4146-6.78 3.5896-14.259 6.1936-21.362 1.2887-3.5152 2.6764-6.9214 4.1173-10.081 1.4346-3.1464 2.9127-6.0285 4.3854-8.517 3.0726-5.1925 6.2818-9.558 9.6045-12.981 3.2983-3.3983 6.6469-5.8053 10.02-7.2121 1.6741-0.69824 3.3606-1.1531 5.065-1.3622 1.6987-0.20844 3.4424-0.17616 5.2406 0.12149 3.5831 0.5931 7.4878 2.2594 11.72 5.3411 3.612 2.6308 6.887 6.5009 9.7329 11.192 2.8334 4.6705 5.1685 10.035 6.9525 15.518 1.783 5.4797 2.9925 11.008 3.6069 15.974 0.30723 2.4832 0.46304 4.8047 0.47193 6.8931 9e-3 2.0982-0.13071 3.9141-0.39415 5.3986-0.53306 3.0042-1.3385 5.9431-2.3926 8.4918-0.52724 1.2747-1.1062 2.4262-1.7273 3.4277-0.62416 1.0063-1.2719 1.8304-1.926 2.4726-0.65409 0.64218-1.2908 1.0796-1.8983 1.3539-0.5972 0.26961-1.2118 0.40317-1.8767 0.39316-0.67537-0.0102-1.4968-0.17045-2.488-0.60487-1.004-0.44001-2.1711-1.1571-3.4977-2.2594-0.29085-0.24224-0.53461-0.54573-0.73534-0.94175-0.20627-0.40694-0.38094-0.94299-0.48445-1.6296-0.10458-0.69374-0.13359-1.5168-0.0663-2.4731 0.0673-0.95687 0.2289-2.0164 0.48806-3.1694 0.52215-2.3229 1.4185-4.9283 2.6313-7.6942 1.2172-2.776 2.7318-5.6655 4.4551-8.5351 3.4918-5.8149 7.7669-11.429 12.054-15.837 2.1666-2.2276 4.2987-4.1086 6.3038-5.5543 2.041-1.4716 3.8358-2.409 5.3178-2.8626 2.0062-0.61422 4.1972-0.84543 6.5414-0.6679 2.3709 0.17955 4.9012 0.77789 7.5397 1.8244 5.3782 2.1331 11.095 6.0847 16.664 11.891 0.0354 0.0369 0.0708 0.0739 0.10616 0.11093 10.7 11.206 21.591 30.105 27.752 57.844 2.9479 13.273 5.2415 29.035 6.786 45.516 1.4991 15.997 2.278 32.541 2.2499 47.599-0.0137 7.3818-0.22174 14.382-0.63189 20.73-0.40592 6.283-1.0078 11.894-1.8049 16.572-0.39513 2.3187-0.83434 4.3849-1.3137 6.1744-0.47897 1.7881-0.9846 3.2491-1.5002 4.3875-0.25533 0.56369-0.50286 1.0254-0.73631 1.396-0.23412 0.37169-0.43718 0.62488-0.59705 0.79091-0.15919 0.16532-0.24945 0.21751-0.261 0.22562-0.01 7e-3 0.0712-0.0251 0.15146-0.0295-0.15111 0.0143-0.35845 5e-3 -0.64265-0.0756-0.28876-0.0815-0.65393-0.23539-1.095-0.50409-0.89348-0.54437-1.9588-1.4742-3.1497-2.8736-1.1701-1.3749-2.3895-3.1179-3.622-5.202-1.2205-2.0637-2.434-4.428-3.6085-7.0405-2.3264-5.1748-4.4707-11.259-6.1905-17.752-1.6985-6.4132-2.9718-13.185-3.5906-19.784a0.13318 1.1183 0.30137 0 0-0.0165-0.14454c-1.4646-10.63-1.1668-23.435 0.61193-37.209 1.7612-13.639 4.9584-28.101 9.2246-42.079 4.2378-13.885 9.5119-27.228 15.418-38.701 2.94-5.7114 6.026-10.939 9.2036-15.524 3.1569-4.5555 6.3812-8.4443 9.614-11.537 0.925-0.78662 2.1563-1.4022 3.7148-1.7877 1.5956-0.39463 3.4835-0.53416 5.6008-0.38586 4.2411 0.29706 9.1567 1.7327 13.96 4.1864 4.7902 2.447 9.3454 5.844 12.914 9.9446 1.7819 2.0474 3.3075 4.2579 4.4974 6.601 1.1901 2.3434 2.0442 4.8188 2.4871 7.4034 0.5427 3.1785 0.56408 6.1212 0.17983 8.8449-0.38498 2.7289-1.1814 5.2683-2.3003 7.6303-2.249 4.7478-5.8197 8.8155-10.013 12.215-4.2142 3.416-8.9909 6.1024-13.513 8.0852-2.2687 0.99478-4.4618 1.8074-6.4738 2.4447-2.0226 0.64062-3.8469 1.0992-5.3714 1.3893-2.6397 0.505-5.1299 1.0399-7.6556 1.4494-2.5187 0.40834-4.8203 0.64539-6.849 0.56153-1.0143-0.0419-1.9268-0.16315-2.7392-0.36847-0.81485-0.20594-1.5162-0.49237-2.1234-0.86388-0.60476-0.37003-1.139-0.83923-1.6015-1.4388-0.46856-0.60744-0.88847-1.3815-1.2217-2.3776-0.11571-0.34293-0.17457-0.67562-0.18673-1.0037-0.0123-0.33075 0.0223-0.67625 0.10957-1.0414 0.17762-0.7431 0.57644-1.576 1.2441-2.4884 0.67264-0.91927 1.5795-1.8664 2.694-2.8212 1.1226-0.96184 2.4263-1.9064 3.8566-2.8173 2.9121-1.8547 6.2802-3.527 9.5971-4.9112 3.4041-1.4206 6.721-2.5248 9.4677-3.239 11.654-3.0172 21.325-2.5976 29.191-0.77942 8.501 1.965 15.364 5.6824 20.622 9.216 8.6337 5.7953 18.077 11.14 30.614 14.988 14.752 4.528 31.702 6.2826 51.465 5.2296 29.827-1.5947 55.722-7.184 75.154-14.131 8.0003-2.8602 14.45-5.7671 19.575-8.3751 6.4606-3.2872 11.415-6.3831 14.907-8.7436 6.3602-4.2999 11.241-8.3939 15.077-12.615 5.1493-5.666 8.1644-11.016 9.886-14.295a4.5299 4.5299 90 0 0-8.0213-4.2116c-1.5434 2.9396-4.2462 7.2949-8.6706 12.527-3.1258 3.6964-7.28 8.2157-12.706 12.539-3.0872 2.4601-7.4885 5.6037-13.566 8.9514-4.7878 2.6376-10.911 5.5808-18.591 8.4865-18.687 7.0704-43.996 12.819-73.345 14.607-19.284 1.1788-35.639-0.43883-49.733-4.6784-11.952-3.5954-20.986-8.6424-29.389-14.248-5.5726-3.7141-12.975-7.7304-22.209-9.8685-8.5803-1.9868-19.026-2.425-31.455 0.76647-2.984 0.76327-6.519 1.9282-10.122 3.4141-3.5054 1.4455-7.1419 3.2229-10.358 5.2468-1.5834 0.99655-3.0868 2.0668-4.428 3.201-1.324 1.1196-2.5234 2.3295-3.4866 3.6232-0.95255 1.2794-1.7149 2.6955-2.1007 4.2321-0.19261 0.76706-0.29055 1.5616-0.27072 2.3755 0.0198 0.81158 0.15623 1.6232 0.41632 2.4259 0.47346 1.4628 1.1248 2.7535 1.9601 3.8659 0.83116 1.1069 1.8181 2.0018 2.929 2.7037 1.0982 0.69391 2.2876 1.1808 3.5218 1.5106 1.2229 0.32689 2.4971 0.50174 3.7868 0.57128 2.5429 0.13712 5.2494-0.13079 7.9096-0.53068 2.6246-0.39453 5.3316-0.93939 7.819-1.3841 1.7658-0.31899 3.8037-0.81781 6.0079-1.4985 2.1976-0.67864 4.5778-1.5435 7.0339-2.602 4.8755-2.1014 10.118-4.9957 14.82-8.7622 4.6745-3.7442 8.8947-8.4146 11.629-14.1 1.3652-2.8385 2.3554-5.9218 2.8441-9.2502 0.488-3.3238 0.47134-6.8622-0.14963-10.61-0.52947-3.2032-1.5624-6.2344-2.976-9.0599-1.4115-2.8213-3.2018-5.4364-5.2508-7.8191-4.0894-4.7553-9.2456-8.628-14.614-11.412-5.3598-2.7793-11.046-4.5321-16.238-4.9344-2.605-0.20187-5.1454-0.0682-7.4846 0.48842-2.3468 0.55841-4.539 1.5552-6.3582 3.1076a0.12651 1.0273 40.866 0 0-0.11417 0.10321c-3.6373 3.4452-7.1587 7.6833-10.522 12.506-3.3737 4.8375-6.6118 10.297-9.6682 16.197-6.1355 11.844-11.576 25.534-15.938 39.711-4.3926 14.276-7.7044 29.082-9.5489 43.109-1.8534 14.095-2.2367 27.482-0.71292 38.853 0.6263 6.9834 1.9368 14.099 3.6824 20.81 1.7722 6.8136 4.0044 13.257 6.4696 18.813 1.246 2.8082 2.5592 5.4072 3.9149 7.7285 1.363 2.3339 2.7882 4.4203 4.257 6.1698 1.4694 1.7502 3.0567 3.2526 4.7553 4.31 0.86322 0.53734 1.7865 0.97932 2.7642 1.2699 0.98817 0.29366 2.0296 0.43148 3.0992 0.35459 0.92523-0.0677 1.7852-0.33401 2.5598-0.74092 0.76613-0.40246 1.425-0.92918 1.9892-1.5049 0.56482-0.57647 1.0592-1.227 1.4957-1.9119 0.43877-0.68844 0.83643-1.439 1.1995-2.2319 0.72585-1.5851 1.3541-3.4288 1.9034-5.4558 0.55424-2.045 1.0422-4.3292 1.4701-6.8055 0.862-4.9888 1.4966-10.855 1.9233-17.294 0.43205-6.5205 0.65362-13.67 0.67743-21.17 0.0485-15.294-0.72372-32.065-2.2266-48.275-1.5472-16.687-3.864-32.758-6.8817-46.402-6.3642-28.773-17.764-48.935-29.527-61.258-0.039-0.0409-0.078-0.0816-0.11704-0.12234-6.1086-6.3711-12.656-11.002-19.199-13.597-3.2237-1.2784-6.4635-2.0682-9.6458-2.3085-3.1554-0.23824-6.2498 0.0648-9.1855 0.96489-2.484 0.76168-4.9908 2.1595-7.4122 3.9073-2.4196 1.7465-4.8649 3.9231-7.2472 6.3751-4.7055 4.8431-9.3065 10.908-13.05 17.152-1.855 3.0938-3.5135 6.2554-4.867 9.3493-1.3419 3.0673-2.4061 6.1182-3.0506 9.0005-0.3217 1.4385-0.54427 2.8589-0.63932 4.2359-0.0947 1.3712-0.065 2.7307 0.13461 4.0396 0.19993 1.3109 0.57307 2.5937 1.1841 3.7921 0.61456 1.2053 1.4543 2.291 2.5404 3.1906 1.7279 1.4308 3.4599 2.5382 5.2003 3.2956 1.7412 0.75775 3.4973 1.1672 5.2448 1.1868 1.7486 0.0196 3.3926-0.35267 4.9001-1.0408 1.4899-0.68009 2.7962-1.6448 3.9319-2.7678 1.1301-1.1174 2.113-2.4126 2.9669-3.7988 0.85285-1.3847 1.5953-2.8901 2.2375-4.4558 1.2777-3.1146 2.1976-6.5623 2.7904-9.9599 0.34962-2.0014 0.50144-4.2531 0.48612-6.6531-0.0153-2.4048-0.19889-5.0054-0.53999-7.721-0.68107-5.4222-2.0004-11.383-3.9264-17.269-1.9251-5.883-4.476-11.751-7.6483-16.96-3.1689-5.2028-7.0249-9.8573-11.601-13.176-4.9096-3.5608-9.8036-5.7457-14.667-6.5384-2.438-0.3974-4.8413-0.43991-7.1992-0.14442-2.3629 0.29613-4.6527 0.92817-6.8628 1.8564-4.4326 1.8617-8.5165 4.9014-12.271 8.7848-3.7841 3.9144-7.2954 8.7501-10.551 14.272-1.6168 2.7422-3.1994 5.8479-4.7055 9.1629-1.5153 3.3354-2.963 6.9042-4.2997 10.564-2.6955 7.3808-4.9569 15.178-6.4363 22.313-0.74735 3.6046-1.3004 7.065-1.6089 10.245-0.30949 3.1903-0.37971 6.1666-0.12692 8.7612 0.12753 1.3089 0.34096 2.5606 0.66584 3.717 0.32494 1.1566 0.77758 2.2761 1.4122 3.2755 0.64354 1.0135 1.4913 1.9285 2.59 2.5984 1.1164 0.68071 2.3628 1.0288 3.668 1.0701 4.6322 0.14631 8.7331-0.26003 12.275-1.2551 3.6306-1.0199 6.7009-2.6673 9.1144-4.983 2.4808-2.3802 4.1299-5.335 5.0392-8.6991 0.92634-3.4272 1.0788-7.2472 0.62875-11.331-0.24507-2.2241-0.76949-4.588-1.5236-6.9953-0.76832-2.4527-1.7838-4.9789-3.0156-7.4962-2.5356-5.1818-5.9957-10.347-10.208-14.901-4.4018-4.7592-9.6067-8.8356-15.483-11.671-6.1965-2.9902-13.015-4.5419-20.295-4.2119-7.6096 0.33985-16.294 1.5717-25.659 5.3147-11.354 4.5378-21.745 12.007-31.124 22.395-2.6567 2.9322-4.8454 5.3051-7.2179 7.592-0.92624 0.89281-1.8336 1.7281-2.7382 2.5181-4.082 3.565-8.0216 6.1161-12.17 8.0783-5.3878 2.5487-11.275 4.1524-17.652 5.0349-6.8467 0.94759-15.356 1.2168-26.425 0.25379-2.0865-0.17683-4.2585-0.42834-6.5192-0.76049-9.4854-1.3936-20.067-4.2038-31.587-8.3911-13.57-4.9324-27.023-11.258-39.196-17.7-15.335-8.1152-27.866-16.008-34.886-20.473-1.6889-1.0741-3.1296-1.9956-4.3224-2.7508-2.7037-1.7116-5.1032-3.1245-7.8069-4.8361-0.31987-0.20245 0.35355 0.22485 0 0-1.617-1.0284-4.3132-2.757-7.4375-4.8379-3.0311-2.0188-5.2018-3.5282-6.2634-4.2713a7.938 7.938 90 0 0-9.1043 13.006z" filter="url(#a)" stroke-width="10" style="mix-blend-mode:normal"/><path d="m227.91 383.88c25.643-141.95 192.5-181.64 297.01-175.87 92.523 5.1067 159.47 37.298 210.61 73.452 67.168 47.484 104.59 101.72 119.39 157.52" fill="none" filter="url(#a)" stroke-linecap="round" stroke-linejoin="round" stroke-width="20" style="mix-blend-mode:normal"/><path d="m862.11 490.12c0.59173 10.752 0.42787 15.838-0.44185 26.566-7.5876 93.595-92.792 157.09-179.37 178.86-114.18 28.714-197.1 2.2101-262.6-22.768 0 0-35.131 19.594-75.415 26.308-57.877 9.6461-99.092-5.2616-99.092-5.2616s22.695-16.736 41.215-42.969c20.691-29.308 25.431-49.108 25.431-49.108v0s-79.148-65.819-86.689-155.63" fill="none" filter="url(#a)" stroke-linecap="round" stroke-linejoin="round" stroke-width="20" style="mix-blend-mode:normal"/></g></g><g transform="translate(135.65 -908.93)" filter="url(#f)" style="mix-blend-mode:normal"><g transform="translate(0 -2257.1)" stroke="#fe239b"><path d="m28.694 3554.2c1.1293 0.7905 3.4055 2.373 6.5671 4.4787 3.2504 2.1649 6.0478 3.9582 7.718 5.0205 0.36638 0.233-0.33062-0.2113 0 0 1.1341 0.7247 3.8292 2.5566 8.0457 5.0308 1.2524 0.7349 2.7932 1.6159 4.5915 2.618 7.3949 4.1209 21.065 11.357 37.291 18.566 12.965 5.7608 27.263 11.376 41.668 15.663 12.254 3.6472 23.476 6.0052 33.679 7.1073 2.4289 0.2623 4.7714 0.4468 7.0304 0.5581 11.499 0.5345 20.643 0.01 28.004-1.1217 6.8937-1.0589 13.501-2.8388 19.654-5.7595 4.767-2.2626 9.2594-5.1958 13.786-9.2249 0.99435-0.8851 1.9795-1.8127 2.9703-2.7921 2.5262-2.4973 4.8123-5.0344 7.4512-7.9998 8.7153-9.7641 18.241-16.623 28.497-20.769 8.4657-3.4217 16.365-4.5833 23.458-4.9181 6.1142-0.2846 11.846 1.0044 17.116 3.5429 5.0248 2.4201 9.5796 5.9549 13.506 10.198 3.7602 4.0632 6.861 8.6901 9.1244 13.317 1.0969 2.2424 1.9838 4.4586 2.6435 6.5671 0.64979 2.077 1.0691 4.0178 1.2581 5.7431 0.38396 3.5058 0.20975 6.4566-0.44819 8.8767-0.63263 2.327-1.7154 4.183-3.2385 5.6381-1.4969 1.4301-3.5479 2.5951-6.3177 3.367-2.7282 0.7603-6.1215 1.1289-10.265 0.9907-0.23173-0.01-0.33758-0.06-0.40097-0.1-0.0878-0.055-0.22823-0.1654-0.42394-0.476-0.20013-0.3177-0.42005-0.8002-0.61499-1.5003-0.19294-0.6928-0.34581-1.5424-0.44272-2.5562-0.19357-2.0251-0.14885-4.5404 0.13897-7.464 0.28449-2.8898 0.79912-6.1061 1.513-9.5279 1.4146-6.7801 3.5896-14.259 6.1936-21.362 1.2887-3.5151 2.6764-6.9214 4.1173-10.081 1.4346-3.1464 2.9127-6.0285 4.3854-8.517 3.0726-5.1925 6.2818-9.558 9.6045-12.981 3.2983-3.3983 6.6469-5.8053 10.02-7.2121 1.6741-0.6982 3.3606-1.1531 5.065-1.3622 1.6987-0.2084 3.4424-0.1761 5.2406 0.1215 3.5831 0.5931 7.4878 2.2594 11.72 5.3411 3.612 2.6308 6.887 6.5009 9.7329 11.192 2.8334 4.6704 5.1685 10.035 6.9525 15.518 1.783 5.4797 2.9925 11.008 3.6069 15.974 0.30723 2.4832 0.46304 4.8047 0.47193 6.8931 9e-3 2.0982-0.13071 3.9141-0.39415 5.3986-0.53306 3.0043-1.3385 5.9432-2.3926 8.4918-0.52724 1.2747-1.1062 2.4262-1.7273 3.4277-0.62416 1.0064-1.2719 1.8305-1.926 2.4727-0.65409 0.6422-1.2908 1.0796-1.8983 1.3539-0.5972 0.2696-1.2118 0.4031-1.8767 0.3931-0.67537-0.01-1.4968-0.1704-2.488-0.6048-1.004-0.4401-2.1711-1.1571-3.4977-2.2595-0.29085-0.2422-0.53461-0.5457-0.73534-0.9417-0.20627-0.407-0.38094-0.943-0.48445-1.6296-0.10458-0.6937-0.13359-1.5168-0.0663-2.4731 0.0673-0.9568 0.2289-2.0164 0.48806-3.1693 0.52215-2.3229 1.4185-4.9283 2.6313-7.6943 1.2172-2.776 2.7318-5.6654 4.4551-8.535 3.4918-5.8149 7.7669-11.429 12.054-15.837 2.1666-2.2277 4.2987-4.1086 6.3038-5.5543 2.041-1.4716 3.8358-2.4091 5.3178-2.8626 2.0062-0.6143 4.1972-0.8455 6.5414-0.6679 2.3709 0.1795 4.9012 0.7778 7.5397 1.8243 5.3782 2.1332 11.095 6.0847 16.664 11.891 0.0354 0.037 0.0708 0.074 0.10616 0.1109 10.7 11.206 21.591 30.105 27.752 57.844 2.9479 13.273 5.2415 29.035 6.786 45.516 1.4991 15.997 2.278 32.541 2.2499 47.599-0.0137 7.3818-0.22174 14.382-0.63189 20.73-0.40592 6.283-1.0078 11.894-1.8049 16.572-0.39513 2.3187-0.83434 4.3849-1.3137 6.1744-0.47897 1.7881-0.9846 3.2491-1.5002 4.3874-0.25533 0.5637-0.50286 1.0254-0.73631 1.396-0.23412 0.3717-0.43718 0.6249-0.59705 0.7909-0.15919 0.1654-0.24945 0.2176-0.261 0.2257-0.01 0.01 0.0713-0.025 0.15146-0.03-0.15111 0.014-0.35845 0-0.64265-0.076-0.28876-0.081-0.65393-0.2354-1.095-0.5041-0.89348-0.5443-1.9588-1.4742-3.1497-2.8736-1.1701-1.3749-2.3895-3.1179-3.622-5.202-1.2205-2.0637-2.434-4.428-3.6085-7.0405-2.3264-5.1748-4.4707-11.259-6.1905-17.752-1.6985-6.4132-2.9718-13.186-3.5906-19.784a0.13318 1.1183 0.30137 0 0-0.0165-0.1446c-1.4646-10.63-1.1668-23.435 0.61193-37.209 1.7612-13.639 4.9584-28.101 9.2246-42.079 4.2378-13.885 9.5119-27.228 15.418-38.701 2.94-5.7115 6.026-10.939 9.2036-15.524 3.1569-4.5555 6.3812-8.4443 9.614-11.537 0.925-0.7866 2.1563-1.4022 3.7148-1.7876 1.5956-0.3947 3.4835-0.5342 5.6008-0.3859 4.2411 0.2971 9.1567 1.7327 13.96 4.1864 4.7902 2.4469 9.3454 5.844 12.914 9.9445 1.7819 2.0474 3.3075 4.258 4.4974 6.601 1.1901 2.3434 2.0442 4.8188 2.4871 7.4035 0.5427 3.1785 0.56408 6.1212 0.17983 8.8449-0.38498 2.7289-1.1814 5.2683-2.3003 7.6303-2.249 4.7478-5.8197 8.8155-10.013 12.215-4.2142 3.416-8.9909 6.1024-13.513 8.0851-2.2687 0.9948-4.4618 1.8075-6.4738 2.4447-2.0226 0.6406-3.8469 1.0992-5.3714 1.3894-2.6397 0.505-5.1299 1.0398-7.6556 1.4493-2.5187 0.4084-4.8203 0.6454-6.849 0.5616-1.0143-0.042-1.9268-0.1632-2.7392-0.3685-0.81485-0.2059-1.5162-0.4924-2.1234-0.8639-0.60476-0.37-1.139-0.8392-1.6015-1.4387-0.46856-0.6075-0.88847-1.3815-1.2217-2.3776-0.11571-0.343-0.17457-0.6757-0.18673-1.0037-0.0123-0.3308 0.0223-0.6763 0.10957-1.0414 0.17762-0.7431 0.57644-1.576 1.2441-2.4884 0.67264-0.9193 1.5795-1.8664 2.694-2.8212 1.1226-0.9619 2.4263-1.9064 3.8566-2.8174 2.9121-1.8547 6.2802-3.527 9.5971-4.9112 3.4041-1.4206 6.721-2.5248 9.4677-3.239 11.654-3.0172 21.325-2.5976 29.191-0.7794 8.501 1.965 15.364 5.6824 20.622 9.216 8.6337 5.7953 18.077 11.14 30.614 14.988 14.752 4.528 31.702 6.2826 51.465 5.2296 29.827-1.5947 55.722-7.184 75.154-14.131 8.0003-2.8603 14.45-5.7671 19.575-8.3752 6.4606-3.2872 11.415-6.3831 14.907-8.7435 6.3602-4.3 11.241-8.3939 15.077-12.615 5.1493-5.666 8.1644-11.016 9.886-14.295a4.5299 4.5299 90 0 0-8.0213-4.2116c-1.5434 2.9396-4.2462 7.2949-8.6706 12.527-3.1258 3.6964-7.28 8.2157-12.706 12.54-3.0872 2.4601-7.4885 5.6036-13.566 8.9514-4.7878 2.6375-10.911 5.5808-18.591 8.4865-18.687 7.0703-43.996 12.819-73.345 14.607-19.284 1.1788-35.639-0.4388-49.733-4.6784-11.952-3.5954-20.986-8.6424-29.389-14.248-5.5726-3.7141-12.975-7.7304-22.209-9.8685-8.5803-1.9868-19.026-2.425-31.455 0.7665-2.984 0.7633-6.519 1.9281-10.122 3.4141-3.5054 1.4455-7.1419 3.2229-10.358 5.2468-1.5834 0.9966-3.0868 2.0668-4.428 3.201-1.324 1.1195-2.5234 2.3295-3.4866 3.6232-0.95255 1.2793-1.7149 2.6954-2.1007 4.232-0.19261 0.7671-0.29055 1.5616-0.27072 2.3755 0.0198 0.8116 0.15623 1.6233 0.41632 2.4259 0.47346 1.4628 1.1248 2.7536 1.9601 3.866 0.83116 1.1069 1.8181 2.0017 2.929 2.7037 1.0982 0.6939 2.2876 1.1807 3.5218 1.5106 1.2229 0.3269 2.4971 0.5017 3.7868 0.5713 2.5429 0.1371 5.2494-0.1308 7.9096-0.5307 2.6246-0.3945 5.3316-0.9394 7.819-1.3841 1.7658-0.319 3.8037-0.8178 6.0079-1.4984 2.1976-0.6787 4.5778-1.5435 7.0339-2.6021 4.8755-2.1013 10.118-4.9957 14.82-8.7622 4.6745-3.7442 8.8947-8.4146 11.629-14.1 1.3652-2.8385 2.3554-5.9218 2.8441-9.2501 0.488-3.3239 0.47134-6.8623-0.14963-10.61-0.52947-3.2032-1.5624-6.2344-2.976-9.0599-1.4115-2.8212-3.2018-5.4363-5.2508-7.8191-4.0894-4.7553-9.2456-8.628-14.614-11.412-5.3598-2.7793-11.046-4.5321-16.238-4.9344-2.605-0.2018-5.1454-0.068-7.4846 0.4884-2.3468 0.5585-4.539 1.5552-6.3582 3.1076a0.12651 1.0273 40.866 0 0-0.11417 0.1032c-3.6373 3.4452-7.1587 7.6834-10.522 12.506-3.3737 4.8375-6.6118 10.297-9.6682 16.197-6.1355 11.844-11.576 25.534-15.938 39.711-4.3926 14.276-7.7044 29.082-9.5489 43.109-1.8534 14.095-2.2367 27.482-0.71292 38.853 0.6263 6.9834 1.9368 14.099 3.6824 20.81 1.7722 6.8136 4.0044 13.257 6.4696 18.813 1.246 2.8083 2.5592 5.4072 3.9149 7.7285 1.363 2.3339 2.7882 4.4203 4.257 6.1698 1.4694 1.7502 3.0567 3.2526 4.7553 4.31 0.86322 0.5373 1.7865 0.9793 2.7642 1.2699 0.98817 0.2936 2.0296 0.4314 3.0992 0.3545 0.92523-0.068 1.7852-0.334 2.5598-0.7409 0.76613-0.4024 1.425-0.9292 1.9892-1.5049 0.56482-0.5765 1.0592-1.227 1.4957-1.9119 0.43877-0.6884 0.83643-1.4389 1.1995-2.2319 0.72585-1.585 1.3541-3.4287 1.9034-5.4558 0.55424-2.045 1.0422-4.3292 1.4701-6.8055 0.862-4.9887 1.4966-10.854 1.9233-17.294 0.43205-6.5205 0.65362-13.67 0.67743-21.17 0.0485-15.294-0.72372-32.065-2.2266-48.275-1.5472-16.687-3.864-32.758-6.8817-46.402-6.3642-28.773-17.764-48.935-29.527-61.258-0.039-0.041-0.078-0.082-0.11704-0.1224-6.1086-6.3711-12.656-11.002-19.199-13.597-3.2237-1.2784-6.4635-2.0683-9.6458-2.3085-3.1554-0.2383-6.2498 0.065-9.1855 0.9648-2.484 0.7617-4.9908 2.1595-7.4122 3.9073-2.4196 1.7465-4.8649 3.9231-7.2472 6.3751-4.7055 4.8431-9.3065 10.908-13.05 17.152-1.855 3.0937-3.5135 6.2553-4.867 9.3492-1.3419 3.0673-2.4061 6.1183-3.0506 9.0006-0.3217 1.4385-0.54427 2.8589-0.63932 4.2359-0.0947 1.3712-0.065 2.7307 0.13461 4.0396 0.19993 1.311 0.57307 2.5937 1.1841 3.7921 0.61456 1.2053 1.4543 2.291 2.5404 3.1906 1.7279 1.4308 3.4599 2.5382 5.2003 3.2956 1.7412 0.7577 3.4973 1.1671 5.2448 1.1867 1.7486 0.02 3.3926-0.3527 4.9001-1.0408 1.4899-0.6801 2.7962-1.6448 3.9319-2.7677 1.1301-1.1175 2.113-2.4126 2.9669-3.7989 0.85285-1.3846 1.5953-2.8901 2.2375-4.4558 1.2777-3.1146 2.1976-6.5622 2.7904-9.9599 0.34962-2.0013 0.50144-4.2531 0.48612-6.6531-0.0153-2.4048-0.19889-5.0053-0.53999-7.721-0.68107-5.4222-2.0004-11.383-3.9264-17.269-1.9251-5.8831-4.476-11.751-7.6483-16.96-3.1689-5.2028-7.0249-9.8572-11.601-13.176-4.9096-3.5607-9.8036-5.7457-14.667-6.5383-2.438-0.3974-4.8413-0.4399-7.1992-0.1444-2.3629 0.2961-4.6527 0.9281-6.8628 1.8564-4.4326 1.8616-8.5165 4.9013-12.271 8.7848-3.7841 3.9144-7.2954 8.75-10.551 14.272-1.6168 2.7422-3.1994 5.848-4.7055 9.163-1.5153 3.3354-2.963 6.9041-4.2997 10.564-2.6955 7.3808-4.9569 15.178-6.4363 22.313-0.74735 3.6046-1.3004 7.0651-1.6089 10.245-0.30949 3.1903-0.37971 6.1666-0.12692 8.7611 0.12753 1.309 0.34096 2.5606 0.66584 3.717 0.32494 1.1567 0.77758 2.2761 1.4122 3.2755 0.64354 1.0135 1.4913 1.9285 2.59 2.5985 1.1164 0.6807 2.3628 1.0288 3.668 1.0701 4.6322 0.1463 8.7331-0.26 12.275-1.2551 3.6306-1.0199 6.7009-2.6673 9.1144-4.9831 2.4808-2.3802 4.1299-5.335 5.0392-8.699 0.92634-3.4272 1.0788-7.2472 0.62875-11.331-0.24507-2.2241-0.76949-4.588-1.5236-6.9953-0.76832-2.4527-1.7838-4.9789-3.0156-7.4962-2.5356-5.1818-5.9957-10.347-10.208-14.901-4.4018-4.7592-9.6067-8.8356-15.483-11.671-6.1965-2.9902-13.015-4.5419-20.295-4.2119-7.6096 0.3398-16.294 1.5717-25.659 5.3147-11.354 4.5377-21.745 12.007-31.124 22.394-2.6567 2.9322-4.8454 5.305-7.2179 7.592-0.92624 0.8928-1.8336 1.7281-2.7382 2.5181-4.082 3.565-8.0216 6.1161-12.17 8.0783-5.3878 2.5487-11.275 4.1523-17.652 5.0348-6.8467 0.9476-15.356 1.2169-26.425 0.2538-2.0865-0.1768-4.2585-0.4283-6.5192-0.7605-9.4854-1.3936-20.067-4.2037-31.587-8.3911-13.57-4.9324-27.023-11.258-39.196-17.7-15.335-8.1153-27.866-16.008-34.886-20.473-1.6889-1.0742-3.1296-1.9957-4.3224-2.7508-2.7037-1.7116-5.1032-3.1245-7.8069-4.8361-0.31988-0.2024 0.35354 0.2249 0 0-1.617-1.0284-4.3132-2.757-7.4375-4.8379-3.0311-2.0188-5.2018-3.5282-6.2634-4.2713a7.938 7.938 90 0 0-9.1043 13.006z" fill="#ff236d" filter="url(#a)" opacity=".60158" stroke-width="10" style="mix-blend-mode:normal"/><path d="m92.264 3549.1c25.643-141.95 192.5-181.64 297.01-175.87 92.523 5.1067 159.47 37.298 210.61 73.452 67.168 47.484 104.59 101.72 119.39 157.52" fill="none" filter="url(#a)" opacity=".60158" stroke-linecap="round" stroke-linejoin="round" stroke-width="20" style="mix-blend-mode:normal"/><path d="m726.46 3655.3c0.59173 10.752 0.42787 15.838-0.44185 26.566-7.5876 93.595-92.792 157.09-179.37 178.86-114.18 28.714-197.1 2.2101-262.6-22.768 0 0-35.131 19.594-75.415 26.308-57.877 9.6461-99.092-5.2616-99.092-5.2616s22.695-16.736 41.215-42.969c20.691-29.308 25.431-49.108 25.431-49.108v0s-79.148-65.819-86.689-155.63" fill="none" filter="url(#a)" opacity=".60158" stroke-linecap="round" stroke-linejoin="round" stroke-width="20" style="mix-blend-mode:normal"/></g></g><g transform="translate(135.65 -908.93)" filter="url(#d)" style="mix-blend-mode:normal"><g transform="translate(0 -1498.7)" filter="url(#a)" opacity=".60158" stroke="#ff6c9d"><path d="m92.264 2791.5c25.643-141.95 192.5-181.63 297.01-175.87v0c92.523 5.11 159.47 37.3 210.61 73.46v0c67.168 47.48 104.59 101.71 119.39 157.51" fill="none" stroke-linecap="round" stroke-linejoin="round" stroke-width="20px" style="mix-blend-mode:normal"/><path d="m726.46 2897.7c0.592 10.75 0.428 15.83-0.442 26.56-7.587 93.6-92.791 157.09-179.37 178.86v0c-114.18 28.72-197.1 2.21-262.6-22.77 0 0-35.131 19.6-75.415 26.31h-1e-3c-57.877 9.65-99.092-5.26-99.092-5.26v0c0.059-0.04 22.719-16.77 41.216-42.97v0c20.691-29.31 25.43-49.11 25.43-49.11v0c-0.103-0.08-79.153-65.87-86.688-155.63" fill="none" stroke-linecap="round" stroke-linejoin="round" stroke-width="20px" style="mix-blend-mode:normal"/><path d="m28.694 2796.6c1.1293 0.79 3.4055 2.37 6.5671 4.47h2e-4c3.2503 2.17 6.0476 3.96 7.7178 5.02h2e-4c0.366 0.24-0.3307-0.21-2e-4 0h3e-4c1.1343 0.73 3.8293 2.56 8.0454 5.04h1e-4c1.2524 0.73 2.7931 1.61 4.5914 2.61h2e-4c7.395 4.12 21.065 11.36 37.291 18.57h2e-4c12.965 5.76 27.263 11.38 41.668 15.66 12.254 3.65 23.476 6.01 33.679 7.11h1e-3c2.428 0.26 4.771 0.45 7.03 0.56 11.499 0.53 20.642 0.01 28.004-1.12 6.894-1.06 13.501-2.84 19.654-5.76 4.767-2.27 9.26-5.2 13.786-9.23 0.994-0.88 1.979-1.81 2.97-2.79 2.526-2.5 4.812-5.03 7.451-8 8.716-9.76 18.242-16.62 28.497-20.77h1e-3c8.465-3.42 16.364-4.58 23.458-4.92 6.114-0.28 11.845 1.01 17.116 3.55 5.025 2.42 9.58 5.95 13.506 10.19h1e-3c3.76 4.07 6.86 8.69 9.124 13.32 1.097 2.24 1.984 4.46 2.643 6.57 0.65 2.08 1.069 4.02 1.258 5.74 0.384 3.51 0.21 6.46-0.448 8.88-0.633 2.33-1.715 4.18-3.238 5.64h-1e-3c-1.496 1.43-3.547 2.59-6.317 3.36-2.728 0.76-6.122 1.13-10.265 0.99-0.232-0.01-0.337-0.06-0.401-0.1-0.088-0.05-0.228-0.16-0.424-0.47-0.2-0.32-0.42-0.8-0.615-1.5-0.193-0.7-0.346-1.54-0.442-2.56-0.194-2.02-0.149-4.54 0.139-7.46 0.284-2.89 0.799-6.11 1.513-9.53 1.414-6.78 3.589-14.26 6.193-21.36 1.289-3.52 2.677-6.92 4.118-10.08 1.434-3.15 2.912-6.03 4.385-8.52 3.073-5.19 6.282-9.56 9.604-12.98h1e-3c3.298-3.4 6.646-5.81 10.019-7.21 1.674-0.7 3.361-1.16 5.065-1.37 1.699-0.21 3.443-0.17 5.241 0.12 3.583 0.6 7.488 2.26 11.72 5.35 3.612 2.63 6.887 6.5 9.733 11.19 2.834 4.67 5.169 10.03 6.953 15.52 1.783 5.48 2.992 11 3.607 15.97 0.307 2.48 0.463 4.8 0.471 6.89 9e-3 2.1-0.13 3.92-0.394 5.4-0.533 3.01-1.338 5.94-2.392 8.49-0.528 1.28-1.106 2.43-1.728 3.43-0.624 1.01-1.272 1.83-1.926 2.47-0.654 0.65-1.29 1.08-1.898 1.36-0.597 0.27-1.212 0.4-1.877 0.39-0.675-0.01-1.497-0.17-2.488-0.6-1.004-0.44-2.171-1.16-3.497-2.26-0.291-0.25-0.535-0.55-0.736-0.95-0.206-0.4-0.381-0.94-0.484-1.63-0.105-0.69-0.134-1.51-0.066-2.47 0.067-0.96 0.229-2.01 0.488-3.17 0.522-2.32 1.418-4.93 2.631-7.69 1.217-2.78 2.732-5.67 4.455-8.54 3.492-5.81 7.767-11.43 12.054-15.83 2.166-2.23 4.298-4.11 6.303-5.56h1e-3c2.041-1.47 3.835-2.41 5.317-2.86 2.007-0.61 4.198-0.85 6.542-0.67 2.371 0.18 4.901 0.78 7.539 1.83 5.378 2.13 11.096 6.08 16.664 11.89 0.036 0.03 0.071 0.07 0.106 0.11h1e-3c10.7 11.2 21.591 30.1 27.751 57.84 2.948 13.28 5.242 29.04 6.786 45.52 1.499 15.99 2.278 32.54 2.25 47.6-0.013 7.38-0.222 14.38-0.632 20.73-0.406 6.28-1.007 11.89-1.805 16.57-0.395 2.32-0.834 4.38-1.313 6.17s-0.985 3.25-1.501 4.39c-0.255 0.56-0.502 1.03-0.736 1.4s-0.437 0.62-0.597 0.79c-0.159 0.16-0.249 0.21-0.261 0.22-9e-3 0.01 0.072-0.02 0.152-0.03h-1e-3c-0.151 0.02-0.358 0-0.642-0.07-0.289-0.08-0.654-0.24-1.095-0.51-0.894-0.54-1.959-1.47-3.15-2.87-1.17-1.38-2.389-3.12-3.622-5.2-1.22-2.07-2.434-4.43-3.608-7.04-2.327-5.18-4.471-11.26-6.191-17.76-1.698-6.41-2.972-13.18-3.59-19.78-5e-3 -0.05-0.011-0.1-0.017-0.14-1.464-10.63-1.167-23.44 0.612-37.21 1.761-13.64 4.958-28.1 9.225-42.08 4.238-13.89 9.512-27.23 15.417-38.7 2.94-5.72 6.026-10.94 9.204-15.53 3.157-4.55 6.381-8.44 9.614-11.54 0.925-0.78 2.156-1.4 3.715-1.78 1.595-0.4 3.483-0.54 5.6-0.39h1e-3c4.241 0.3 9.156 1.73 13.959 4.19h1e-3c4.79 2.44 9.345 5.84 12.914 9.94 1.782 2.05 3.307 4.26 4.497 6.6 1.19 2.35 2.044 4.82 2.487 7.41 0.543 3.18 0.564 6.12 0.18 8.84-0.385 2.73-1.181 5.27-2.3 7.63-2.249 4.75-5.82 8.82-10.013 12.22h-1e-3c-4.214 3.41-8.99 6.1-13.512 8.08-2.269 1-4.462 1.81-6.474 2.45-2.023 0.64-3.847 1.1-5.371 1.39h-1e-3c-2.639 0.5-5.129 1.04-7.655 1.45-2.519 0.4-4.82 0.64-6.849 0.56-1.014-0.05-1.927-0.17-2.739-0.37-0.815-0.21-1.516-0.49-2.123-0.87h-1e-3c-0.604-0.37-1.138-0.83-1.601-1.43-0.469-0.61-0.888-1.39-1.222-2.38-0.115-0.35-0.174-0.68-0.186-1.01-0.013-0.33 0.022-0.67 0.109-1.04 0.178-0.74 0.577-1.57 1.244-2.49h1e-3c0.672-0.91 1.579-1.86 2.693-2.82 1.123-0.96 2.427-1.9 3.857-2.81 2.912-1.86 6.28-3.53 9.597-4.92 3.404-1.42 6.721-2.52 9.468-3.23 11.654-3.02 21.325-2.6 29.191-0.78 8.501 1.96 15.364 5.68 20.622 9.21 8.634 5.8 18.077 11.14 30.614 14.99 14.752 4.53 31.702 6.28 51.465 5.23 29.827-1.59 55.722-7.18 75.153-14.13h1e-3c8-2.86 14.449-5.77 19.575-8.38 6.46-3.28 11.415-6.38 14.906-8.74h1e-3c6.36-4.3 11.24-8.39 15.076-12.61 5.149-5.67 8.164-11.02 9.886-14.3 1.161-2.21 0.308-4.95-1.906-6.11h-1e-3c-2.213-1.17-4.95-0.31-6.114 1.9-1.544 2.94-4.247 7.29-8.671 12.53-3.126 3.69-7.28 8.21-12.706 12.54-3.087 2.46-7.488 5.6-13.565 8.95h-1e-3c-4.787 2.63-10.91 5.58-18.59 8.48-18.687 7.07-43.996 12.82-73.345 14.61-19.284 1.18-35.639-0.44-49.733-4.68-11.952-3.59-20.986-8.64-29.389-14.25h-1e-3c-5.572-3.71-12.974-7.73-22.208-9.86-8.581-1.99-19.026-2.43-31.455 0.76-2.984 0.77-6.519 1.93-10.122 3.42h-1e-3c-3.505 1.44-7.141 3.22-10.357 5.24-1.583 1-3.087 2.07-4.428 3.2-1.324 1.12-2.523 2.33-3.486 3.63h-1e-3c-0.952 1.28-1.714 2.69-2.1 4.23-0.193 0.77-0.291 1.56-0.271 2.37 0.02 0.82 0.156 1.63 0.416 2.43h1e-3c0.473 1.46 1.124 2.75 1.959 3.87h1e-3c0.831 1.1 1.818 2 2.928 2.7h1e-3c1.098 0.69 2.287 1.18 3.521 1.51h1e-3c1.223 0.33 2.497 0.5 3.786 0.57h1e-3c2.542 0.14 5.249-0.13 7.909-0.53 2.625-0.39 5.332-0.94 7.819-1.38 1.766-0.32 3.804-0.82 6.008-1.5 2.198-0.68 4.578-1.54 7.034-2.6 4.876-2.11 10.117-5 14.82-8.77 4.674-3.74 8.894-8.41 11.628-14.1h1e-3c1.365-2.83 2.355-5.92 2.844-9.25 0.488-3.32 0.471-6.86-0.15-10.61-0.53-3.2-1.563-6.23-2.976-9.06-1.412-2.82-3.202-5.43-5.251-7.81-4.089-4.76-9.246-8.63-14.614-11.42-5.36-2.78-11.046-4.53-16.237-4.93h-1e-3c-2.605-0.2-5.145-0.07-7.484 0.49h-1e-3c-2.346 0.56-4.538 1.55-6.357 3.11h-1e-3c-0.034 0.03-0.073 0.06-0.113 0.1h-1e-3c-3.637 3.44-7.158 7.68-10.522 12.51-3.374 4.83-6.612 10.29-9.668 16.19-6.136 11.85-11.576 25.54-15.938 39.71-4.393 14.28-7.704 29.08-9.549 43.11-1.853 14.1-2.236 27.48-0.713 38.85 0.627 6.99 1.937 14.1 3.683 20.81 1.772 6.82 4.004 13.26 6.469 18.82 1.246 2.8 2.56 5.4 3.915 7.72h1e-3c1.362 2.34 2.788 4.42 4.256 6.17h1e-3c1.469 1.75 3.056 3.26 4.755 4.31 0.863 0.54 1.786 0.98 2.764 1.27 0.988 0.3 2.029 0.44 3.099 0.36 0.925-0.07 1.785-0.34 2.56-0.74 0.766-0.4 1.425-0.93 1.989-1.51 0.565-0.57 1.059-1.22 1.496-1.91 0.438-0.69 0.836-1.44 1.199-2.23 0.726-1.59 1.354-3.43 1.904-5.46 0.554-2.04 1.042-4.33 1.47-6.8 0.862-4.99 1.496-10.86 1.923-17.3 0.432-6.52 0.654-13.67 0.677-21.17 0.049-15.29-0.723-32.06-2.226-48.27-1.547-16.69-3.864-32.76-6.882-46.4-6.364-28.78-17.764-48.94-29.527-61.26-0.039-0.04-0.078-0.08-0.117-0.12-6.109-6.37-12.655-11.01-19.198-13.6h-1e-3c-3.223-1.28-6.463-2.07-9.645-2.31h-1e-3c-3.155-0.24-6.249 0.07-9.185 0.97-2.484 0.76-4.991 2.16-7.412 3.9-2.42 1.75-4.865 3.93-7.247 6.38-4.706 4.84-9.307 10.91-13.05 17.15-1.855 3.09-3.514 6.26-4.867 9.35-1.342 3.07-2.406 6.12-3.051 9-0.322 1.44-0.544 2.86-0.639 4.24-0.095 1.37-0.065 2.73 0.134 4.04h1e-3c0.2 1.31 0.573 2.59 1.184 3.79 0.614 1.2 1.454 2.29 2.54 3.19 1.728 1.43 3.46 2.54 5.2 3.29h1e-3c1.741 0.76 3.497 1.17 5.244 1.19 1.749 0.02 3.393-0.35 4.9-1.04h1e-3c1.489-0.68 2.795-1.65 3.931-2.77 1.13-1.12 2.113-2.41 2.967-3.8 0.853-1.38 1.595-2.89 2.237-4.45h1e-3c1.277-3.12 2.197-6.57 2.79-9.96 0.349-2 0.501-4.26 0.486-6.66s-0.199-5-0.54-7.72c-0.681-5.42-2-11.38-3.926-17.27h-1e-3c-1.925-5.88-4.476-11.75-7.648-16.96-3.169-5.2-7.025-9.85-11.601-13.17-4.909-3.56-9.803-5.75-14.666-6.54h-1e-3c-2.438-0.4-4.841-0.44-7.198-0.14h-1e-3c-2.363 0.29-4.652 0.92-6.862 1.85h-1e-3c-4.432 1.86-8.516 4.9-12.27 8.79-3.784 3.91-7.295 8.75-10.551 14.27-1.617 2.74-3.199 5.85-4.705 9.16-1.516 3.34-2.963 6.91-4.3 10.57-2.696 7.38-4.957 15.17-6.436 22.31-0.748 3.6-1.301 7.06-1.609 10.24-0.31 3.19-0.38 6.17-0.127 8.77 0.128 1.3 0.341 2.56 0.666 3.71 0.325 1.16 0.777 2.28 1.412 3.28 0.644 1.01 1.491 1.93 2.59 2.6 1.117 0.68 2.363 1.02 3.668 1.07 4.632 0.14 8.733-0.26 12.275-1.26h1e-3c3.63-1.02 6.7-2.67 9.114-4.98 2.48-2.38 4.129-5.34 5.039-8.7 0.926-3.43 1.078-7.25 0.628-11.33-0.245-2.23-0.769-4.59-1.523-7-0.769-2.45-1.784-4.98-3.016-7.49-2.535-5.19-5.996-10.35-10.208-14.9-4.402-4.76-9.607-8.84-15.483-11.68-6.197-2.99-13.015-4.54-20.295-4.21-7.609 0.34-16.293 1.57-25.658 5.32h-1e-3c-11.353 4.53-21.744 12-31.123 22.39h-1e-3c-2.656 2.93-4.845 5.31-7.217 7.59h-1e-3c-0.926 0.9-1.833 1.73-2.737 2.52h-1e-3c-4.082 3.57-8.021 6.12-12.169 8.08-5.388 2.55-11.275 4.15-17.652 5.03-6.847 0.95-15.356 1.22-26.424 0.26h-1e-3c-2.086-0.18-4.258-0.43-6.518-0.76h-1e-3c-9.485-1.4-20.066-4.21-31.586-8.39h-1e-3c-13.57-4.94-27.022-11.26-39.196-17.7h-5e-4c-15.335-8.12-27.865-16.01-34.885-20.48h-4e-4c-1.6887-1.07-3.1293-1.99-4.322-2.75h-4e-4c-2.7035-1.71-5.103-3.12-7.8065-4.83h-3e-4c-0.3191-0.2 0.3537 0.22 3e-4 0h-4e-4c-1.617-1.03-4.313-2.76-7.4371-4.84h-4e-4c-3.0308-2.02-5.2015-3.53-6.263-4.27-3.5916-2.51-8.5398-1.64-11.053 1.95h-2e-4c-2.5134 3.59-1.6408 8.54 1.9493 11.05z" fill="#ff6c9d" stroke-width="10px" style="mix-blend-mode:normal"/></g></g><g transform="translate(135.65 -908.93)" filter="url(#c)" style="mix-blend-mode:normal"><g transform="translate(0 -741.1)" filter="url(#a)" opacity=".60158" stroke="#ffb5ce"><path d="m92.264 2033.9c25.643-141.95 192.5-181.64 297.01-175.87v0c92.522 5.11 159.47 37.3 210.61 73.46h1e-3c67.167 47.48 104.59 101.71 119.39 157.51" fill="none" stroke-linecap="round" stroke-linejoin="round" stroke-width="20px" style="mix-blend-mode:normal"/><path d="m726.46 2140.1c0.592 10.76 0.428 15.84-0.442 26.57-7.587 93.59-92.791 157.09-179.37 178.86v0c-114.18 28.71-197.1 2.21-262.6-22.77 0 0-35.131 19.6-75.415 26.31h-1e-3c-57.876 9.65-99.092-5.26-99.092-5.26v0c0.03-0.02 22.707-16.75 41.216-42.97v0c20.691-29.31 25.43-49.11 25.43-49.11v0c-0.051-0.04-79.15-65.85-86.688-155.63" fill="none" stroke-linecap="round" stroke-linejoin="round" stroke-width="20px" style="mix-blend-mode:normal"/><path d="m28.694 2039c1.1293 0.79 3.4055 2.38 6.5671 4.48h4e-4c3.2502 2.17 6.0475 3.96 7.7176 5.02h4e-4c0.3656 0.24-0.3309-0.21-4e-4 0h6e-4c1.1344 0.73 3.8293 2.56 8.0451 5.03h3e-4c1.2523 0.74 2.793 1.62 4.5912 2.62h4e-4c7.395 4.12 21.065 11.36 37.29 18.57h4e-4c12.965 5.76 27.263 11.37 41.668 15.66 12.254 3.65 23.476 6.01 33.679 7.11h1e-3c2.429 0.26 4.771 0.45 7.03 0.56 11.499 0.53 20.642 0.01 28.004-1.13h1e-3c6.893-1.05 13.5-2.83 19.653-5.75h1e-3c4.766-2.27 9.259-5.2 13.785-9.23 0.994-0.88 1.979-1.81 2.97-2.79 2.526-2.5 4.812-5.04 7.451-8 8.716-9.77 18.242-16.62 28.497-20.77h1e-3c8.465-3.42 16.364-4.58 23.458-4.92 6.114-0.28 11.845 1.01 17.116 3.54 5.025 2.43 9.58 5.96 13.506 10.2h1e-3c3.76 4.07 6.86 8.69 9.124 13.32 1.097 2.24 1.984 4.46 2.643 6.57 0.65 2.07 1.069 4.01 1.258 5.74 0.384 3.51 0.21 6.46-0.448 8.88-0.633 2.32-1.715 4.18-3.238 5.63l-1e-3 0.01c-1.497 1.43-3.547 2.59-6.317 3.36-2.728 0.76-6.122 1.13-10.265 0.99-0.232-0.01-0.337-0.06-0.401-0.1-0.088-0.05-0.228-0.16-0.424-0.47-0.2-0.32-0.42-0.8-0.615-1.5-0.193-0.7-0.346-1.55-0.442-2.56-0.194-2.03-0.149-4.54 0.139-7.46 0.284-2.89 0.799-6.11 1.513-9.53 1.414-6.78 3.589-14.26 6.193-21.36 1.289-3.52 2.677-6.93 4.118-10.09 1.434-3.14 2.912-6.02 4.385-8.51 3.073-5.2 6.282-9.56 9.604-12.98h1e-3c3.298-3.4 6.646-5.81 10.019-7.22h1e-3c1.674-0.69 3.36-1.15 5.064-1.36h1e-3c1.698-0.21 3.442-0.17 5.24 0.12 3.583 0.6 7.488 2.26 11.72 5.34h1e-3c3.611 2.64 6.886 6.51 9.732 11.2 2.834 4.67 5.169 10.03 6.953 15.51 1.783 5.48 2.992 11.01 3.607 15.98 0.307 2.48 0.463 4.8 0.471 6.89 9e-3 2.1-0.13 3.92-0.394 5.4-0.533 3-1.338 5.94-2.392 8.49-0.528 1.28-1.106 2.43-1.728 3.43-0.624 1.01-1.272 1.83-1.926 2.47s-1.291 1.08-1.898 1.36h-1e-3c-0.597 0.27-1.211 0.4-1.876 0.39-0.676-0.01-1.497-0.17-2.488-0.61-1.004-0.44-2.171-1.15-3.497-2.26h-1e-3c-0.29-0.24-0.534-0.54-0.735-0.94-0.206-0.4-0.381-0.94-0.484-1.63-0.105-0.69-0.134-1.51-0.066-2.47 0.067-0.96 0.229-2.02 0.488-3.17 0.522-2.32 1.418-4.93 2.631-7.69 1.217-2.78 2.732-5.67 4.455-8.54 3.492-5.81 7.767-11.43 12.054-15.84 2.166-2.22 4.298-4.1 6.303-5.55h1e-3c2.041-1.47 3.835-2.41 5.317-2.86h1e-3c2.006-0.62 4.197-0.85 6.541-0.67 2.371 0.18 4.901 0.78 7.539 1.82h1e-3c5.378 2.14 11.095 6.09 16.663 11.9h1e-3c0.035 0.03 0.07 0.07 0.105 0.11h1e-3c10.7 11.2 21.591 30.1 27.751 57.84 2.948 13.27 5.242 29.04 6.786 45.52 1.499 15.99 2.278 32.54 2.25 47.59v0.01c-0.013 7.38-0.222 14.38-0.632 20.73-0.406 6.28-1.007 11.89-1.805 16.57-0.395 2.32-0.834 4.38-1.313 6.17s-0.985 3.25-1.501 4.39c-0.255 0.56-0.502 1.02-0.736 1.39v0.01c-0.234 0.37-0.437 0.62-0.597 0.79-0.159 0.16-0.249 0.21-0.261 0.22-8e-3 0.01 0.072-0.02 0.152-0.03h-1e-3c-0.151 0.02-0.358 0-0.642-0.07h-1e-3c-0.288-0.09-0.653-0.24-1.094-0.51-0.894-0.54-1.959-1.47-3.15-2.87-1.17-1.38-2.389-3.12-3.622-5.2-1.221-2.07-2.434-4.43-3.608-7.04v-0.01c-2.327-5.17-4.471-11.25-6.191-17.75-1.698-6.41-2.972-13.18-3.59-19.78-5e-3 -0.05-0.011-0.1-0.017-0.15-1.464-10.63-1.167-23.43 0.612-37.21 1.761-13.63 4.958-28.1 9.225-42.07 4.238-13.89 9.512-27.23 15.417-38.71 2.94-5.71 6.026-10.93 9.204-15.52 3.157-4.55 6.381-8.44 9.614-11.54 0.925-0.78 2.156-1.4 3.715-1.78 1.596-0.4 3.483-0.54 5.6-0.39h1e-3c4.241 0.3 9.156 1.73 13.959 4.19h1e-3c4.79 2.44 9.345 5.84 12.914 9.94 1.782 2.05 3.307 4.26 4.497 6.6 1.19 2.35 2.044 4.82 2.487 7.41 0.543 3.17 0.564 6.12 0.18 8.84-0.385 2.73-1.181 5.27-2.3 7.63-2.249 4.75-5.82 8.82-10.013 12.22h-1e-3c-4.214 3.41-8.99 6.1-13.512 8.08h-1e-3c-2.268 1-4.461 1.81-6.473 2.45-2.023 0.64-3.847 1.09-5.371 1.38h-1e-3c-2.639 0.51-5.129 1.04-7.655 1.45-2.519 0.41-4.82 0.65-6.849 0.57-1.014-0.05-1.927-0.17-2.739-0.37-0.815-0.21-1.516-0.5-2.123-0.87h-1e-3c-0.604-0.37-1.138-0.84-1.601-1.44-0.469-0.6-0.888-1.38-1.222-2.37-0.115-0.35-0.174-0.68-0.186-1.01-0.013-0.33 0.022-0.67 0.109-1.04 0.178-0.74 0.577-1.57 1.244-2.49h1e-3c0.672-0.92 1.579-1.86 2.693-2.82h1e-3c1.122-0.96 2.426-1.9 3.856-2.82 2.912-1.85 6.28-3.52 9.597-4.91h1e-3c3.403-1.42 6.72-2.52 9.467-3.24 11.654-3.01 21.325-2.59 29.191-0.78l1e-3 0.01c8.5 1.96 15.364 5.68 20.621 9.21h1e-3c8.633 5.8 18.076 11.14 30.613 14.99h1e-3c14.751 4.53 31.701 6.28 51.464 5.23 29.827-1.6 55.722-7.19 75.153-14.13h1e-3c8-2.86 14.449-5.77 19.575-8.38 6.46-3.28 11.415-6.38 14.906-8.74h1e-3c6.36-4.3 11.24-8.39 15.076-12.62 5.149-5.66 8.164-11.01 9.886-14.29 1.161-2.22 0.307-4.95-1.906-6.11h-1e-3c-2.214-1.17-4.95-0.32-6.114 1.9-1.544 2.94-4.247 7.29-8.671 12.52-3.126 3.7-7.28 8.22-12.706 12.54-3.087 2.46-7.488 5.61-13.565 8.96-4.788 2.63-10.911 5.58-18.591 8.48-18.687 7.07-43.996 12.82-73.345 14.61-19.284 1.18-35.639-0.44-49.733-4.68-11.952-3.59-20.986-8.64-29.389-14.25-5.573-3.71-12.975-7.73-22.209-9.87-8.58-1.98-19.026-2.42-31.455 0.77-2.984 0.76-6.519 1.93-10.122 3.41h-1e-3c-3.505 1.45-7.141 3.23-10.357 5.25-1.583 1-3.087 2.07-4.428 3.2-1.324 1.12-2.523 2.33-3.486 3.63h-1e-3c-0.952 1.27-1.714 2.69-2.1 4.23-0.193 0.76-0.291 1.56-0.271 2.37s0.156 1.63 0.416 2.43c0.474 1.46 1.125 2.75 1.96 3.86l1e-3 0.01c0.831 1.1 1.818 2 2.928 2.7h1e-3c1.098 0.69 2.287 1.18 3.521 1.51h1e-3c1.222 0.33 2.496 0.5 3.786 0.57 2.543 0.14 5.25-0.13 7.91-0.53 2.625-0.39 5.331-0.94 7.819-1.38 1.766-0.32 3.804-0.82 6.008-1.5 2.197-0.68 4.578-1.55 7.034-2.6 4.875-2.11 10.117-5 14.82-8.77 4.674-3.74 8.894-8.41 11.628-14.1h1e-3c1.365-2.84 2.355-5.92 2.844-9.25 0.488-3.32 0.471-6.86-0.15-10.61-0.53-3.2-1.563-6.23-2.976-9.06-1.412-2.82-3.202-5.43-5.251-7.82-4.089-4.75-9.246-8.62-14.614-11.41-5.36-2.78-11.046-4.53-16.237-4.93h-1e-3c-2.605-0.2-5.145-0.07-7.484 0.49-2.347 0.55-4.539 1.55-6.358 3.1-0.035 0.03-0.074 0.07-0.114 0.11h-1e-3c-3.637 3.44-7.158 7.68-10.522 12.5-3.374 4.84-6.612 10.3-9.668 16.2-6.136 11.84-11.576 25.53-15.938 39.71-4.393 14.28-7.704 29.08-9.549 43.11-1.853 14.09-2.237 27.48-0.713 38.85 0.627 6.99 1.937 14.1 3.683 20.81 1.772 6.82 4.004 13.26 6.469 18.81 1.246 2.81 2.56 5.41 3.915 7.73 1.363 2.34 2.788 4.42 4.257 6.17 1.47 1.75 3.057 3.26 4.756 4.31 0.863 0.54 1.786 0.98 2.764 1.27 0.988 0.3 2.029 0.43 3.099 0.36 0.925-0.07 1.785-0.34 2.56-0.74 0.766-0.41 1.425-0.93 1.989-1.51 0.565-0.58 1.059-1.23 1.496-1.91 0.438-0.69 0.836-1.44 1.199-2.23 0.726-1.59 1.354-3.43 1.904-5.46 0.554-2.04 1.042-4.33 1.47-6.8 0.862-4.99 1.496-10.86 1.923-17.3 0.432-6.52 0.654-13.67 0.677-21.17 0.049-15.29-0.723-32.06-2.226-48.27-1.547-16.69-3.864-32.76-6.882-46.4-6.364-28.78-17.763-48.94-29.527-61.26-0.039-0.04-0.078-0.08-0.117-0.13-6.108-6.37-12.655-11-19.198-13.59h-1e-3c-3.223-1.28-6.463-2.07-9.645-2.31-3.156-0.24-6.25 0.06-9.186 0.96-2.484 0.77-4.991 2.16-7.412 3.91-2.42 1.75-4.865 3.92-7.247 6.38-4.706 4.84-9.307 10.91-13.05 17.15-1.855 3.09-3.514 6.25-4.867 9.35-1.342 3.07-2.406 6.12-3.051 9-0.322 1.44-0.544 2.86-0.639 4.23-0.095 1.38-0.065 2.73 0.134 4.04h1e-3c0.199 1.31 0.573 2.6 1.184 3.8 0.614 1.2 1.454 2.29 2.54 3.19 1.728 1.43 3.46 2.53 5.2 3.29 1.742 0.76 3.498 1.17 5.245 1.19 1.749 0.02 3.393-0.35 4.9-1.04 1.49-0.68 2.796-1.65 3.932-2.77 1.13-1.12 2.113-2.41 2.967-3.8 0.853-1.38 1.595-2.89 2.237-4.45h1e-3c1.277-3.12 2.197-6.57 2.79-9.96 0.349-2.01 0.501-4.26 0.486-6.66s-0.199-5-0.54-7.72c-0.681-5.42-2-11.38-3.926-17.27h-1e-3c-1.925-5.88-4.475-11.75-7.648-16.96-3.169-5.2-7.025-9.85-11.601-13.17-4.909-3.56-9.803-5.75-14.666-6.54-2.438-0.4-4.842-0.44-7.199-0.15h-1e-3c-2.362 0.3-4.652 0.93-6.862 1.86-4.433 1.86-8.517 4.9-12.271 8.79-3.784 3.91-7.295 8.75-10.551 14.27-1.617 2.74-3.199 5.85-4.705 9.16-1.516 3.34-2.963 6.9-4.3 10.56-2.696 7.39-4.957 15.18-6.436 22.32-0.748 3.6-1.301 7.06-1.609 10.24-0.31 3.19-0.38 6.17-0.127 8.76 0.127 1.31 0.341 2.56 0.666 3.72s0.777 2.28 1.412 3.28c0.644 1.01 1.491 1.92 2.59 2.59 1.116 0.69 2.363 1.03 3.668 1.07 4.632 0.15 8.733-0.26 12.275-1.25 3.631-1.02 6.701-2.67 9.115-4.98 2.48-2.38 4.129-5.34 5.039-8.7 0.926-3.43 1.078-7.25 0.628-11.33-0.245-2.23-0.769-4.59-1.523-7-0.769-2.45-1.784-4.98-3.016-7.49-2.535-5.19-5.995-10.35-10.208-14.91-4.402-4.76-9.607-8.83-15.483-11.67-6.197-2.99-13.015-4.54-20.295-4.21-7.609 0.34-16.293 1.57-25.658 5.32h-1e-3c-11.353 4.53-21.744 12-31.123 22.39h-1e-3c-2.656 2.93-4.845 5.31-7.217 7.59h-1e-3c-0.926 0.9-1.833 1.73-2.737 2.52h-1e-3c-4.082 3.57-8.021 6.12-12.169 8.08-5.388 2.55-11.275 4.15-17.652 5.03-6.846 0.95-15.355 1.22-26.424 0.26-2.087-0.18-4.259-0.43-6.519-0.76h-1e-3c-9.485-1.4-20.066-4.21-31.586-8.39h-1e-3c-13.57-4.94-27.022-11.26-39.196-17.7h-3e-4c-15.335-8.12-27.866-16.01-34.886-20.48h-2e-4c-1.6888-1.07-3.1295-1.99-4.3222-2.75h-2e-4c-2.7036-1.71-5.1031-3.12-7.8067-4.83h-2e-4c-0.3195-0.21 0.3537 0.22 2e-4 0h-2e-4c-1.617-1.03-4.3131-2.76-7.4373-4.84h-2e-4c-3.0309-2.02-5.2017-3.53-6.2632-4.27-3.5916-2.52-8.5398-1.64-11.053 1.95h-3e-4c-2.5132 3.59-1.6406 8.54 1.9494 11.05z" fill="#ffb5ce" stroke-width="10px" style="mix-blend-mode:normal"/></g></g><g transform="translate(135.65 -908.93)" filter="url(#a)" opacity=".66042"><g transform="translate(0 16.537)" stroke="#fff"><path d="m28.694 1281.4c1.1293 0.7905 3.4055 2.373 6.5671 4.4787 3.2504 2.1649 6.0478 3.9582 7.718 5.0205 0.36638 0.233-0.33062-0.2113 0 0 1.1341 0.7247 3.8292 2.5566 8.0457 5.0308 1.2524 0.7349 2.7932 1.6159 4.5915 2.618 7.3949 4.1209 21.065 11.357 37.291 18.566 12.965 5.7608 27.263 11.376 41.668 15.663 12.254 3.6472 23.476 6.0052 33.679 7.1073 2.4289 0.2623 4.7714 0.4468 7.0304 0.5581 11.499 0.5345 20.643 0.01 28.004-1.1217 6.8937-1.0589 13.501-2.8388 19.654-5.7595 4.767-2.2626 9.2594-5.1958 13.786-9.2249 0.99435-0.8851 1.9795-1.8127 2.9703-2.7921 2.5262-2.4973 4.8123-5.0344 7.4512-7.9998 8.7153-9.7641 18.241-16.623 28.497-20.769 8.4657-3.4217 16.365-4.5833 23.458-4.9181 6.1142-0.2846 11.846 1.0044 17.116 3.5429 5.0248 2.4201 9.5796 5.9549 13.506 10.198 3.7602 4.0632 6.861 8.6901 9.1244 13.317 1.0969 2.2424 1.9838 4.4586 2.6435 6.5671 0.64979 2.077 1.0691 4.0178 1.2581 5.7431 0.38396 3.5058 0.20975 6.4566-0.44819 8.8767-0.63263 2.327-1.7154 4.183-3.2385 5.6381-1.4969 1.4301-3.5479 2.5951-6.3177 3.367-2.7282 0.7603-6.1215 1.1289-10.265 0.9907-0.23173-0.01-0.33758-0.06-0.40097-0.1-0.0878-0.055-0.22823-0.1654-0.42394-0.476-0.20013-0.3177-0.42005-0.8002-0.61499-1.5003-0.19294-0.6928-0.34581-1.5424-0.44272-2.5562-0.19357-2.0251-0.14885-4.5404 0.13897-7.464 0.28449-2.8898 0.79912-6.1061 1.513-9.5279 1.4146-6.7801 3.5896-14.259 6.1936-21.362 1.2887-3.5151 2.6764-6.9214 4.1173-10.081 1.4346-3.1464 2.9127-6.0285 4.3854-8.517 3.0726-5.1925 6.2818-9.558 9.6045-12.981 3.2983-3.3983 6.6469-5.8053 10.02-7.2121 1.6741-0.6982 3.3606-1.1531 5.065-1.3622 1.6987-0.2084 3.4424-0.1761 5.2406 0.1215 3.5831 0.5931 7.4878 2.2594 11.72 5.3411 3.612 2.6308 6.887 6.5009 9.7329 11.192 2.8334 4.6704 5.1685 10.035 6.9525 15.518 1.783 5.4797 2.9925 11.008 3.6069 15.974 0.30723 2.4832 0.46304 4.8047 0.47193 6.8931 9e-3 2.0982-0.13071 3.9141-0.39415 5.3986-0.53306 3.0043-1.3385 5.9432-2.3926 8.4918-0.52724 1.2747-1.1062 2.4262-1.7273 3.4277-0.62416 1.0064-1.2719 1.8305-1.926 2.4727-0.65409 0.6422-1.2908 1.0796-1.8983 1.3539-0.5972 0.2696-1.2118 0.4031-1.8767 0.3931-0.67537-0.01-1.4968-0.1704-2.488-0.6048-1.004-0.4401-2.1711-1.1571-3.4977-2.2595-0.29085-0.2422-0.53461-0.5457-0.73534-0.9417-0.20627-0.407-0.38094-0.943-0.48445-1.6296-0.10458-0.6937-0.13359-1.5168-0.0663-2.4731 0.0673-0.9568 0.2289-2.0164 0.48806-3.1693 0.52215-2.3229 1.4185-4.9283 2.6313-7.6943 1.2172-2.776 2.7318-5.6654 4.4551-8.535 3.4918-5.8149 7.7669-11.429 12.054-15.837 2.1666-2.2277 4.2987-4.1086 6.3038-5.5543 2.041-1.4716 3.8358-2.4091 5.3178-2.8626 2.0062-0.6143 4.1972-0.8455 6.5414-0.6679 2.3709 0.1795 4.9012 0.7778 7.5397 1.8243 5.3782 2.1332 11.095 6.0847 16.664 11.891 0.0354 0.037 0.0708 0.074 0.10616 0.1109 10.7 11.206 21.591 30.105 27.752 57.844 2.9479 13.273 5.2415 29.035 6.786 45.516 1.4991 15.997 2.278 32.541 2.2499 47.599-0.0137 7.3818-0.22174 14.382-0.63189 20.73-0.40592 6.283-1.0078 11.894-1.8049 16.572-0.39513 2.3187-0.83434 4.3849-1.3137 6.1744-0.47897 1.7881-0.9846 3.2491-1.5002 4.3874-0.25533 0.5637-0.50286 1.0254-0.73631 1.396-0.23412 0.3717-0.43718 0.6249-0.59705 0.7909-0.15919 0.1654-0.24945 0.2176-0.261 0.2257-0.01 0.01 0.0713-0.025 0.15146-0.03-0.15111 0.014-0.35845 0-0.64265-0.076-0.28876-0.081-0.65393-0.2354-1.095-0.5041-0.89348-0.5443-1.9588-1.4742-3.1497-2.8736-1.1701-1.3749-2.3895-3.1179-3.622-5.202-1.2205-2.0637-2.434-4.428-3.6085-7.0405-2.3264-5.1748-4.4707-11.259-6.1905-17.752-1.6985-6.4132-2.9718-13.186-3.5906-19.784a0.13318 1.1183 0.30137 0 0-0.0165-0.1446c-1.4646-10.63-1.1668-23.435 0.61193-37.209 1.7612-13.639 4.9584-28.101 9.2246-42.079 4.2378-13.885 9.5119-27.228 15.418-38.701 2.94-5.7115 6.026-10.939 9.2036-15.524 3.1569-4.5555 6.3812-8.4443 9.614-11.537 0.925-0.7866 2.1563-1.4022 3.7148-1.7876 1.5956-0.3947 3.4835-0.5342 5.6008-0.3859 4.2411 0.2971 9.1567 1.7327 13.96 4.1864 4.7902 2.4469 9.3454 5.844 12.914 9.9445 1.7819 2.0474 3.3075 4.258 4.4974 6.601 1.1901 2.3434 2.0442 4.8188 2.4871 7.4035 0.5427 3.1785 0.56408 6.1212 0.17983 8.8449-0.38498 2.7289-1.1814 5.2683-2.3003 7.6303-2.249 4.7478-5.8197 8.8155-10.013 12.215-4.2142 3.416-8.9909 6.1024-13.513 8.0851-2.2687 0.9948-4.4618 1.8075-6.4738 2.4447-2.0226 0.6406-3.8469 1.0992-5.3714 1.3894-2.6397 0.505-5.1299 1.0398-7.6556 1.4493-2.5187 0.4084-4.8203 0.6454-6.849 0.5616-1.0143-0.042-1.9268-0.1632-2.7392-0.3685-0.81485-0.2059-1.5162-0.4924-2.1234-0.8639-0.60476-0.37-1.139-0.8392-1.6015-1.4387-0.46856-0.6075-0.88847-1.3815-1.2217-2.3776-0.11571-0.343-0.17457-0.6757-0.18673-1.0037-0.0123-0.3308 0.0223-0.6763 0.10957-1.0414 0.17762-0.7431 0.57644-1.576 1.2441-2.4884 0.67264-0.9193 1.5795-1.8664 2.694-2.8212 1.1226-0.9619 2.4263-1.9064 3.8566-2.8174 2.9121-1.8547 6.2802-3.527 9.5971-4.9112 3.4041-1.4206 6.721-2.5248 9.4677-3.239 11.654-3.0172 21.325-2.5976 29.191-0.7794 8.501 1.965 15.364 5.6824 20.622 9.216 8.6337 5.7953 18.077 11.14 30.614 14.988 14.752 4.528 31.702 6.2826 51.465 5.2296 29.827-1.5947 55.722-7.184 75.154-14.131 8.0003-2.8603 14.45-5.7671 19.575-8.3752 6.4606-3.2872 11.415-6.3831 14.907-8.7435 6.3602-4.3 11.241-8.3939 15.077-12.615 5.1493-5.666 8.1644-11.016 9.886-14.295a4.5299 4.5299 90 0 0-8.0213-4.2116c-1.5434 2.9396-4.2462 7.2949-8.6706 12.527-3.1258 3.6964-7.28 8.2157-12.706 12.54-3.0872 2.4601-7.4885 5.6036-13.566 8.9514-4.7878 2.6375-10.911 5.5808-18.591 8.4865-18.687 7.0703-43.996 12.819-73.345 14.607-19.284 1.1788-35.639-0.4388-49.733-4.6784-11.952-3.5954-20.986-8.6424-29.389-14.248-5.5726-3.7141-12.975-7.7304-22.209-9.8685-8.5803-1.9868-19.026-2.425-31.455 0.7665-2.984 0.7633-6.519 1.9281-10.122 3.4141-3.5054 1.4455-7.1419 3.2229-10.358 5.2468-1.5834 0.9966-3.0868 2.0668-4.428 3.201-1.324 1.1195-2.5234 2.3295-3.4866 3.6232-0.95255 1.2793-1.7149 2.6954-2.1007 4.232-0.19261 0.7671-0.29055 1.5616-0.27072 2.3755 0.0198 0.8116 0.15623 1.6233 0.41632 2.4259 0.47346 1.4628 1.1248 2.7536 1.9601 3.866 0.83116 1.1069 1.8181 2.0017 2.929 2.7037 1.0982 0.6939 2.2876 1.1807 3.5218 1.5106 1.2229 0.3269 2.4971 0.5017 3.7868 0.5713 2.5429 0.1371 5.2494-0.1308 7.9096-0.5307 2.6246-0.3945 5.3316-0.9394 7.819-1.3841 1.7658-0.319 3.8037-0.8178 6.0079-1.4984 2.1976-0.6787 4.5778-1.5435 7.0339-2.6021 4.8755-2.1013 10.118-4.9957 14.82-8.7622 4.6745-3.7442 8.8947-8.4146 11.629-14.1 1.3652-2.8385 2.3554-5.9218 2.8441-9.2501 0.488-3.3239 0.47134-6.8623-0.14963-10.61-0.52947-3.2032-1.5624-6.2344-2.976-9.0599-1.4115-2.8212-3.2018-5.4363-5.2508-7.8191-4.0894-4.7553-9.2456-8.628-14.614-11.412-5.3598-2.7793-11.046-4.5321-16.238-4.9344-2.605-0.2018-5.1454-0.068-7.4846 0.4884-2.3468 0.5585-4.539 1.5552-6.3582 3.1076a0.12651 1.0273 40.866 0 0-0.11417 0.1032c-3.6373 3.4452-7.1587 7.6834-10.522 12.506-3.3737 4.8375-6.6118 10.297-9.6682 16.197-6.1355 11.844-11.576 25.534-15.938 39.711-4.3926 14.276-7.7044 29.082-9.5489 43.109-1.8534 14.095-2.2367 27.482-0.71292 38.853 0.6263 6.9834 1.9368 14.099 3.6824 20.81 1.7722 6.8136 4.0044 13.257 6.4696 18.813 1.246 2.8083 2.5592 5.4072 3.9149 7.7285 1.363 2.3339 2.7882 4.4203 4.257 6.1698 1.4694 1.7502 3.0567 3.2526 4.7553 4.31 0.86322 0.5373 1.7865 0.9793 2.7642 1.2699 0.98817 0.2936 2.0296 0.4314 3.0992 0.3545 0.92523-0.068 1.7852-0.334 2.5598-0.7409 0.76613-0.4024 1.425-0.9292 1.9892-1.5049 0.56482-0.5765 1.0592-1.227 1.4957-1.9119 0.43877-0.6884 0.83643-1.4389 1.1995-2.2319 0.72585-1.585 1.3541-3.4287 1.9034-5.4558 0.55424-2.045 1.0422-4.3292 1.4701-6.8055 0.862-4.9887 1.4966-10.854 1.9233-17.294 0.43205-6.5205 0.65362-13.67 0.67743-21.17 0.0485-15.294-0.72372-32.065-2.2266-48.275-1.5472-16.687-3.864-32.758-6.8817-46.402-6.3642-28.773-17.764-48.935-29.527-61.258-0.039-0.041-0.078-0.082-0.11704-0.1224-6.1086-6.3711-12.656-11.002-19.199-13.597-3.2237-1.2784-6.4635-2.0683-9.6458-2.3085-3.1554-0.2383-6.2498 0.065-9.1855 0.9648-2.484 0.7617-4.9908 2.1595-7.4122 3.9073-2.4196 1.7465-4.8649 3.9231-7.2472 6.3751-4.7055 4.8431-9.3065 10.908-13.05 17.152-1.855 3.0937-3.5135 6.2553-4.867 9.3492-1.3419 3.0673-2.4061 6.1183-3.0506 9.0006-0.3217 1.4385-0.54427 2.8589-0.63932 4.2359-0.0947 1.3712-0.065 2.7307 0.13461 4.0396 0.19993 1.311 0.57307 2.5937 1.1841 3.7921 0.61456 1.2053 1.4543 2.291 2.5404 3.1906 1.7279 1.4308 3.4599 2.5382 5.2003 3.2956 1.7412 0.7577 3.4973 1.1671 5.2448 1.1867 1.7486 0.02 3.3926-0.3527 4.9001-1.0408 1.4899-0.6801 2.7962-1.6448 3.9319-2.7677 1.1301-1.1175 2.113-2.4126 2.9669-3.7989 0.85285-1.3846 1.5953-2.8901 2.2375-4.4558 1.2777-3.1146 2.1976-6.5622 2.7904-9.9599 0.34962-2.0013 0.50144-4.2531 0.48612-6.6531-0.0153-2.4048-0.19889-5.0053-0.53999-7.721-0.68107-5.4222-2.0004-11.383-3.9264-17.269-1.9251-5.8831-4.476-11.751-7.6483-16.96-3.1689-5.2028-7.0249-9.8572-11.601-13.176-4.9096-3.5607-9.8036-5.7457-14.667-6.5383-2.438-0.3974-4.8413-0.4399-7.1992-0.1444-2.3629 0.2961-4.6527 0.9281-6.8628 1.8564-4.4326 1.8616-8.5165 4.9013-12.271 8.7848-3.7841 3.9144-7.2954 8.75-10.551 14.272-1.6168 2.7422-3.1994 5.848-4.7055 9.163-1.5153 3.3354-2.963 6.9041-4.2997 10.564-2.6955 7.3808-4.9569 15.178-6.4363 22.313-0.74735 3.6046-1.3004 7.0651-1.6089 10.245-0.30949 3.1903-0.37971 6.1666-0.12692 8.7611 0.12753 1.309 0.34096 2.5606 0.66584 3.717 0.32494 1.1567 0.77758 2.2761 1.4122 3.2755 0.64354 1.0135 1.4913 1.9285 2.59 2.5985 1.1164 0.6807 2.3628 1.0288 3.668 1.0701 4.6322 0.1463 8.7331-0.26 12.275-1.2551 3.6306-1.0199 6.7009-2.6673 9.1144-4.9831 2.4808-2.3802 4.1299-5.335 5.0392-8.699 0.92634-3.4272 1.0788-7.2472 0.62875-11.331-0.24507-2.2241-0.76949-4.588-1.5236-6.9953-0.76832-2.4527-1.7838-4.9789-3.0156-7.4962-2.5356-5.1818-5.9957-10.347-10.208-14.901-4.4018-4.7592-9.6067-8.8356-15.483-11.671-6.1965-2.9902-13.015-4.5419-20.295-4.2119-7.6096 0.3398-16.294 1.5717-25.659 5.3147-11.354 4.5377-21.745 12.007-31.124 22.394-2.6567 2.9322-4.8454 5.305-7.2179 7.592-0.92624 0.8928-1.8336 1.7281-2.7382 2.5181-4.082 3.565-8.0216 6.1161-12.17 8.0783-5.3878 2.5487-11.275 4.1523-17.652 5.0348-6.8467 0.9476-15.356 1.2169-26.425 0.2538-2.0865-0.1768-4.2585-0.4283-6.5192-0.7605-9.4854-1.3936-20.067-4.2037-31.587-8.3911-13.57-4.9324-27.023-11.258-39.196-17.7-15.335-8.1153-27.866-16.008-34.886-20.473-1.6889-1.0742-3.1296-1.9957-4.3224-2.7508-2.7037-1.7116-5.1032-3.1245-7.8069-4.8361-0.31988-0.2024 0.35354 0.2249 0 0-1.617-1.0284-4.3132-2.757-7.4375-4.8379-3.0311-2.0188-5.2018-3.5282-6.2634-4.2713a7.938 7.938 90 0 0-9.1043 13.006z" fill="#fff" stroke-width="10" style="mix-blend-mode:normal"/><path d="m92.264 1276.3c25.643-141.95 192.5-181.64 297.01-175.87 92.523 5.1067 159.47 37.298 210.61 73.452 67.168 47.484 104.59 101.72 119.39 157.52" fill="none" stroke-linecap="round" stroke-linejoin="round" stroke-width="20" style="mix-blend-mode:normal"/><path d="m726.46 1382.5c0.59173 10.752 0.42787 15.838-0.44185 26.566-7.5876 93.595-92.792 157.09-179.37 178.86-114.18 28.714-197.1 2.2101-262.6-22.768 0 0-35.131 19.594-75.415 26.308-57.877 9.6461-99.092-5.2616-99.092-5.2616s22.695-16.736 41.215-42.969c20.691-29.308 25.431-49.108 25.431-49.108v0s-79.148-65.819-86.689-155.63" fill="none" stroke-linecap="round" stroke-linejoin="round" stroke-width="20" style="mix-blend-mode:normal"/></g></g></svg>
