<?xml version="1.0" encoding="UTF-8" standalone="no"?>
<!-- Created with Inkscape (http://www.inkscape.org/) -->

<svg
   inkscape:version="1.1.1 (c3084ef, 2021-09-22)"
   sodipodi:docname="logo_vec.svg"
   viewBox="0 0 1063.7352 915.41785"
   height="915.41785"
   width="1063.7352"
   id="svg879"
   version="1.1"
   xmlns:inkscape="http://www.inkscape.org/namespaces/inkscape"
   xmlns:sodipodi="http://sodipodi.sourceforge.net/DTD/sodipodi-0.dtd"
   xmlns:xlink="http://www.w3.org/1999/xlink"
   xmlns="http://www.w3.org/2000/svg"
   xmlns:svg="http://www.w3.org/2000/svg">
  <defs
     id="defs883">
    <inkscape:path-effect
       effect="powerstroke"
       id="path-effect1439"
       is_visible="true"
       lpeversion="1"
       offset_points="0.14669488,7.9380478 | 0.14669488,7.9380478 | 0.21453733,7.9575942 | 1.8162768,3.5052385 | 0.95501767,4.1484184 | 10.501576,3.5898795 | 20.882333,4.5298606 | 20.636317,3.3075663"
       not_jump="false"
       sort_points="true"
       interpolator_type="CentripetalCatmullRom"
       interpolator_beta="0.8"
       start_linecap_type="round"
       linejoin_type="round"
       miter_limit="4"
       scale_width="1"
       end_linecap_type="round" />
    <linearGradient
       inkscape:collect="always"
       id="linearGradient5964">
      <stop
         style="stop-color:#ff6fbe;stop-opacity:1;"
         offset="0"
         id="stop5960" />
      <stop
         style="stop-color:#ff6fbe;stop-opacity:0;"
         offset="1"
         id="stop5962" />
    </linearGradient>
    <inkscape:path-effect
       effect="powerstroke"
       id="path-effect5232"
       is_visible="true"
       lpeversion="1"
       offset_points="0.14669488,7.9380478 | 0.14669488,7.9380478 | 0.21453733,7.9575942 | 1.8162768,3.5052385 | 0.95501767,4.1484184 | 10.501576,3.5898795 | 20.882333,4.5298606 | 20.636317,3.3075663"
       not_jump="false"
       sort_points="true"
       interpolator_type="CentripetalCatmullRom"
       interpolator_beta="0.8"
       start_linecap_type="round"
       linejoin_type="round"
       miter_limit="4"
       scale_width="1"
       end_linecap_type="round" />
    <inkscape:path-effect
       effect="powerstroke"
       id="path-effect5197"
       is_visible="true"
       lpeversion="1"
       offset_points="0.14669488,7.9380478 | 0.14669488,7.9380478 | 0.21453733,7.9575942 | 1.8162768,3.5052385 | 0.95501767,4.1484184 | 10.501576,3.5898795 | 20.882333,4.5298606 | 20.636317,3.3075663"
       not_jump="false"
       sort_points="true"
       interpolator_type="CentripetalCatmullRom"
       interpolator_beta="0.8"
       start_linecap_type="round"
       linejoin_type="round"
       miter_limit="4"
       scale_width="1"
       end_linecap_type="round" />
    <inkscape:path-effect
       effect="powerstroke"
       id="path-effect4109"
       is_visible="true"
       lpeversion="1"
       offset_points="0.14669488,7.9380478 | 0.14669488,7.9380478 | 0.21453733,7.9575942 | 1.8162768,3.5052385 | 0.95501767,4.1484184 | 10.501576,3.5898795 | 20.882333,4.5298606 | 20.636317,3.3075663"
       not_jump="false"
       sort_points="true"
       interpolator_type="CentripetalCatmullRom"
       interpolator_beta="0.8"
       start_linecap_type="round"
       linejoin_type="round"
       miter_limit="4"
       scale_width="1"
       end_linecap_type="round" />
    <inkscape:path-effect
       effect="powerstroke"
       id="path-effect4103"
       is_visible="true"
       lpeversion="1"
       offset_points="0.14669488,7.9380478 | 0.14669488,7.9380478 | 0.21453733,7.9575942 | 1.8162768,3.5052385 | 0.95501767,4.1484184 | 10.501576,3.5898795 | 20.882333,4.5298606 | 20.636317,3.3075663"
       not_jump="false"
       sort_points="true"
       interpolator_type="CentripetalCatmullRom"
       interpolator_beta="0.8"
       start_linecap_type="round"
       linejoin_type="round"
       miter_limit="4"
       scale_width="1"
       end_linecap_type="round" />
    <inkscape:path-effect
       effect="powerstroke"
       id="path-effect3833"
       is_visible="true"
       lpeversion="1"
       offset_points="0.14669488,7.9380478 | 0.14669488,7.9380478 | 0.21453733,7.9575942 | 1.8162768,3.5052385 | 0.95501767,4.1484184 | 10.501576,3.5898795 | 20.882333,4.5298606 | 20.636317,3.3075663"
       not_jump="false"
       sort_points="true"
       interpolator_type="CentripetalCatmullRom"
       interpolator_beta="0.8"
       start_linecap_type="round"
       linejoin_type="round"
       miter_limit="4"
       scale_width="1"
       end_linecap_type="round" />
    <inkscape:path-effect
       effect="powerstroke"
       id="path-effect3230"
       is_visible="true"
       lpeversion="1"
       offset_points="0.14669488,7.9380478 | 0.14669488,7.9380478 | 0.21453733,7.9575942 | 1.8162768,3.5052385 | 0.95501767,4.1484184 | 10.501576,3.5898795 | 20.882333,4.5298606 | 20.636317,3.3075663"
       not_jump="false"
       sort_points="true"
       interpolator_type="CentripetalCatmullRom"
       interpolator_beta="0.8"
       start_linecap_type="round"
       linejoin_type="round"
       miter_limit="4"
       scale_width="1"
       end_linecap_type="round" />
    <inkscape:path-effect
       effect="powerstroke"
       id="path-effect3217"
       is_visible="true"
       lpeversion="1"
       offset_points="0.14669488,7.9380478 | 0.14669488,7.9380478 | 0.21453733,7.9575942 | 1.8162768,3.5052385 | 0.95501767,4.1484184 | 10.501576,3.5898795 | 20.882333,4.5298606 | 20.636317,3.3075663"
       not_jump="false"
       sort_points="true"
       interpolator_type="CentripetalCatmullRom"
       interpolator_beta="0.8"
       start_linecap_type="round"
       linejoin_type="round"
       miter_limit="4"
       scale_width="1"
       end_linecap_type="round" />
    <inkscape:path-effect
       effect="powerstroke"
       id="path-effect2770"
       is_visible="true"
       lpeversion="1"
       offset_points="0.14669488,7.9380478 | 0.14669488,7.9380478 | 0.21453733,7.9575942 | 1.8162768,3.5052385 | 0.95501767,4.1484184 | 10.501576,3.5898795 | 20.882333,4.5298606 | 20.636317,3.3075663"
       not_jump="false"
       sort_points="true"
       interpolator_type="CentripetalCatmullRom"
       interpolator_beta="0.8"
       start_linecap_type="round"
       linejoin_type="round"
       miter_limit="4"
       scale_width="1"
       end_linecap_type="round" />
    <inkscape:path-effect
       effect="powerstroke"
       id="path-effect2353"
       is_visible="true"
       lpeversion="1"
       offset_points="0.14669488,7.9380478 | 0.14669488,7.9380478 | 0.21453733,7.9575942 | 1.8162768,3.5052385 | 0.95501767,4.1484184 | 10.501576,3.5898795 | 20.882333,4.5298606 | 20.636317,3.3075663"
       not_jump="false"
       sort_points="true"
       interpolator_type="CentripetalCatmullRom"
       interpolator_beta="0.8"
       start_linecap_type="round"
       linejoin_type="round"
       miter_limit="4"
       scale_width="1"
       end_linecap_type="round" />
    <filter
       inkscape:collect="always"
       style="color-interpolation-filters:sRGB"
       id="filter5241"
       x="-0.10713186"
       y="-0.16027452"
       width="1.2143395"
       height="1.3203929">
      <feGaussianBlur
         inkscape:collect="always"
         stdDeviation="29.254585"
         id="feGaussianBlur5243" />
    </filter>
    <filter
       inkscape:collect="always"
       style="color-interpolation-filters:sRGB"
       id="filter5245"
       x="-0.04955273"
       y="-0.084136799"
       width="1.0991162"
       height="1.1681174">
      <feGaussianBlur
         inkscape:collect="always"
         stdDeviation="13.37616"
         id="feGaussianBlur5247" />
    </filter>
    <filter
       inkscape:collect="always"
       style="color-interpolation-filters:sRGB"
       id="filter5249"
       x="-0.027924415"
       y="-0.051805231"
       width="1.055858"
       height="1.1034544">
      <feGaussianBlur
         inkscape:collect="always"
         stdDeviation="6.6337263"
         id="feGaussianBlur5251" />
    </filter>
    <filter
       inkscape:collect="always"
       style="color-interpolation-filters:sRGB"
       id="filter5253"
       x="-0.0083216587"
       y="-0.02250032"
       width="1.0167257"
       height="1.0448445">
      <feGaussianBlur
         inkscape:collect="always"
         stdDeviation="0.5221976"
         id="feGaussianBlur5255" />
    </filter>
    <radialGradient
       inkscape:collect="always"
       xlink:href="#linearGradient5964"
       id="radialGradient5966"
       cx="394.10056"
       cy="1366.6392"
       fx="394.10056"
       fy="1366.6392"
       r="514.91705"
       gradientTransform="matrix(1.0329189,0,0,0.88889836,-10.854582,151.83585)"
       gradientUnits="userSpaceOnUse" />
  </defs>
  <sodipodi:namedview
     id="namedview881"
     pagecolor="#a19191"
     bordercolor="#666666"
     borderopacity="1.0"
     inkscape:pageshadow="2"
     inkscape:pageopacity="0.79607843"
     inkscape:pagecheckerboard="0"
     showgrid="false"
     inkscape:zoom="0.51986621"
     inkscape:cx="531.86761"
     inkscape:cy="456.84831"
     inkscape:window-width="1440"
     inkscape:window-height="847"
     inkscape:window-x="0"
     inkscape:window-y="25"
     inkscape:window-maximized="0"
     inkscape:current-layer="layer1"
     height="1000px"
     fit-margin-top="0"
     fit-margin-left="0"
     fit-margin-right="0"
     fit-margin-bottom="0" />
  <g
     inkscape:groupmode="layer"
     id="layer10"
     inkscape:label="back"
     style="display:inline"
     transform="translate(135.64822,-908.93024)"
     sodipodi:insensitive="true">
    <ellipse
       style="opacity:0.751181;fill:url(#radialGradient5966);fill-opacity:1;stroke:none;stroke-width:25.5413;stroke-miterlimit:4;stroke-dasharray:none;stroke-opacity:1"
       id="path5682"
       cx="396.21939"
       cy="1366.6392"
       rx="531.86761"
       ry="457.70892" />
  </g>
  <g
     inkscape:groupmode="layer"
     id="layer1"
     inkscape:label="ombre"
     style="display:inline">
    <g
       id="g1905"
       transform="translate(12,16)">
      <path
         style="display:inline;opacity:1;mix-blend-mode:normal;fill:#000000;fill-opacity:1;fill-rule:nonzero;stroke:#000000;stroke-width:10;stroke-linecap:butt;stroke-linejoin:miter;stroke-miterlimit:4;stroke-dasharray:none;stroke-opacity:1"
         d="m 28.693801,1281.4124 c 1.129337,0.7905 3.405541,2.373 6.567084,4.4787 3.250388,2.1649 6.047806,3.9582 7.718036,5.0205 0.366383,0.233 -0.330622,-0.2113 0,0 1.134102,0.7247 3.829204,2.5566 8.045663,5.0308 1.25235,0.7349 2.793175,1.6159 4.591506,2.618 7.394884,4.1209 21.065162,11.3566 37.290855,18.5662 12.965035,5.7608 27.262945,11.3757 41.668075,15.6633 12.25382,3.6472 23.47566,6.0052 33.67928,7.1073 2.4289,0.2623 4.77138,0.4468 7.03036,0.5581 11.49886,0.5345 20.6427,0.01 28.00447,-1.1217 6.8937,-1.0589 13.50063,-2.8388 19.65402,-5.7595 4.76695,-2.2626 9.25942,-5.1958 13.78558,-9.2249 0.99435,-0.8851 1.97948,-1.8127 2.97026,-2.7921 2.52624,-2.4973 4.81231,-5.0344 7.4512,-7.9998 8.71529,-9.7641 18.24138,-16.6234 28.4972,-20.7687 8.46566,-3.4217 16.36486,-4.5833 23.45838,-4.9181 6.11425,-0.2846 11.84561,1.0044 17.11628,3.5429 5.02476,2.4201 9.57958,5.9549 13.50634,10.198 3.76022,4.0632 6.86102,8.6901 9.12442,13.3171 1.09692,2.2424 1.98379,4.4586 2.64348,6.5671 0.64979,2.077 1.06914,4.0178 1.25807,5.7431 0.38396,3.5058 0.20975,6.4566 -0.44819,8.8767 -0.63263,2.327 -1.7154,4.183 -3.23851,5.6381 -1.49692,1.4301 -3.54787,2.5951 -6.31766,3.367 -2.72815,0.7603 -6.12151,1.1289 -10.2648,0.9907 -0.23173,-0.01 -0.33758,-0.06 -0.40097,-0.1 -0.0878,-0.055 -0.22823,-0.1654 -0.42394,-0.476 -0.20013,-0.3177 -0.42005,-0.8002 -0.61499,-1.5003 -0.19294,-0.6928 -0.34581,-1.5424 -0.44272,-2.5562 -0.19357,-2.0251 -0.14885,-4.5404 0.13897,-7.464 0.28449,-2.8898 0.79912,-6.1061 1.51305,-9.5279 1.41459,-6.7801 3.5896,-14.259 6.19365,-21.3621 1.28869,-3.5151 2.67642,-6.9214 4.11727,-10.0814 1.43462,-3.1464 2.91274,-6.0285 4.3854,-8.517 3.07258,-5.1925 6.28182,-9.558 9.6045,-12.9814 3.2983,-3.3983 6.64694,-5.8053 10.01983,-7.2121 1.67409,-0.6982 3.36058,-1.1531 5.06496,-1.3622 1.69874,-0.2084 3.44242,-0.1761 5.24059,0.1215 3.58309,0.5931 7.48785,2.2594 11.72041,5.3411 3.61202,2.6308 6.88696,6.5009 9.73294,11.1922 2.83335,4.6704 5.16852,10.0348 6.95246,15.5176 1.78295,5.4797 2.99249,11.0075 3.60694,15.9737 0.30723,2.4832 0.46304,4.8047 0.47193,6.8931 0.009,2.0982 -0.13071,3.9141 -0.39415,5.3986 -0.53306,3.0043 -1.33847,5.9432 -2.39262,8.4918 -0.52724,1.2747 -1.10615,2.4262 -1.72734,3.4277 -0.62416,1.0064 -1.27189,1.8305 -1.926,2.4727 -0.65409,0.6422 -1.29081,1.0796 -1.89832,1.3539 -0.5972,0.2696 -1.21177,0.4031 -1.87666,0.3931 -0.67537,-0.01 -1.49675,-0.1704 -2.488,-0.6048 -1.00402,-0.4401 -2.17108,-1.1571 -3.4977,-2.2595 -0.29085,-0.2422 -0.53461,-0.5457 -0.73534,-0.9417 -0.20627,-0.407 -0.38094,-0.943 -0.48445,-1.6296 -0.10458,-0.6937 -0.13359,-1.5168 -0.0663,-2.4731 0.0673,-0.9568 0.2289,-2.0164 0.48806,-3.1693 0.52215,-2.3229 1.41849,-4.9283 2.63127,-7.6943 1.21721,-2.776 2.73185,-5.6654 4.45506,-8.535 3.49183,-5.8149 7.76687,-11.4293 12.05365,-15.8367 2.16665,-2.2277 4.29867,-4.1086 6.30376,-5.5543 2.04098,-1.4716 3.83576,-2.4091 5.31777,-2.8626 2.00625,-0.6143 4.19724,-0.8455 6.54135,-0.6679 2.3709,0.1795 4.90121,0.7778 7.53968,1.8243 5.37817,2.1332 11.09535,6.0847 16.66403,11.8907 0.0354,0.037 0.0708,0.074 0.10616,0.1109 10.70038,11.2056 21.59119,30.1047 27.75191,57.8442 2.9479,13.2733 5.24151,29.0352 6.78599,45.516 1.49913,15.9971 2.27796,32.5413 2.24992,47.5987 -0.0137,7.3818 -0.22174,14.3816 -0.63189,20.7303 -0.40592,6.283 -1.00776,11.8936 -1.80493,16.5716 -0.39513,2.3187 -0.83434,4.3849 -1.31369,6.1744 -0.47897,1.7881 -0.9846,3.2491 -1.50022,4.3874 -0.25533,0.5637 -0.50286,1.0254 -0.73631,1.396 -0.23412,0.3717 -0.43718,0.6249 -0.59705,0.7909 -0.15919,0.1654 -0.24945,0.2176 -0.261,0.2257 -0.01,0.01 0.0713,-0.025 0.15146,-0.03 -0.15111,0.014 -0.35845,0 -0.64265,-0.076 -0.28876,-0.081 -0.65393,-0.2354 -1.09496,-0.5041 -0.89348,-0.5443 -1.9588,-1.4742 -3.14972,-2.8736 -1.17011,-1.3749 -2.3895,-3.1179 -3.62204,-5.202 -1.22054,-2.0637 -2.43399,-4.428 -3.60853,-7.0405 -2.32645,-5.1748 -4.47074,-11.259 -6.19049,-17.7522 -1.69854,-6.4132 -2.97184,-13.1855 -3.59057,-19.7839 a 0.13318017,1.1183374 0.30136639 0 0 -0.0165,-0.1446 c -1.46459,-10.6303 -1.16681,-23.4346 0.61193,-37.2094 1.76121,-13.639 4.95838,-28.101 9.22459,-42.0788 4.23783,-13.8847 9.51194,-27.2284 15.41762,-38.7013 2.93996,-5.7115 6.02603,-10.9388 9.20356,-15.5241 3.15687,-4.5555 6.38118,-8.4443 9.61399,-11.5374 0.925,-0.7866 2.15634,-1.4022 3.71482,-1.7876 1.5956,-0.3947 3.48353,-0.5342 5.60078,-0.3859 4.24112,0.2971 9.15671,1.7327 13.96006,4.1864 4.79022,2.4469 9.3454,5.844 12.91433,9.9445 1.78192,2.0474 3.30751,4.258 4.4974,6.601 1.19006,2.3434 2.04419,4.8188 2.48712,7.4035 0.5427,3.1785 0.56408,6.1212 0.17983,8.8449 -0.38498,2.7289 -1.18145,5.2683 -2.30029,7.6303 -2.24895,4.7478 -5.81968,8.8155 -10.01322,12.2148 -4.21425,3.416 -8.99087,6.1024 -13.51271,8.0851 -2.2687,0.9948 -4.4618,1.8075 -6.47375,2.4447 -2.02264,0.6406 -3.84694,1.0992 -5.37141,1.3894 -2.6397,0.505 -5.12987,1.0398 -7.65564,1.4493 -2.5187,0.4084 -4.82027,0.6454 -6.84901,0.5616 -1.01429,-0.042 -1.92678,-0.1632 -2.73918,-0.3685 -0.81485,-0.2059 -1.51619,-0.4924 -2.12335,-0.8639 -0.60476,-0.37 -1.13901,-0.8392 -1.60147,-1.4387 -0.46856,-0.6075 -0.88847,-1.3815 -1.22169,-2.3776 -0.11571,-0.343 -0.17457,-0.6757 -0.18673,-1.0037 -0.0123,-0.3308 0.0223,-0.6763 0.10957,-1.0414 0.17762,-0.7431 0.57644,-1.576 1.24408,-2.4884 0.67264,-0.9193 1.57952,-1.8664 2.69401,-2.8212 1.12264,-0.9619 2.42632,-1.9064 3.85664,-2.8174 2.91214,-1.8547 6.28018,-3.527 9.59711,-4.9112 3.40411,-1.4206 6.721,-2.5248 9.4677,-3.239 11.65446,-3.0172 21.32547,-2.5976 29.19128,-0.7794 8.50102,1.965 15.36431,5.6824 20.62197,9.216 8.63367,5.7953 18.07677,11.1402 30.61399,14.9884 14.75183,4.528 31.70221,6.2826 51.46471,5.2296 29.82739,-1.5947 55.72177,-7.184 75.15356,-14.1311 8.00032,-2.8603 14.44953,-5.7671 19.57526,-8.3752 6.46058,-3.2872 11.41535,-6.3831 14.90681,-8.7435 6.3602,-4.3 11.24096,-8.3939 15.07667,-12.6146 5.1493,-5.666 8.1644,-11.0163 9.88597,-14.2951 a 4.5298606,4.5298606 90 0 0 -8.02128,-4.2116 c -1.54343,2.9396 -4.24621,7.2949 -8.6706,12.5269 -3.12584,3.6964 -7.28004,8.2157 -12.70589,12.5395 -3.08718,2.4601 -7.48851,5.6036 -13.56559,8.9514 -4.78784,2.6375 -10.91086,5.5808 -18.59051,8.4865 -18.68685,7.0703 -43.99572,12.8189 -73.34504,14.6068 -19.28426,1.1788 -35.63946,-0.4388 -49.73284,-4.6784 -11.95211,-3.5954 -20.98646,-8.6424 -29.38948,-14.2482 -5.5726,-3.7141 -12.97465,-7.7304 -22.20858,-9.8685 -8.58033,-1.9868 -19.02642,-2.425 -31.45505,0.7665 -2.98395,0.7633 -6.51901,1.9281 -10.12246,3.4141 -3.50535,1.4455 -7.14187,3.2229 -10.35753,5.2468 -1.58336,0.9966 -3.08675,2.0668 -4.42805,3.201 -1.324,1.1195 -2.52339,2.3295 -3.48659,3.6232 -0.95255,1.2793 -1.71486,2.6954 -2.10071,4.232 -0.19261,0.7671 -0.29055,1.5616 -0.27072,2.3755 0.0198,0.8116 0.15623,1.6233 0.41632,2.4259 0.47346,1.4628 1.12479,2.7536 1.96007,3.866 0.83116,1.1069 1.81814,2.0017 2.92896,2.7037 1.09816,0.6939 2.28764,1.1807 3.52181,1.5106 1.22294,0.3269 2.49707,0.5017 3.78683,0.5713 2.54292,0.1371 5.24937,-0.1308 7.90964,-0.5307 2.62463,-0.3945 5.33165,-0.9394 7.81905,-1.3841 1.76575,-0.319 3.8037,-0.8178 6.00786,-1.4984 2.1976,-0.6787 4.57783,-1.5435 7.03392,-2.6021 4.87551,-2.1013 10.11768,-4.9957 14.82007,-8.7622 4.6745,-3.7442 8.89472,-8.4146 11.62884,-14.0996 1.36515,-2.8385 2.35543,-5.9218 2.84409,-9.2501 0.488,-3.3239 0.47134,-6.8623 -0.14963,-10.6102 -0.52947,-3.2032 -1.56245,-6.2344 -2.97602,-9.0599 -1.41147,-2.8212 -3.20176,-5.4363 -5.25082,-7.8191 -4.08936,-4.7553 -9.24561,-8.628 -14.61376,-11.4117 -5.35982,-2.7793 -11.04597,-4.5321 -16.23781,-4.9344 -2.60505,-0.2018 -5.14537,-0.068 -7.48461,0.4884 -2.3468,0.5585 -4.53902,1.5552 -6.35817,3.1076 a 0.12650843,1.0272958 40.865864 0 0 -0.11417,0.1032 c -3.63727,3.4452 -7.15873,7.6834 -10.52245,12.5065 -3.3737,4.8375 -6.61183,10.2967 -9.66823,16.1966 -6.13553,11.8436 -11.5757,25.534 -15.9378,39.7106 -4.39259,14.2757 -7.70444,29.0824 -9.54887,43.1086 -1.85343,14.0946 -2.23674,27.4816 -0.71292,38.8527 0.6263,6.9834 1.93681,14.0987 3.68236,20.8097 1.77223,6.8136 4.00438,13.2567 6.46964,18.8126 1.24604,2.8083 2.5592,5.4072 3.91488,7.7285 1.36302,2.3339 2.78822,4.4203 4.25705,6.1698 1.46936,1.7502 3.05669,3.2526 4.7553,4.31 0.86322,0.5373 1.78648,0.9793 2.76417,1.2699 0.98817,0.2936 2.02955,0.4314 3.09917,0.3545 0.92523,-0.068 1.78523,-0.334 2.55985,-0.7409 0.76613,-0.4024 1.42504,-0.9292 1.98918,-1.5049 0.56482,-0.5765 1.05921,-1.227 1.49569,-1.9119 0.43877,-0.6884 0.83643,-1.4389 1.19954,-2.2319 0.72585,-1.585 1.35408,-3.4287 1.90344,-5.4558 0.55424,-2.045 1.04224,-4.3292 1.47012,-6.8055 0.862,-4.9887 1.49659,-10.8545 1.92328,-17.2941 0.43205,-6.5205 0.65362,-13.6697 0.67743,-21.1702 0.0485,-15.2944 -0.72372,-32.065 -2.22663,-48.2749 -1.54715,-16.6871 -3.86405,-32.7584 -6.88171,-46.4018 -6.36417,-28.7732 -17.76353,-48.9351 -29.52673,-61.2579 -0.039,-0.041 -0.078,-0.082 -0.11704,-0.1224 -6.10855,-6.3711 -12.65563,-11.0022 -19.19872,-13.5968 -3.2237,-1.2784 -6.46346,-2.0683 -9.64584,-2.3085 -3.1554,-0.2383 -6.24983,0.065 -9.18548,0.9648 -2.48403,0.7617 -4.99079,2.1595 -7.41223,3.9073 -2.41963,1.7465 -4.86491,3.9231 -7.24723,6.3751 -4.7055,4.8431 -9.30647,10.9081 -13.04996,17.1516 -1.85498,3.0937 -3.51349,6.2553 -4.86703,9.3492 -1.34189,3.0673 -2.40607,6.1183 -3.05063,9.0006 -0.3217,1.4385 -0.54427,2.8589 -0.63932,4.2359 -0.0947,1.3712 -0.065,2.7307 0.13461,4.0396 0.19993,1.311 0.57307,2.5937 1.18412,3.7921 0.61456,1.2053 1.45433,2.291 2.54036,3.1906 1.72794,1.4308 3.45992,2.5382 5.20029,3.2956 1.74123,0.7577 3.49728,1.1671 5.24477,1.1867 1.74858,0.02 3.39265,-0.3527 4.90013,-1.0408 1.48992,-0.6801 2.79621,-1.6448 3.9319,-2.7677 1.13011,-1.1175 2.11302,-2.4126 2.96686,-3.7989 0.85285,-1.3846 1.59528,-2.8901 2.23754,-4.4558 1.27768,-3.1146 2.19758,-6.5622 2.79036,-9.9599 0.34962,-2.0013 0.50144,-4.2531 0.48612,-6.6531 -0.0153,-2.4048 -0.19889,-5.0053 -0.53999,-7.721 -0.68107,-5.4222 -2.00039,-11.3834 -3.92641,-17.2693 -1.92507,-5.8831 -4.47596,-11.7511 -7.64831,-16.9596 -3.16892,-5.2028 -7.02492,-9.8572 -11.60086,-13.1757 -4.90955,-3.5607 -9.80356,-5.7457 -14.66652,-6.5383 -2.43803,-0.3974 -4.84131,-0.4399 -7.19922,-0.1444 -2.36292,0.2961 -4.65266,0.9281 -6.86277,1.8564 -4.43259,1.8616 -8.51647,4.9013 -12.27064,8.7848 -3.78414,3.9144 -7.29542,8.75 -10.55099,14.2716 -1.61678,2.7422 -3.19939,5.848 -4.70546,9.163 -1.51533,3.3354 -2.96296,6.9041 -4.29968,10.5643 -2.69553,7.3808 -4.95692,15.1779 -6.43632,22.3133 -0.74735,3.6046 -1.30044,7.0651 -1.60891,10.2449 -0.30949,3.1903 -0.37971,6.1666 -0.12692,8.7611 0.12753,1.309 0.34096,2.5606 0.66584,3.717 0.32494,1.1567 0.77758,2.2761 1.41215,3.2755 0.64354,1.0135 1.49129,1.9285 2.58998,2.5985 1.11638,0.6807 2.36281,1.0288 3.66795,1.0701 4.63218,0.1463 8.73311,-0.26 12.27529,-1.2551 3.63061,-1.0199 6.70086,-2.6673 9.11441,-4.9831 2.48076,-2.3802 4.1299,-5.335 5.03918,-8.699 0.92634,-3.4272 1.07878,-7.2472 0.62875,-11.3307 -0.24507,-2.2241 -0.76949,-4.588 -1.52358,-6.9953 -0.76832,-2.4527 -1.78383,-4.9789 -3.01559,-7.4962 -2.5356,-5.1818 -5.99572,-10.3467 -10.20825,-14.9012 -4.40181,-4.7592 -9.60668,-8.8356 -15.48302,-11.6714 -6.19648,-2.9902 -13.01483,-4.5419 -20.29453,-4.2119 -7.60959,0.3398 -16.29364,1.5717 -25.65887,5.3147 -11.35391,4.5377 -21.74462,12.007 -31.12398,22.3945 -2.65672,2.9322 -4.84535,5.305 -7.21793,7.592 -0.92624,0.8928 -1.83361,1.7281 -2.73815,2.5181 -4.08205,3.565 -8.02156,6.1161 -12.16953,8.0783 -5.38782,2.5487 -11.27513,4.1523 -17.6516,5.0348 -6.84667,0.9476 -15.3558,1.2169 -26.42452,0.2538 -2.08653,-0.1768 -4.25852,-0.4283 -6.51924,-0.7605 -9.48538,-1.3936 -20.06659,-4.2037 -31.58702,-8.3911 -13.57045,-4.9324 -27.02281,-11.2578 -39.196478,-17.7 -15.33518,-8.1153 -27.865766,-16.008 -34.885887,-20.4728 -1.688899,-1.0742 -3.129609,-1.9957 -4.322439,-2.7508 -2.703655,-1.7116 -5.103201,-3.1245 -7.806855,-4.8361 -0.319876,-0.2024 0.35354,0.2249 0,0 -1.617003,-1.0284 -4.313193,-2.757 -7.437484,-4.8379 -3.031077,-2.0188 -5.201847,-3.5282 -6.263418,-4.2713 a 7.9380478,7.9380478 90 0 0 -9.104348,13.0062 z"
         id="path1435"
         sodipodi:nodetypes="cssssssssssssccssssssc"
         inkscape:path-effect="#path-effect1439"
         inkscape:original-d="m 33.245975,1274.9093 c 26.307693,18.4154 92.829665,58.2515 142.304835,61.5317 43.27667,2.8693 56.02494,-10.6999 69.03363,-25.1875 20.25892,-22.5619 41.11292,-26.0897 54.36923,-26.698 27.47316,-1.2607 45.36479,26.6523 47.08677,42.3221 1.69259,15.4023 -6.27763,23.1337 -23.66339,22.5702 -12.31768,-0.3992 -0.67444,-45.7738 11.65354,-66.6462 12.7125,-21.5234 28.34867,-30.4226 46.6002,-17.1616 16.39265,11.9104 24.25355,44.424 21.7998,58.377 -2.24694,12.7771 -9.29428,25.5625 -21.53925,15.4078 -11.00184,-9.1238 15.25498,-49.9879 31.18541,-54.8693 19.67613,-6.0292 50.97782,18.7922 63.13846,73.6615 12.10375,54.6126 12.38322,146.5837 -0.88392,147.5767 -9.78543,0.7323 -22.95137,-29.3115 -25.42377,-56.3767 -6.02729,-44.2284 17.72712,-121.6162 45.25172,-147.7769 11.01082,-9.4652 44.18743,4.6059 48.07894,27.7687 4.65164,27.6872 -26.64815,41.274 -39.83836,43.7159 -10.13925,1.8771 -21.81909,4.9862 -25.05834,-4.8873 -3.00059,-9.146 16.92834,-18.4201 28.56604,-21.4204 23.41066,-6.0354 40.20503,1.0511 51.73846,8.7693 15.57919,10.4256 37.5586,22.0325 80.60051,19.5723 45.26972,-2.5875 109.14906,-16.518 130.73795,-57.6353"
         transform="translate(135.64822,-908.93024)" />
      <path
         style="display:inline;opacity:1;mix-blend-mode:normal;fill:none;stroke:#000000;stroke-width:20;stroke-linecap:butt;stroke-linejoin:miter;stroke-miterlimit:4;stroke-dasharray:none;stroke-opacity:1"
         d="m 176.18444,1494.1401 c 0,0 -88.564904,-81.5375 -87.692311,-178.0154 1.546623,-171.0015 187.833461,-221.9574 300.784621,-215.723 92.52262,5.1067 159.46845,37.2981 210.60948,73.4522 98.14999,69.3872 132.78013,153.1806 126.12898,235.2247 -7.58755,93.5949 -92.79158,157.0891 -179.36914,178.8607 -114.18376,28.7137 -197.10448,2.2101 -262.60009,-22.7684 0,0 -35.13055,19.5935 -75.41539,26.3077 -57.87691,9.6461 -99.0923,-5.2616 -99.0923,-5.2616 0,0 22.69478,-16.7355 41.21538,-42.9692 20.69082,-29.3078 25.43077,-49.1077 25.43077,-49.1077 z"
         id="path1441"
         sodipodi:nodetypes="cssssscscsc"
         transform="translate(135.64822,-908.93024)" />
    </g>
  </g>
  <g
     inkscape:groupmode="layer"
     id="layer7"
     inkscape:label="bot"
     style="display:inline;mix-blend-mode:normal;filter:url(#filter5241)"
     transform="translate(135.64822,-908.93024)"
     sodipodi:insensitive="true">
    <path
       style="display:inline;mix-blend-mode:normal;fill:#fe239b;fill-opacity:1;fill-rule:nonzero;stroke:#fe239b;stroke-width:20;stroke-linecap:butt;stroke-linejoin:miter;stroke-miterlimit:4;stroke-dasharray:none;stroke-opacity:1"
       d="m 28.693801,1281.4124 c 1.129337,0.7905 3.405541,2.373 6.567084,4.4787 3.250388,2.1649 6.047806,3.9582 7.718036,5.0205 0.366383,0.233 -0.330622,-0.2113 0,0 1.134102,0.7247 3.829204,2.5566 8.045663,5.0308 1.25235,0.7349 2.793175,1.6159 4.591506,2.618 7.394884,4.1209 21.065162,11.3566 37.290855,18.5662 12.965035,5.7608 27.262945,11.3757 41.668075,15.6633 12.25382,3.6472 23.47566,6.0052 33.67928,7.1073 2.4289,0.2623 4.77138,0.4468 7.03036,0.5581 11.49886,0.5345 20.6427,0.01 28.00447,-1.1217 6.8937,-1.0589 13.50063,-2.8388 19.65402,-5.7595 4.76695,-2.2626 9.25942,-5.1958 13.78558,-9.2249 0.99435,-0.8851 1.97948,-1.8127 2.97026,-2.7921 2.52624,-2.4973 4.81231,-5.0344 7.4512,-7.9998 8.71529,-9.7641 18.24138,-16.6234 28.4972,-20.7687 8.46566,-3.4217 16.36486,-4.5833 23.45838,-4.9181 6.11425,-0.2846 11.84561,1.0044 17.11628,3.5429 5.02476,2.4201 9.57958,5.9549 13.50634,10.198 3.76022,4.0632 6.86102,8.6901 9.12442,13.3171 1.09692,2.2424 1.98379,4.4586 2.64348,6.5671 0.64979,2.077 1.06914,4.0178 1.25807,5.7431 0.38396,3.5058 0.20975,6.4566 -0.44819,8.8767 -0.63263,2.327 -1.7154,4.183 -3.23851,5.6381 -1.49692,1.4301 -3.54787,2.5951 -6.31766,3.367 -2.72815,0.7603 -6.12151,1.1289 -10.2648,0.9907 -0.23173,-0.01 -0.33758,-0.06 -0.40097,-0.1 -0.0878,-0.055 -0.22823,-0.1654 -0.42394,-0.476 -0.20013,-0.3177 -0.42005,-0.8002 -0.61499,-1.5003 -0.19294,-0.6928 -0.34581,-1.5424 -0.44272,-2.5562 -0.19357,-2.0251 -0.14885,-4.5404 0.13897,-7.464 0.28449,-2.8898 0.79912,-6.1061 1.51305,-9.5279 1.41459,-6.7801 3.5896,-14.259 6.19365,-21.3621 1.28869,-3.5151 2.67642,-6.9214 4.11727,-10.0814 1.43462,-3.1464 2.91274,-6.0285 4.3854,-8.517 3.07258,-5.1925 6.28182,-9.558 9.6045,-12.9814 3.2983,-3.3983 6.64694,-5.8053 10.01983,-7.2121 1.67409,-0.6982 3.36058,-1.1531 5.06496,-1.3622 1.69874,-0.2084 3.44242,-0.1761 5.24059,0.1215 3.58309,0.5931 7.48785,2.2594 11.72041,5.3411 3.61202,2.6308 6.88696,6.5009 9.73294,11.1922 2.83335,4.6704 5.16852,10.0348 6.95246,15.5176 1.78295,5.4797 2.99249,11.0075 3.60694,15.9737 0.30723,2.4832 0.46304,4.8047 0.47193,6.8931 0.009,2.0982 -0.13071,3.9141 -0.39415,5.3986 -0.53306,3.0043 -1.33847,5.9432 -2.39262,8.4918 -0.52724,1.2747 -1.10615,2.4262 -1.72734,3.4277 -0.62416,1.0064 -1.27189,1.8305 -1.926,2.4727 -0.65409,0.6422 -1.29081,1.0796 -1.89832,1.3539 -0.5972,0.2696 -1.21177,0.4031 -1.87666,0.3931 -0.67537,-0.01 -1.49675,-0.1704 -2.488,-0.6048 -1.00402,-0.4401 -2.17108,-1.1571 -3.4977,-2.2595 -0.29085,-0.2422 -0.53461,-0.5457 -0.73534,-0.9417 -0.20627,-0.407 -0.38094,-0.943 -0.48445,-1.6296 -0.10458,-0.6937 -0.13359,-1.5168 -0.0663,-2.4731 0.0673,-0.9568 0.2289,-2.0164 0.48806,-3.1693 0.52215,-2.3229 1.41849,-4.9283 2.63127,-7.6943 1.21721,-2.776 2.73185,-5.6654 4.45506,-8.535 3.49183,-5.8149 7.76687,-11.4293 12.05365,-15.8367 2.16665,-2.2277 4.29867,-4.1086 6.30376,-5.5543 2.04098,-1.4716 3.83576,-2.4091 5.31777,-2.8626 2.00625,-0.6143 4.19724,-0.8455 6.54135,-0.6679 2.3709,0.1795 4.90121,0.7778 7.53968,1.8243 5.37817,2.1332 11.09535,6.0847 16.66403,11.8907 0.0354,0.037 0.0708,0.074 0.10616,0.1109 10.70038,11.2056 21.59119,30.1047 27.75191,57.8442 2.9479,13.2733 5.24151,29.0352 6.78599,45.516 1.49913,15.9971 2.27796,32.5413 2.24992,47.5987 -0.0137,7.3818 -0.22174,14.3816 -0.63189,20.7303 -0.40592,6.283 -1.00776,11.8936 -1.80493,16.5716 -0.39513,2.3187 -0.83434,4.3849 -1.31369,6.1744 -0.47897,1.7881 -0.9846,3.2491 -1.50022,4.3874 -0.25533,0.5637 -0.50286,1.0254 -0.73631,1.396 -0.23412,0.3717 -0.43718,0.6249 -0.59705,0.7909 -0.15919,0.1654 -0.24945,0.2176 -0.261,0.2257 -0.01,0.01 0.0713,-0.025 0.15146,-0.03 -0.15111,0.014 -0.35845,0 -0.64265,-0.076 -0.28876,-0.081 -0.65393,-0.2354 -1.09496,-0.5041 -0.89348,-0.5443 -1.9588,-1.4742 -3.14972,-2.8736 -1.17011,-1.3749 -2.3895,-3.1179 -3.62204,-5.202 -1.22054,-2.0637 -2.43399,-4.428 -3.60853,-7.0405 -2.32645,-5.1748 -4.47074,-11.259 -6.19049,-17.7522 -1.69854,-6.4132 -2.97184,-13.1855 -3.59057,-19.7839 a 0.13318017,1.1183374 0.30136639 0 0 -0.0165,-0.1446 c -1.46459,-10.6303 -1.16681,-23.4346 0.61193,-37.2094 1.76121,-13.639 4.95838,-28.101 9.22459,-42.0788 4.23783,-13.8847 9.51194,-27.2284 15.41762,-38.7013 2.93996,-5.7115 6.02603,-10.9388 9.20356,-15.5241 3.15687,-4.5555 6.38118,-8.4443 9.61399,-11.5374 0.925,-0.7866 2.15634,-1.4022 3.71482,-1.7876 1.5956,-0.3947 3.48353,-0.5342 5.60078,-0.3859 4.24112,0.2971 9.15671,1.7327 13.96006,4.1864 4.79022,2.4469 9.3454,5.844 12.91433,9.9445 1.78192,2.0474 3.30751,4.258 4.4974,6.601 1.19006,2.3434 2.04419,4.8188 2.48712,7.4035 0.5427,3.1785 0.56408,6.1212 0.17983,8.8449 -0.38498,2.7289 -1.18145,5.2683 -2.30029,7.6303 -2.24895,4.7478 -5.81968,8.8155 -10.01322,12.2148 -4.21425,3.416 -8.99087,6.1024 -13.51271,8.0851 -2.2687,0.9948 -4.4618,1.8075 -6.47375,2.4447 -2.02264,0.6406 -3.84694,1.0992 -5.37141,1.3894 -2.6397,0.505 -5.12987,1.0398 -7.65564,1.4493 -2.5187,0.4084 -4.82027,0.6454 -6.84901,0.5616 -1.01429,-0.042 -1.92678,-0.1632 -2.73918,-0.3685 -0.81485,-0.2059 -1.51619,-0.4924 -2.12335,-0.8639 -0.60476,-0.37 -1.13901,-0.8392 -1.60147,-1.4387 -0.46856,-0.6075 -0.88847,-1.3815 -1.22169,-2.3776 -0.11571,-0.343 -0.17457,-0.6757 -0.18673,-1.0037 -0.0123,-0.3308 0.0223,-0.6763 0.10957,-1.0414 0.17762,-0.7431 0.57644,-1.576 1.24408,-2.4884 0.67264,-0.9193 1.57952,-1.8664 2.69401,-2.8212 1.12264,-0.9619 2.42632,-1.9064 3.85664,-2.8174 2.91214,-1.8547 6.28018,-3.527 9.59711,-4.9112 3.40411,-1.4206 6.721,-2.5248 9.4677,-3.239 11.65446,-3.0172 21.32547,-2.5976 29.19128,-0.7794 8.50102,1.965 15.36431,5.6824 20.62197,9.216 8.63367,5.7953 18.07677,11.1402 30.61399,14.9884 14.75183,4.528 31.70221,6.2826 51.46471,5.2296 29.82739,-1.5947 55.72177,-7.184 75.15356,-14.1311 8.00032,-2.8603 14.44953,-5.7671 19.57526,-8.3752 6.46058,-3.2872 11.41535,-6.3831 14.90681,-8.7435 6.3602,-4.3 11.24096,-8.3939 15.07667,-12.6146 5.1493,-5.666 8.1644,-11.0163 9.88597,-14.2951 a 4.5298606,4.5298606 90 0 0 -8.02128,-4.2116 c -1.54343,2.9396 -4.24621,7.2949 -8.6706,12.5269 -3.12584,3.6964 -7.28004,8.2157 -12.70589,12.5395 -3.08718,2.4601 -7.48851,5.6036 -13.56559,8.9514 -4.78784,2.6375 -10.91086,5.5808 -18.59051,8.4865 -18.68685,7.0703 -43.99572,12.8189 -73.34504,14.6068 -19.28426,1.1788 -35.63946,-0.4388 -49.73284,-4.6784 -11.95211,-3.5954 -20.98646,-8.6424 -29.38948,-14.2482 -5.5726,-3.7141 -12.97465,-7.7304 -22.20858,-9.8685 -8.58033,-1.9868 -19.02642,-2.425 -31.45505,0.7665 -2.98395,0.7633 -6.51901,1.9281 -10.12246,3.4141 -3.50535,1.4455 -7.14187,3.2229 -10.35753,5.2468 -1.58336,0.9966 -3.08675,2.0668 -4.42805,3.201 -1.324,1.1195 -2.52339,2.3295 -3.48659,3.6232 -0.95255,1.2793 -1.71486,2.6954 -2.10071,4.232 -0.19261,0.7671 -0.29055,1.5616 -0.27072,2.3755 0.0198,0.8116 0.15623,1.6233 0.41632,2.4259 0.47346,1.4628 1.12479,2.7536 1.96007,3.866 0.83116,1.1069 1.81814,2.0017 2.92896,2.7037 1.09816,0.6939 2.28764,1.1807 3.52181,1.5106 1.22294,0.3269 2.49707,0.5017 3.78683,0.5713 2.54292,0.1371 5.24937,-0.1308 7.90964,-0.5307 2.62463,-0.3945 5.33165,-0.9394 7.81905,-1.3841 1.76575,-0.319 3.8037,-0.8178 6.00786,-1.4984 2.1976,-0.6787 4.57783,-1.5435 7.03392,-2.6021 4.87551,-2.1013 10.11768,-4.9957 14.82007,-8.7622 4.6745,-3.7442 8.89472,-8.4146 11.62884,-14.0996 1.36515,-2.8385 2.35543,-5.9218 2.84409,-9.2501 0.488,-3.3239 0.47134,-6.8623 -0.14963,-10.6102 -0.52947,-3.2032 -1.56245,-6.2344 -2.97602,-9.0599 -1.41147,-2.8212 -3.20176,-5.4363 -5.25082,-7.8191 -4.08936,-4.7553 -9.24561,-8.628 -14.61376,-11.4117 -5.35982,-2.7793 -11.04597,-4.5321 -16.23781,-4.9344 -2.60505,-0.2018 -5.14537,-0.068 -7.48461,0.4884 -2.3468,0.5585 -4.53902,1.5552 -6.35817,3.1076 a 0.12650843,1.0272958 40.865864 0 0 -0.11417,0.1032 c -3.63727,3.4452 -7.15873,7.6834 -10.52245,12.5065 -3.3737,4.8375 -6.61183,10.2967 -9.66823,16.1966 -6.13553,11.8436 -11.5757,25.534 -15.9378,39.7106 -4.39259,14.2757 -7.70444,29.0824 -9.54887,43.1086 -1.85343,14.0946 -2.23674,27.4816 -0.71292,38.8527 0.6263,6.9834 1.93681,14.0987 3.68236,20.8097 1.77223,6.8136 4.00438,13.2567 6.46964,18.8126 1.24604,2.8083 2.5592,5.4072 3.91488,7.7285 1.36302,2.3339 2.78822,4.4203 4.25705,6.1698 1.46936,1.7502 3.05669,3.2526 4.7553,4.31 0.86322,0.5373 1.78648,0.9793 2.76417,1.2699 0.98817,0.2936 2.02955,0.4314 3.09917,0.3545 0.92523,-0.068 1.78523,-0.334 2.55985,-0.7409 0.76613,-0.4024 1.42504,-0.9292 1.98918,-1.5049 0.56482,-0.5765 1.05921,-1.227 1.49569,-1.9119 0.43877,-0.6884 0.83643,-1.4389 1.19954,-2.2319 0.72585,-1.585 1.35408,-3.4287 1.90344,-5.4558 0.55424,-2.045 1.04224,-4.3292 1.47012,-6.8055 0.862,-4.9887 1.49659,-10.8545 1.92328,-17.2941 0.43205,-6.5205 0.65362,-13.6697 0.67743,-21.1702 0.0485,-15.2944 -0.72372,-32.065 -2.22663,-48.2749 -1.54715,-16.6871 -3.86405,-32.7584 -6.88171,-46.4018 -6.36417,-28.7732 -17.76353,-48.9351 -29.52673,-61.2579 -0.039,-0.041 -0.078,-0.082 -0.11704,-0.1224 -6.10855,-6.3711 -12.65563,-11.0022 -19.19872,-13.5968 -3.2237,-1.2784 -6.46346,-2.0683 -9.64584,-2.3085 -3.1554,-0.2383 -6.24983,0.065 -9.18548,0.9648 -2.48403,0.7617 -4.99079,2.1595 -7.41223,3.9073 -2.41963,1.7465 -4.86491,3.9231 -7.24723,6.3751 -4.7055,4.8431 -9.30647,10.9081 -13.04996,17.1516 -1.85498,3.0937 -3.51349,6.2553 -4.86703,9.3492 -1.34189,3.0673 -2.40607,6.1183 -3.05063,9.0006 -0.3217,1.4385 -0.54427,2.8589 -0.63932,4.2359 -0.0947,1.3712 -0.065,2.7307 0.13461,4.0396 0.19993,1.311 0.57307,2.5937 1.18412,3.7921 0.61456,1.2053 1.45433,2.291 2.54036,3.1906 1.72794,1.4308 3.45992,2.5382 5.20029,3.2956 1.74123,0.7577 3.49728,1.1671 5.24477,1.1867 1.74858,0.02 3.39265,-0.3527 4.90013,-1.0408 1.48992,-0.6801 2.79621,-1.6448 3.9319,-2.7677 1.13011,-1.1175 2.11302,-2.4126 2.96686,-3.7989 0.85285,-1.3846 1.59528,-2.8901 2.23754,-4.4558 1.27768,-3.1146 2.19758,-6.5622 2.79036,-9.9599 0.34962,-2.0013 0.50144,-4.2531 0.48612,-6.6531 -0.0153,-2.4048 -0.19889,-5.0053 -0.53999,-7.721 -0.68107,-5.4222 -2.00039,-11.3834 -3.92641,-17.2693 -1.92507,-5.8831 -4.47596,-11.7511 -7.64831,-16.9596 -3.16892,-5.2028 -7.02492,-9.8572 -11.60086,-13.1757 -4.90955,-3.5607 -9.80356,-5.7457 -14.66652,-6.5383 -2.43803,-0.3974 -4.84131,-0.4399 -7.19922,-0.1444 -2.36292,0.2961 -4.65266,0.9281 -6.86277,1.8564 -4.43259,1.8616 -8.51647,4.9013 -12.27064,8.7848 -3.78414,3.9144 -7.29542,8.75 -10.55099,14.2716 -1.61678,2.7422 -3.19939,5.848 -4.70546,9.163 -1.51533,3.3354 -2.96296,6.9041 -4.29968,10.5643 -2.69553,7.3808 -4.95692,15.1779 -6.43632,22.3133 -0.74735,3.6046 -1.30044,7.0651 -1.60891,10.2449 -0.30949,3.1903 -0.37971,6.1666 -0.12692,8.7611 0.12753,1.309 0.34096,2.5606 0.66584,3.717 0.32494,1.1567 0.77758,2.2761 1.41215,3.2755 0.64354,1.0135 1.49129,1.9285 2.58998,2.5985 1.11638,0.6807 2.36281,1.0288 3.66795,1.0701 4.63218,0.1463 8.73311,-0.26 12.27529,-1.2551 3.63061,-1.0199 6.70086,-2.6673 9.11441,-4.9831 2.48076,-2.3802 4.1299,-5.335 5.03918,-8.699 0.92634,-3.4272 1.07878,-7.2472 0.62875,-11.3307 -0.24507,-2.2241 -0.76949,-4.588 -1.52358,-6.9953 -0.76832,-2.4527 -1.78383,-4.9789 -3.01559,-7.4962 -2.5356,-5.1818 -5.99572,-10.3467 -10.20825,-14.9012 -4.40181,-4.7592 -9.60668,-8.8356 -15.48302,-11.6714 -6.19648,-2.9902 -13.01483,-4.5419 -20.29453,-4.2119 -7.60959,0.3398 -16.29364,1.5717 -25.65887,5.3147 -11.35391,4.5377 -21.74462,12.007 -31.12398,22.3945 -2.65672,2.9322 -4.84535,5.305 -7.21793,7.592 -0.92624,0.8928 -1.83361,1.7281 -2.73815,2.5181 -4.08205,3.565 -8.02156,6.1161 -12.16953,8.0783 -5.38782,2.5487 -11.27513,4.1523 -17.6516,5.0348 -6.84667,0.9476 -15.3558,1.2169 -26.42452,0.2538 -2.08653,-0.1768 -4.25852,-0.4283 -6.51924,-0.7605 -9.48538,-1.3936 -20.06659,-4.2037 -31.58702,-8.3911 -13.57045,-4.9324 -27.02281,-11.2578 -39.196478,-17.7 -15.33518,-8.1153 -27.865766,-16.008 -34.885887,-20.4728 -1.688899,-1.0742 -3.129609,-1.9957 -4.322439,-2.7508 -2.703655,-1.7116 -5.103201,-3.1245 -7.806855,-4.8361 -0.319876,-0.2024 0.35354,0.2249 0,0 -1.617003,-1.0284 -4.313193,-2.757 -7.437484,-4.8379 -3.031077,-2.0188 -5.201847,-3.5282 -6.263418,-4.2713 a 7.9380478,7.9380478 90 0 0 -9.104348,13.0062 z"
       id="path5193"
       sodipodi:nodetypes="cssssssssssssccssssssc"
       inkscape:path-effect="#path-effect5197"
       inkscape:original-d="m 33.245975,1274.9093 c 26.307693,18.4154 92.829665,58.2515 142.304835,61.5317 43.27667,2.8693 56.02494,-10.6999 69.03363,-25.1875 20.25892,-22.5619 41.11292,-26.0897 54.36923,-26.698 27.47316,-1.2607 45.36479,26.6523 47.08677,42.3221 1.69259,15.4023 -6.27763,23.1337 -23.66339,22.5702 -12.31768,-0.3992 -0.67444,-45.7738 11.65354,-66.6462 12.7125,-21.5234 28.34867,-30.4226 46.6002,-17.1616 16.39265,11.9104 24.25355,44.424 21.7998,58.377 -2.24694,12.7771 -9.29428,25.5625 -21.53925,15.4078 -11.00184,-9.1238 15.25498,-49.9879 31.18541,-54.8693 19.67613,-6.0292 50.97782,18.7922 63.13846,73.6615 12.10375,54.6126 12.38322,146.5837 -0.88392,147.5767 -9.78543,0.7323 -22.95137,-29.3115 -25.42377,-56.3767 -6.02729,-44.2284 17.72712,-121.6162 45.25172,-147.7769 11.01082,-9.4652 44.18743,4.6059 48.07894,27.7687 4.65164,27.6872 -26.64815,41.274 -39.83836,43.7159 -10.13925,1.8771 -21.81909,4.9862 -25.05834,-4.8873 -3.00059,-9.146 16.92834,-18.4201 28.56604,-21.4204 23.41066,-6.0354 40.20503,1.0511 51.73846,8.7693 15.57919,10.4256 37.5586,22.0325 80.60051,19.5723 45.26972,-2.5875 109.14906,-16.518 130.73795,-57.6353" />
    <path
       style="display:inline;mix-blend-mode:normal;fill:none;stroke:#fe239b;stroke-width:20;stroke-linecap:butt;stroke-linejoin:miter;stroke-miterlimit:4;stroke-dasharray:none;stroke-opacity:1"
       d="m 176.18444,1494.1401 c 0,0 -88.564904,-81.5375 -87.692311,-178.0154 1.546623,-171.0015 187.833461,-221.9574 300.784621,-215.723 92.52262,5.1067 159.46845,37.2981 210.60948,73.4522 98.14999,69.3872 132.78013,153.1806 126.12898,235.2247 -7.58755,93.5949 -92.79158,157.0891 -179.36914,178.8607 -114.18376,28.7137 -197.10448,2.2101 -262.60009,-22.7684 0,0 -35.13055,19.5935 -75.41539,26.3077 -57.87691,9.6461 -99.0923,-5.2616 -99.0923,-5.2616 0,0 22.69478,-16.7355 41.21538,-42.9692 20.69082,-29.3078 25.43077,-49.1077 25.43077,-49.1077 z"
       id="path5199"
       sodipodi:nodetypes="cssssscscsc" />
  </g>
  <g
     inkscape:groupmode="layer"
     id="layer9"
     inkscape:label="in2"
     style="display:inline;mix-blend-mode:normal;filter:url(#filter5245)"
     transform="translate(135.64822,-908.93024)"
     sodipodi:insensitive="true">
    <path
       style="display:inline;mix-blend-mode:normal;fill:#fe6cbc;fill-opacity:1;fill-rule:nonzero;stroke:#fe6cbc;stroke-width:10;stroke-linecap:butt;stroke-linejoin:miter;stroke-miterlimit:4;stroke-dasharray:none;stroke-opacity:1"
       d="m 28.6938,1281.4144 c 1.1293,0.79 3.4055,2.37 6.5671,4.48 h 2e-4 c 3.2503,2.16 6.0476,3.95 7.7178,5.02 h 2e-4 c 0.366,0.23 -0.3307,-0.22 -2e-4,0 h 3e-4 c 1.1343,0.72 3.8293,2.55 8.0454,5.03 h 1e-4 c 1.2524,0.73 2.7931,1.6099 4.5914,2.6099 h 2e-4 c 7.395,4.1301 21.0651,11.36 37.2906,18.57 h 2e-4 c 12.9649,5.76 27.2629,11.3801 41.6679,15.6601 v 0 c 12.254,3.65 23.476,6.0099 33.679,7.1099 h 0.001 c 2.428,0.26 4.771,0.45 7.03,0.56 v 0 c 11.499,0.53 20.642,0.01 28.004,-1.12 h 0.001 c 6.893,-1.0599 13.5,-2.8399 19.653,-5.76 v 0 c 4.767,-2.26 9.26,-5.2 13.786,-9.23 v 0 c 0.994,-0.88 1.979,-1.8099 2.97,-2.79 v 0 c 2.526,-2.5 4.812,-5.0299 7.451,-8 v 0 c 8.716,-9.76 18.242,-16.6199 28.497,-20.7699 h 0.001 c 8.465,-3.4201 16.364,-4.58 23.458,-4.9201 v 0 c 6.114,-0.28 11.845,1.01 17.116,3.55 v 0 c 5.025,2.42 9.58,5.95 13.506,10.2 h 10e-4 c 3.76,4.06 6.86,8.69 9.124,13.31 v 0 c 1.097,2.25 1.984,4.46 2.643,6.57 v 0 c 0.65,2.08 1.069,4.02 1.258,5.74 v 0 c 0.384,3.51 0.21,6.46 -0.448,8.88 v 0 c -0.633,2.33 -1.715,4.18 -3.238,5.6401 h -10e-4 c -1.497,1.43 -3.547,2.5899 -6.317,3.3599 v 0 c -2.728,0.77 -6.122,1.1301 -10.265,1 v 0 c -0.232,-0.01 -0.337,-0.06 -0.401,-0.1 v 0 c -0.088,-0.06 -0.228,-0.1701 -0.424,-0.48 v 0 c -0.2,-0.32 -0.42,-0.8 -0.615,-1.5 v 0 c -0.193,-0.6901 -0.346,-1.54 -0.442,-2.56 v 0 c -0.194,-2.02 -0.149,-4.54 0.139,-7.46 v 0 c 0.284,-2.8901 0.799,-6.11 1.513,-9.53 v 0 c 1.414,-6.78 3.589,-14.26 6.193,-21.36 v 0 c 1.289,-3.52 2.677,-6.92 4.118,-10.08 v 0 c 1.434,-3.15 2.912,-6.03 4.385,-8.52 v 0 c 3.073,-5.19 6.282,-9.56 9.604,-12.98 h 10e-4 c 3.298,-3.4 6.646,-5.81 10.019,-7.21 h 0.001 c 1.674,-0.7 3.36,-1.16 5.064,-1.37 h 0.001 c 1.698,-0.2 3.442,-0.17 5.24,0.13 v 0 c 3.583,0.59 7.488,2.26 11.72,5.34 h 10e-4 c 3.611,2.63 6.886,6.5 9.732,11.19 v 0 c 2.834,4.67 5.169,10.03 6.953,15.52 v 0 c 1.783,5.48 2.992,11 3.607,15.97 v 0 c 0.307,2.48 0.463,4.81 0.471,6.89 v 0 c 0.009,2.1 -0.13,3.92 -0.394,5.4 v 0 c -0.533,3.01 -1.338,5.95 -2.392,8.49 v 0 c -0.528,1.28 -1.106,2.43 -1.728,3.43 v 0 c -0.624,1.01 -1.272,1.83 -1.926,2.47 v 0.01 c -0.654,0.64 -1.291,1.07 -1.898,1.35 v 0 c -0.597,0.27 -1.212,0.4 -1.877,0.39 v 0 c -0.675,-0.01 -1.497,-0.17 -2.488,-0.6 v 0 c -1.004,-0.44 -2.171,-1.16 -3.497,-2.26 h -0.001 c -0.29,-0.24 -0.534,-0.55 -0.735,-0.94 v 0 c -0.206,-0.41 -0.381,-0.95 -0.484,-1.63 v 0 c -0.105,-0.7 -0.134,-1.52 -0.066,-2.48 v 0 c 0.067,-0.95 0.229,-2.01 0.488,-3.17 v 0 c 0.522,-2.32 1.418,-4.92 2.631,-7.69 v 0 c 1.217,-2.78 2.732,-5.67 4.455,-8.54 v 0 c 3.492,-5.81 7.767,-11.42 12.054,-15.83 v 0 c 2.166,-2.23 4.298,-4.11 6.303,-5.56 h 10e-4 c 2.041,-1.47 3.835,-2.41 5.317,-2.86 h 0.001 c 2.006,-0.61 4.197,-0.84 6.541,-0.67 v 0 c 2.371,0.18 4.901,0.78 7.539,1.83 h 10e-4 c 5.378,2.13 11.095,6.08 16.663,11.89 h 0.001 c 0.035,0.04 0.07,0.07 0.105,0.11 h 0.001 c 10.7,11.2 21.59,30.1 27.751,57.84 v 0 c 2.948,13.28 5.242,29.04 6.786,45.52 v 0 c 1.499,16 2.278,32.54 2.25,47.6 v 0 c -0.013,7.38 -0.222,14.38 -0.632,20.73 v 0 c -0.406,6.28 -1.007,11.89 -1.804,16.57 h -0.001 c -0.395,2.32 -0.834,4.38 -1.313,6.17 v 0 c -0.479,1.79 -0.985,3.25 -1.5,4.39 h -10e-4 c -0.255,0.57 -0.502,1.03 -0.735,1.4 h -0.001 c -0.234,0.37 -0.437,0.62 -0.596,0.79 h -0.001 c -0.156,0.16 -0.246,0.21 -0.26,0.22 h -10e-4 c -0.006,0.01 0.072,-0.02 0.15,-0.03 h 10e-4 c -0.151,0.02 -0.358,0.01 -0.641,-0.07 h -0.002 c -0.288,-0.08 -0.653,-0.24 -1.093,-0.51 h -10e-4 c -0.894,-0.54 -1.958,-1.47 -3.149,-2.87 h -0.001 c -1.17,-1.37 -2.389,-3.12 -3.621,-5.2 h -10e-4 c -1.22,-2.06 -2.433,-4.43 -3.608,-7.04 h -0.001 c -2.326,-5.18 -4.47,-11.26 -6.189,-17.75 h -0.001 c -1.698,-6.42 -2.971,-13.19 -3.59,-19.79 v 0 c -0.005,-0.05 -0.011,-0.1 -0.017,-0.14 v 0 c -1.464,-10.63 -1.167,-23.44 0.612,-37.21 v 0 c 1.761,-13.64 4.958,-28.1 9.224,-42.08 h 10e-4 c 4.238,-13.89 9.511,-27.23 15.417,-38.7 h 0.001 c 2.939,-5.71 6.025,-10.94 9.202,-15.52 l 10e-4,-0.01 c 3.157,-4.55 6.381,-8.44 9.613,-11.53 h 0.001 c 0.925,-0.79 2.156,-1.41 3.713,-1.79 h 0.002 c 1.595,-0.4 3.482,-0.54 5.598,-0.39 h 0.003 c 4.241,0.3 9.156,1.74 13.958,4.19 h 0.002 c 4.79,2.45 9.344,5.84 12.913,9.94 h 10e-4 c 1.782,2.05 3.307,4.26 4.497,6.6 v 0.01 c 1.19,2.34 2.044,4.81 2.487,7.4 v 0 c 0.543,3.18 0.564,6.12 0.18,8.84 v 0 c -0.385,2.73 -1.181,5.27 -2.3,7.63 v 0 c -2.249,4.75 -5.819,8.82 -10.012,12.22 h -0.002 c -4.214,3.41 -8.99,6.1 -13.511,8.08 h -0.002 c -2.267,1 -4.46,1.81 -6.471,2.45 h -0.003 c -2.021,0.64 -3.845,1.1 -5.369,1.39 h -0.002 c -2.639,0.5 -5.128,1.04 -7.654,1.45 h -10e-4 c -2.518,0.41 -4.819,0.64 -6.847,0.56 h -0.003 c -1.013,-0.04 -1.925,-0.16 -2.736,-0.37 h -0.003 c -0.814,-0.21 -1.515,-0.49 -2.121,-0.86 h -0.002 c -0.604,-0.37 -1.138,-0.84 -1.6,-1.44 h -10e-4 c -0.468,-0.61 -0.888,-1.38 -1.221,-2.38 h -0.001 c -0.115,-0.34 -0.174,-0.68 -0.186,-1 v 0 c -0.013,-0.33 0.022,-0.68 0.109,-1.04 v -0.01 c 0.178,-0.74 0.577,-1.57 1.244,-2.48 h 10e-4 c 0.672,-0.92 1.578,-1.87 2.692,-2.82 l 0.002,-0.01 c 1.122,-0.96 2.425,-1.9 3.855,-2.81 h 0.002 c 2.911,-1.86 6.278,-3.53 9.594,-4.91 h 0.003 c 3.403,-1.42 6.719,-2.53 9.465,-3.24 h 0.003 c 11.653,-3.02 21.323,-2.6 29.188,-0.78 h 0.003 c 8.5,1.96 15.362,5.68 20.62,9.21 h 0.002 c 8.633,5.8 18.075,11.14 30.612,14.99 h 0.002 c 14.751,4.53 31.701,6.29 51.463,5.23 h 0.002 c 29.826,-1.59 55.72,-7.18 75.151,-14.13 h 0.002 c 8,-2.86 14.448,-5.77 19.573,-8.37 h 0.002 c 6.46,-3.29 11.413,-6.39 14.905,-8.75 h 0.002 c 6.359,-4.3 11.24,-8.39 15.075,-12.61 h 0.002 c 5.148,-5.67 8.163,-11.02 9.884,-14.3 h 0.002 c 1.16,-2.21 0.307,-4.95 -1.907,-6.11 v 0 c -2.214,-1.16 -4.951,-0.31 -6.115,1.9 h -0.001 c -1.544,2.94 -4.246,7.3 -8.669,12.53 h -0.002 c -3.126,3.7 -7.279,8.21 -12.704,12.54 h -0.002 c -3.087,2.46 -7.488,5.6 -13.564,8.95 h -0.003 c -4.787,2.64 -10.909,5.58 -18.587,8.49 h -0.003 c -18.687,7.07 -43.994,12.81 -73.342,14.6 h -0.003 c -19.283,1.18 -35.637,-0.44 -49.73,-4.68 h -0.003 c -11.95,-3.59 -20.984,-8.64 -29.386,-14.24 l -0.003,-0.01 c -5.572,-3.71 -12.973,-7.72 -22.206,-9.86 h -0.003 c -8.58,-1.99 -19.025,-2.43 -31.452,0.76 h -0.002 c -2.984,0.77 -6.518,1.93 -10.12,3.42 h -0.003 c -3.505,1.44 -7.14,3.22 -10.355,5.24 l -0.002,0.01 c -1.583,0.99 -3.086,2.06 -4.426,3.19 l -0.002,0.01 c -1.323,1.12 -2.522,2.33 -3.485,3.62 h -10e-4 c -0.952,1.28 -1.714,2.69 -2.1,4.23 h -10e-4 c -0.192,0.77 -0.29,1.56 -0.27,2.38 v 0 c 0.02,0.81 0.156,1.62 0.416,2.42 h 0.001 c 0.473,1.47 1.124,2.76 1.959,3.87 h 0.002 c 0.83,1.11 1.817,2 2.926,2.7 h 0.004 c 1.097,0.7 2.285,1.18 3.518,1.51 h 0.004 c 1.221,0.33 2.494,0.5 3.783,0.57 h 0.004 c 2.541,0.14 5.246,-0.13 7.905,-0.53 h 0.004 c 2.624,-0.39 5.329,-0.94 7.816,-1.38 h 0.003 c 1.765,-0.32 3.802,-0.82 6.005,-1.5 h 0.003 c 2.196,-0.68 4.576,-1.54 7.03,-2.6 h 0.004 c 4.875,-2.1 10.116,-5 14.817,-8.76 h 0.002 c 4.674,-3.75 8.893,-8.42 11.627,-14.1 h 0.001 c 1.365,-2.84 2.355,-5.93 2.843,-9.25 l 10e-4,-0.01 c 0.488,-3.32 0.471,-6.86 -0.15,-10.6 v -0.01 c -0.53,-3.2 -1.563,-6.23 -2.976,-9.05 h -10e-4 c -1.411,-2.83 -3.201,-5.44 -5.249,-7.82 h -0.002 c -4.089,-4.76 -9.245,-8.63 -14.612,-11.41 l -0.002,-0.01 c -5.359,-2.77 -11.044,-4.53 -16.235,-4.93 h -0.004 c -2.604,-0.2 -5.143,-0.07 -7.481,0.49 h -0.003 c -2.346,0.56 -4.537,1.55 -6.355,3.11 h -0.002 c -0.035,0.03 -0.072,0.06 -0.113,0.1 h -0.002 c -3.637,3.45 -7.157,7.68 -10.52,12.51 h -0.002 c -3.373,4.84 -6.611,10.29 -9.667,16.19 h -10e-4 c -6.135,11.85 -11.575,25.54 -15.937,39.71 v 0.01 c -4.393,14.27 -7.704,29.08 -9.549,43.1 v 0 c -1.853,14.1 -2.236,27.48 -0.713,38.85 v 0.01 c 0.627,6.98 1.937,14.09 3.682,20.8 l 0.001,0.01 c 1.772,6.81 4.004,13.25 6.469,18.81 h 10e-4 c 1.246,2.81 2.559,5.4 3.914,7.73 h 10e-4 c 1.362,2.33 2.787,4.42 4.256,6.17 h 0.002 c 1.468,1.75 3.055,3.25 4.753,4.31 h 0.002 c 0.863,0.53 1.785,0.98 2.762,1.27 h 0.003 c 0.987,0.29 2.027,0.43 3.096,0.35 h 0.003 c 0.924,-0.07 1.783,-0.33 2.557,-0.74 h 0.002 c 0.765,-0.4 1.424,-0.93 1.987,-1.5 l 0.002,-0.01 c 0.564,-0.57 1.058,-1.22 1.494,-1.91 h 0.001 c 0.439,-0.69 0.836,-1.44 1.199,-2.23 h 10e-4 c 0.725,-1.59 1.353,-3.43 1.902,-5.45 l 0.001,-0.01 c 0.554,-2.04 1.042,-4.32 1.47,-6.8 v 0 c 0.862,-4.99 1.496,-10.86 1.923,-17.29 v -0.01 c 0.432,-6.52 0.654,-13.66 0.677,-21.16 v -0.01 c 0.049,-15.29 -0.723,-32.06 -2.226,-48.27 v 0 c -1.548,-16.69 -3.864,-32.76 -6.882,-46.4 v 0 c -6.364,-28.77 -17.763,-48.94 -29.526,-61.26 h -0.002 c -0.038,-0.04 -0.077,-0.08 -0.115,-0.12 h -10e-4 c -6.109,-6.37 -12.655,-11 -19.198,-13.6 h -0.002 c -3.223,-1.28 -6.462,-2.07 -9.643,-2.31 h -0.003 c -3.154,-0.24 -6.248,0.07 -9.183,0.97 h -0.002 c -2.483,0.76 -4.99,2.16 -7.41,3.9 l -0.002,0.01 c -2.419,1.74 -4.864,3.92 -7.246,6.37 h -10e-4 c -4.705,4.84 -9.306,10.91 -13.049,17.15 h -10e-4 c -1.855,3.1 -3.513,6.26 -4.866,9.35 h -0.001 c -1.341,3.07 -2.405,6.12 -3.05,9 v 0 c -0.322,1.44 -0.544,2.86 -0.639,4.24 v 0 c -0.095,1.37 -0.065,2.73 0.134,4.04 h 0.001 c 0.2,1.31 0.573,2.59 1.183,3.79 h 10e-4 c 0.615,1.2 1.454,2.29 2.539,3.19 h 0.002 c 1.727,1.43 3.459,2.54 5.198,3.29 l 0.003,0.01 c 1.74,0.75 3.496,1.16 5.242,1.18 h 0.003 c 1.747,0.02 3.391,-0.35 4.897,-1.04 h 0.003 c 1.489,-0.68 2.794,-1.64 3.929,-2.77 h 0.002 c 1.13,-1.11 2.112,-2.41 2.965,-3.79 l 0.002,-0.01 c 0.852,-1.38 1.594,-2.89 2.236,-4.45 h 0.001 c 1.277,-3.12 2.197,-6.56 2.79,-9.96 v 0 c 0.349,-2 0.501,-4.25 0.486,-6.65 v -0.01 c -0.015,-2.4 -0.199,-5 -0.54,-7.71 v -0.01 c -0.681,-5.42 -2.001,-11.38 -3.926,-17.26 l -0.001,-0.01 c -1.925,-5.88 -4.475,-11.75 -7.647,-16.95 l -0.002,-0.01 c -3.168,-5.2 -7.024,-9.85 -11.599,-13.17 h -0.002 c -4.909,-3.56 -9.802,-5.75 -14.665,-6.54 h -0.001 c -2.438,-0.4 -4.84,-0.44 -7.198,-0.14 h -0.002 c -2.362,0.29 -4.651,0.93 -6.861,1.85 h -0.001 c -4.432,1.87 -8.516,4.91 -12.269,8.79 h -0.002 c -3.783,3.91 -7.294,8.75 -10.549,14.27 h -0.002 c -1.616,2.74 -3.198,5.85 -4.704,9.16 h -10e-4 c -1.515,3.34 -2.962,6.91 -4.299,10.57 v 0 c -2.696,7.38 -4.957,15.18 -6.436,22.31 h -10e-4 c -0.747,3.61 -1.3,7.07 -1.608,10.25 v 0 c -0.31,3.19 -0.38,6.16 -0.127,8.76 v 0 c 0.128,1.31 0.341,2.56 0.666,3.71 v 0.01 c 0.325,1.15 0.777,2.27 1.412,3.27 h 10e-4 c 0.643,1.01 1.49,1.93 2.588,2.6 h 0.002 c 1.116,0.68 2.362,1.03 3.666,1.07 h 0.002 c 4.631,0.14 8.732,-0.26 12.274,-1.26 h 0.001 c 3.63,-1.02 6.7,-2.66 9.113,-4.98 h 0.002 c 2.48,-2.38 4.128,-5.34 5.037,-8.7 h 10e-4 c 0.926,-3.43 1.078,-7.25 0.629,-11.33 h -10e-4 c -0.245,-2.22 -0.769,-4.59 -1.523,-6.99 v -0.01 c -0.769,-2.45 -1.784,-4.97 -3.015,-7.49 h -0.001 c -2.536,-5.18 -5.995,-10.35 -10.207,-14.9 h -0.002 c -4.401,-4.76 -9.606,-8.84 -15.481,-11.67 h -0.002 c -6.196,-2.99 -13.014,-4.55 -20.293,-4.22 h -0.001 c -7.61,0.34 -16.293,1.58 -25.658,5.32 h -0.002 c -11.353,4.54 -21.743,12.01 -31.122,22.39 h -0.001 c -2.656,2.94 -4.845,5.31 -7.217,7.6 H 234.8 c -0.926,0.89 -1.833,1.72 -2.737,2.51 h -10e-4 c -4.082,3.57 -8.021,6.12 -12.168,8.08 h -0.002 c -5.388,2.55 -11.274,4.15 -17.65,5.04 h -10e-4 c -6.847,0.94 -15.355,1.21 -26.423,0.25 h -0.002 c -2.086,-0.18 -4.258,-0.43 -6.518,-0.76 h -0.001 c -9.485,-1.39 -20.066,-4.2 -31.586,-8.39 h -0.001 c -13.57,-4.93 -27.022,-11.26 -39.1954,-17.7 h -0.0014 c -15.3344,-8.12 -27.8644,-16.01 -34.8845,-20.47 h -0.0012 c -1.6884,-1.08 -3.1288,-2 -4.3214,-2.75 l -9e-4,-0.01 c -2.7033,-1.71 -5.1026,-3.12 -7.8059,-4.83 h -9e-4 c -0.3183,-0.2 0.3535,0.22 9e-4,0 h -0.0011 c -1.6171,-1.03 -4.3129,-2.76 -7.4367,-4.84 h -7e-4 c -3.0307,-2.02 -5.2012,-3.53 -6.2627,-4.27 h -9e-4 c -3.5915,-2.51 -8.5391,-1.64 -11.0525,1.95 h -6e-4 c -2.5129,3.59 -1.6402,8.54 1.9497,11.06 z"
       id="path4948" />
    <path
       style="display:inline;mix-blend-mode:normal;fill:none;fill-opacity:1;stroke:#fe6cbc;stroke-width:20;stroke-linecap:butt;stroke-linejoin:miter;stroke-miterlimit:4;stroke-dasharray:none;stroke-opacity:1"
       d="m 176.184,1494.1344 c 0,0 -88.5645,-81.53 -87.6919,-178.01 v 0 c 1.5471,-171 187.8339,-221.96 300.7849,-215.72 v 0 c 92.522,5.1 159.468,37.29 210.609,73.45 v 0 c 98.15,69.39 132.78,153.18 126.129,235.22 v 0 c -7.587,93.6 -92.791,157.09 -179.369,178.86 v 0 c -114.184,28.72 -197.104,2.21 -262.6,-22.76 v 0 c -0.046,0.02 -35.157,19.59 -75.415,26.3 h -0.001 c -57.876,9.65 -99.092,-5.26 -99.092,-5.26 v 0 c 0.03,-0.02 22.707,-16.75 41.216,-42.97 v 0 c 20.691,-29.31 25.43,-49.11 25.43,-49.11 z"
       id="path5050" />
  </g>
  <g
     inkscape:groupmode="layer"
     id="layer8"
     inkscape:label="in1"
     style="display:inline;mix-blend-mode:normal;filter:url(#filter5249)"
     transform="translate(135.64822,-908.93024)"
     sodipodi:insensitive="true">
    <path
       style="display:inline;mix-blend-mode:normal;fill:#ff99d1;fill-opacity:1;fill-rule:nonzero;stroke:#ff89ca;stroke-width:10;stroke-linecap:butt;stroke-linejoin:miter;stroke-miterlimit:4;stroke-dasharray:none;stroke-opacity:1"
       d="m 28.6938,1281.4108 c 1.1293,0.791 3.4055,2.373 6.5671,4.479 h 4e-4 c 3.2502,2.165 6.0475,3.958 7.7176,5.02 h 4e-4 c 0.3656,0.233 -0.3309,-0.211 -4e-4,0 h 6e-4 c 1.1344,0.725 3.8293,2.556 8.0451,5.03 h 3e-4 c 1.2523,0.735 2.793,1.616 4.5912,2.618 h 4e-4 c 7.395,4.121 21.0651,11.357 37.2904,18.566 h 4e-4 c 12.9647,5.761 27.2627,11.376 41.6677,15.664 h 0.001 c 12.253,3.644 23.475,6.004 33.678,7.104 h 0.001 c 2.429,0.27 4.771,0.45 7.03,0.56 v 0 c 11.499,0.54 20.643,0.01 28.004,-1.12 h 0.001 c 6.893,-1.06 13.5,-2.84 19.653,-5.76 l 10e-4,-10e-4 c 4.766,-2.262 9.259,-5.195 13.785,-9.224 v -10e-4 c 0.994,-0.885 1.979,-1.812 2.97,-2.791 h 10e-4 c 2.526,-2.497 4.812,-5.034 7.45,-7.999 h 0.001 c 8.715,-9.763 18.241,-16.623 28.496,-20.768 h 0.001 c 8.465,-3.421 16.364,-4.583 23.458,-4.918 h 0.001 c 6.113,-0.284 11.845,1.005 17.115,3.543 h 0.001 c 5.024,2.42 9.579,5.955 13.505,10.198 l 10e-4,10e-4 c 3.76,4.063 6.861,8.689 9.124,13.316 v 10e-4 c 1.097,2.242 1.984,4.458 2.643,6.566 v 10e-4 c 0.65,2.077 1.069,4.017 1.258,5.742 v 0 c 0.384,3.506 0.21,6.456 -0.448,8.876 v 10e-4 c -0.633,2.328 -1.715,4.178 -3.238,5.638 h -10e-4 c -1.497,1.43 -3.548,2.59 -6.317,3.37 h -10e-4 c -2.728,0.76 -6.121,1.12 -10.264,0.99 h -0.001 c -0.231,-0.01 -0.336,-0.06 -0.4,-0.1 v 0 c -0.088,-0.06 -0.229,-0.17 -0.424,-0.48 v 0 c -0.2,-0.32 -0.42,-0.8 -0.615,-1.5 v 0 c -0.193,-0.69 -0.346,-1.54 -0.442,-2.56 v 0 c -0.194,-2.02 -0.149,-4.54 0.139,-7.46 v 0 c 0.284,-2.89 0.799,-6.106 1.513,-9.527 v -10e-4 c 1.414,-6.78 3.589,-14.259 6.193,-21.362 h 0.001 c 1.288,-3.515 2.676,-6.921 4.117,-10.081 v -10e-4 c 1.434,-3.146 2.912,-6.028 4.385,-8.516 v -10e-4 c 3.073,-5.192 6.282,-9.557 9.604,-12.98 l 10e-4,-10e-4 c 3.298,-3.398 6.646,-5.805 10.019,-7.211 l 0.001,-10e-4 c 1.674,-0.698 3.36,-1.153 5.064,-1.362 h 0.001 c 1.699,-0.208 3.442,-0.176 5.24,0.122 h 0.001 c 3.583,0.593 7.487,2.26 11.719,5.341 l 10e-4,10e-4 c 3.612,2.63 6.886,6.5 9.732,11.191 v 10e-4 c 2.834,4.67 5.169,10.034 6.953,15.517 v 0 c 1.783,5.48 2.992,11.007 3.607,15.973 v 10e-4 c 0.307,2.483 0.463,4.804 0.471,6.893 v 10e-4 c 0.009,2.097 -0.13,3.913 -0.394,5.397 v 10e-4 c -0.533,3.004 -1.338,5.943 -2.392,8.491 l -0.001,10e-4 c -0.527,1.274 -1.106,2.425 -1.727,3.427 v 10e-4 c -0.624,1.005 -1.272,1.825 -1.926,2.475 v 0 c -0.654,0.64 -1.291,1.08 -1.898,1.35 h -10e-4 c -0.597,0.27 -1.211,0.4 -1.876,0.39 v 0 c -0.676,-0.01 -1.497,-0.17 -2.488,-0.6 h -10e-4 c -1.003,-0.44 -2.17,-1.16 -3.496,-2.26 h -0.001 c -0.29,-0.24 -0.534,-0.55 -0.735,-0.943 v 0 c -0.206,-0.407 -0.381,-0.943 -0.484,-1.629 v -10e-4 c -0.105,-0.694 -0.134,-1.516 -0.066,-2.472 v -10e-4 c 0.067,-0.957 0.229,-2.016 0.488,-3.169 v -10e-4 c 0.522,-2.322 1.418,-4.927 2.631,-7.693 v -10e-4 c 1.217,-2.775 2.732,-5.665 4.455,-8.534 v -10e-4 c 3.492,-5.814 7.767,-11.428 12.054,-15.836 v 0 c 2.167,-2.228 4.298,-4.108 6.303,-5.554 l 10e-4,-10e-4 c 2.041,-1.471 3.835,-2.408 5.317,-2.862 h 0.001 c 2.006,-0.614 4.197,-0.845 6.541,-0.667 h 10e-4 c 2.37,0.179 4.9,0.778 7.538,1.824 h 10e-4 c 5.378,2.133 11.095,6.085 16.663,11.891 h 0.001 c 0.035,0.037 0.07,0.074 0.105,0.11 l 0.001,10e-4 c 10.7,11.206 21.591,30.105 27.751,57.839 v 0.01 c 2.948,13.27 5.242,29.03 6.786,45.51 v 0 c 1.499,16 2.278,32.54 2.25,47.6 v 0 c -0.014,7.38 -0.222,14.38 -0.632,20.73 v 0 c -0.406,6.28 -1.007,11.89 -1.805,16.57 v 0 c -0.395,2.32 -0.834,4.39 -1.313,6.18 h -10e-4 c -0.478,1.78 -0.984,3.24 -1.499,4.38 h -10e-4 c -0.255,0.57 -0.502,1.03 -0.736,1.4 v 0 c -0.234,0.37 -0.437,0.62 -0.597,0.79 h -10e-4 c -0.157,0.16 -0.246,0.22 -0.259,0.23 h -10e-4 c -0.003,0 0.074,-0.03 0.151,-0.03 h -10e-4 c -0.151,0.01 -0.357,0 -0.641,-0.08 h -10e-4 c -0.289,-0.08 -0.653,-0.24 -1.094,-0.5 h -0.001 c -0.893,-0.55 -1.958,-1.48 -3.148,-2.88 h -0.002 c -1.17,-1.37 -2.388,-3.12 -3.62,-5.2 h -10e-4 c -1.221,-2.06 -2.434,-4.43 -3.608,-7.04 h -0.001 c -2.326,-5.18 -4.47,-11.26 -6.19,-17.75 v 0 c -1.698,-6.42 -2.972,-13.19 -3.59,-19.79 h -0.001 c -0.004,-0.05 -0.01,-0.1 -0.016,-0.14 v 0 c -1.464,-10.63 -1.167,-23.44 0.612,-37.21 v 0 c 1.761,-13.64 4.958,-28.1 9.224,-42.08 h 10e-4 c 4.238,-13.88 9.512,-27.23 15.417,-38.7 h 0.001 c 2.94,-5.71 6.025,-10.937 9.202,-15.522 h 0.002 c 3.156,-4.555 6.38,-8.444 9.612,-11.536 l 0.002,-10e-4 c 0.924,-0.787 2.155,-1.402 3.713,-1.787 l 0.002,-10e-4 c 1.595,-0.394 3.482,-0.533 5.598,-0.385 h 0.003 c 4.241,0.297 9.156,1.733 13.958,4.186 l 0.002,10e-4 c 4.789,2.447 9.344,5.843 12.912,9.943 h 0.002 c 1.781,2.047 3.306,4.257 4.496,6.599 h 10e-4 c 1.189,2.343 2.043,4.818 2.486,7.402 h 10e-4 c 0.542,3.177 0.563,6.119 0.179,8.838 v 0.01 c -0.385,2.72 -1.181,5.26 -2.3,7.62 l -10e-4,0.01 c -2.249,4.74 -5.819,8.81 -10.012,12.21 h -10e-4 c -4.214,3.42 -8.99,6.1 -13.512,8.09 h -0.001 c -2.268,0.99 -4.46,1.8 -6.472,2.44 h -0.003 c -2.021,0.64 -3.845,1.1 -5.368,1.39 h -0.003 c -2.639,0.5 -5.128,1.04 -7.653,1.45 h -0.002 c -2.518,0.41 -4.819,0.64 -6.847,0.56 h -0.003 c -1.013,-0.04 -1.925,-0.16 -2.736,-0.37 h -0.003 c -0.814,-0.2 -1.514,-0.49 -2.121,-0.86 h -0.002 c -0.604,-0.37 -1.137,-0.84 -1.599,-1.44 h -0.002 c -0.468,-0.61 -0.887,-1.38 -1.22,-2.38 h -0.001 c -0.115,-0.34 -0.174,-0.67 -0.186,-1 v 0 c -0.013,-0.33 0.022,-0.68 0.109,-1.04 h 0.001 c 0.177,-0.75 0.576,-1.58 1.243,-2.49 h 10e-4 c 0.672,-0.92 1.579,-1.87 2.693,-2.82 h 10e-4 c 1.123,-0.97 2.426,-1.91 3.855,-2.82 h 0.002 c 2.912,-1.86 6.279,-3.53 9.595,-4.91 h 0.003 c 3.403,-1.42 6.719,-2.53 9.465,-3.24 h 0.002 c 11.654,-3.02 21.324,-2.6 29.189,-0.78 h 0.003 c 8.5,1.97 15.362,5.68 20.619,9.22 h 0.002 c 8.633,5.79 18.076,11.14 30.612,14.98 h 0.003 c 14.751,4.53 31.701,6.29 51.462,5.23 h 0.003 c 29.826,-1.59 55.719,-7.18 75.151,-14.13 h 0.002 c 7.999,-2.86 14.448,-5.76 19.573,-8.37 h 0.002 c 6.459,-3.29 11.413,-6.39 14.905,-8.75 h 0.002 c 6.359,-4.3 11.239,-8.39 15.075,-12.61 h 10e-4 c 5.148,-5.665 8.163,-11.014 9.885,-14.293 h 10e-4 c 1.161,-2.214 0.308,-4.951 -1.906,-6.113 h -10e-4 c -2.213,-1.162 -4.95,-0.311 -6.114,1.902 h -0.002 c -1.543,2.939 -4.245,7.293 -8.668,12.524 h -0.003 c -3.125,3.696 -7.279,8.219 -12.703,12.539 h -0.002 c -3.087,2.46 -7.488,5.6 -13.564,8.95 h -0.002 c -4.788,2.64 -10.91,5.58 -18.588,8.49 h -0.003 c -18.686,7.07 -43.994,12.82 -73.342,14.6 h -0.003 c -19.283,1.18 -35.637,-0.43 -49.73,-4.67 h -0.003 c -11.95,-3.6 -20.984,-8.65 -29.386,-14.25 h -0.003 c -5.572,-3.72 -12.973,-7.73 -22.206,-9.87 h -0.003 c -8.58,-1.99 -19.025,-2.43 -31.452,0.76 l -0.003,0.01 c -2.983,0.76 -6.517,1.92 -10.12,3.41 h -0.002 c -3.505,1.44 -7.14,3.22 -10.355,5.25 h -0.003 c -1.582,0.99 -3.085,2.06 -4.426,3.2 h -0.002 c -1.323,1.12 -2.522,2.33 -3.485,3.62 h -10e-4 c -0.952,1.28 -1.714,2.7 -2.1,4.23 v 0 c -0.193,0.77 -0.291,1.56 -0.271,2.38 v 0 c 0.02,0.81 0.156,1.62 0.416,2.42 h 0.001 c 0.473,1.47 1.124,2.76 1.958,3.87 h 0.002 c 0.831,1.11 1.817,2 2.926,2.7 h 0.004 c 1.097,0.7 2.285,1.18 3.518,1.51 h 0.003 c 1.222,0.33 2.495,0.51 3.784,0.58 h 0.003 c 2.542,0.13 5.247,-0.14 7.906,-0.53 l 0.004,-0.01 c 2.623,-0.39 5.329,-0.93 7.815,-1.38 h 0.004 c 1.765,-0.32 3.802,-0.82 6.004,-1.5 h 0.004 c 2.196,-0.68 4.575,-1.54 7.03,-2.6 h 0.004 c 4.875,-2.1 10.116,-5 14.817,-8.76 h 0.002 c 4.674,-3.75 8.894,-8.42 11.628,-14.1 h 0.001 c 1.365,-2.84 2.355,-5.92 2.843,-9.25 h 10e-4 c 0.487,-3.33 0.471,-6.863 -0.15,-10.61 v 0 c -0.53,-3.202 -1.562,-6.233 -2.975,-9.058 h -10e-4 c -1.412,-2.82 -3.201,-5.435 -5.25,-7.817 h -10e-4 c -4.089,-4.754 -9.245,-8.627 -14.612,-11.41 l -0.002,-10e-4 c -5.359,-2.779 -11.044,-4.531 -16.235,-4.934 h -0.004 c -2.603,-0.202 -5.143,-0.068 -7.481,0.488 l -0.003,10e-4 c -2.346,0.558 -4.537,1.554 -6.355,3.105 h -0.003 c -0.034,0.03 -0.072,0.064 -0.112,0.102 h -0.002 c -3.637,3.445 -7.158,7.682 -10.521,12.504 h -10e-4 c -3.374,4.837 -6.611,10.296 -9.667,16.195 h -10e-4 c -6.136,11.844 -11.575,25.534 -15.937,39.704 l -10e-4,0.01 c -4.392,14.27 -7.704,29.08 -9.549,43.1 v 0.01 c -1.853,14.09 -2.236,27.48 -0.713,38.85 v 0 c 0.627,6.98 1.937,14.09 3.682,20.81 h 0.001 c 1.772,6.81 4.004,13.25 6.469,18.81 h 10e-4 c 1.245,2.81 2.558,5.41 3.914,7.73 h 10e-4 c 1.362,2.33 2.787,4.42 4.255,6.17 h 0.002 c 1.469,1.75 3.055,3.25 4.753,4.31 h 0.002 c 0.863,0.53 1.785,0.98 2.762,1.27 h 0.003 c 0.987,0.29 2.027,0.43 3.096,0.35 h 0.003 c 0.924,-0.07 1.783,-0.33 2.557,-0.74 h 0.002 c 0.766,-0.4 1.424,-0.93 1.988,-1.5 h 10e-4 c 0.565,-0.58 1.059,-1.23 1.495,-1.91 l 0.001,-0.01 c 0.438,-0.68 0.836,-1.43 1.198,-2.23 h 0.001 c 0.726,-1.58 1.354,-3.43 1.903,-5.45 h 0.001 c 0.554,-2.05 1.042,-4.33 1.469,-6.81 h 10e-4 c 0.862,-4.99 1.496,-10.85 1.923,-17.29 v 0 c 0.432,-6.52 0.654,-13.67 0.677,-21.17 v 0 c 0.049,-15.3 -0.723,-32.07 -2.226,-48.28 v 0 c -1.547,-16.69 -3.864,-32.76 -6.882,-46.4 v 0 c -6.364,-28.772 -17.763,-48.933 -29.525,-61.256 h -0.002 c -0.039,-0.041 -0.077,-0.081 -0.115,-0.121 l -0.002,-10e-4 c -6.108,-6.371 -12.654,-11.002 -19.197,-13.596 l -0.002,-10e-4 c -3.223,-1.278 -6.462,-2.068 -9.644,-2.308 h -0.002 c -3.155,-0.239 -6.248,0.064 -9.183,0.964 h -0.002 c -2.484,0.761 -4.99,2.159 -7.411,3.906 l -0.002,10e-4 c -2.419,1.746 -4.863,3.922 -7.245,6.374 l -0.002,10e-4 c -4.705,4.843 -9.305,10.907 -13.048,17.15 h -0.002 c -1.854,3.093 -3.512,6.254 -4.866,9.347 h -0.001 c -1.341,3.067 -2.405,6.117 -3.05,8.999 v 0 c -0.321,1.438 -0.544,2.857 -0.639,4.234 v 0 c -0.095,1.37 -0.065,2.729 0.134,4.037 h 0.001 c 0.199,1.311 0.572,2.591 1.183,3.791 h 10e-4 c 0.614,1.21 1.454,2.29 2.539,3.19 h 10e-4 c 1.728,1.43 3.459,2.54 5.199,3.3 h 0.002 c 1.74,0.75 3.496,1.16 5.242,1.18 h 0.003 c 1.748,0.02 3.391,-0.35 4.898,-1.04 h 0.002 c 1.489,-0.68 2.795,-1.64 3.93,-2.76 l 0.002,-0.01 c 1.129,-1.11 2.112,-2.41 2.965,-3.79 h 0.001 c 0.853,-1.39 1.595,-2.89 2.237,-4.458 h 0.001 c 1.277,-3.114 2.197,-6.561 2.79,-9.958 v 0 c 0.349,-2.001 0.501,-4.252 0.486,-6.651 v 0 c -0.015,-2.404 -0.199,-5.004 -0.54,-7.719 v 0 c -0.681,-5.422 -2,-11.382 -3.926,-17.267 h -0.001 c -1.925,-5.882 -4.475,-11.749 -7.647,-16.957 h -10e-4 c -3.169,-5.202 -7.024,-9.856 -11.6,-13.174 h -10e-4 c -4.909,-3.56 -9.803,-5.744 -14.665,-6.537 l -0.002,-10e-4 c -2.437,-0.397 -4.84,-0.439 -7.197,-0.144 h -0.002 c -2.362,0.296 -4.651,0.928 -6.861,1.856 l -0.002,10e-4 c -4.432,1.861 -8.515,4.901 -12.269,8.783 h -10e-4 c -3.784,3.914 -7.295,8.749 -10.55,14.27 h -10e-4 c -1.617,2.741 -3.199,5.846 -4.705,9.16 h -10e-4 c -1.515,3.335 -2.962,6.903 -4.299,10.562 v 0 c -2.695,7.38 -4.957,15.176 -6.436,22.311 v 0 c -0.748,3.604 -1.301,7.064 -1.609,10.243 v 0 c -0.31,3.192 -0.38,6.162 -0.127,8.762 v 0 c 0.127,1.31 0.341,2.56 0.665,3.71 l 10e-4,0.01 c 0.325,1.15 0.777,2.27 1.411,3.27 h 0.001 c 0.644,1.01 1.491,1.93 2.589,2.6 h 10e-4 c 1.116,0.68 2.362,1.03 3.667,1.07 h 0.001 c 4.632,0.15 8.732,-0.26 12.274,-1.26 h 0.002 c 3.629,-1.02 6.699,-2.66 9.112,-4.98 h 0.002 c 2.48,-2.38 4.129,-5.33 5.038,-8.7 h 10e-4 c 0.926,-3.425 1.078,-7.244 0.629,-11.327 h -10e-4 c -0.245,-2.223 -0.769,-4.587 -1.523,-6.993 v 0 c -0.768,-2.452 -1.784,-4.978 -3.015,-7.494 h -0.001 c -2.535,-5.181 -5.995,-10.346 -10.207,-14.9 h -10e-4 c -4.402,-4.758 -9.606,-8.834 -15.482,-11.67 h -10e-4 c -6.196,-2.99 -13.014,-4.542 -20.294,-4.212 h -0.001 c -7.609,0.34 -16.293,1.571 -25.657,5.314 l -0.002,10e-4 c -11.353,4.537 -21.744,12.006 -31.123,22.393 l -0.001,10e-4 c -2.656,2.932 -4.844,5.305 -7.217,7.591 H 234.8 c -0.926,0.893 -1.832,1.728 -2.737,2.517 h -10e-4 c -4.081,3.564 -8.021,6.115 -12.168,8.077 l -0.002,10e-4 c -5.387,2.548 -11.274,4.152 -17.65,5.034 h -10e-4 c -6.846,0.948 -15.355,1.217 -26.423,0.254 h -0.002 c -2.086,-0.177 -4.257,-0.428 -6.517,-0.76 l -0.002,-10e-4 c -9.485,-1.393 -20.066,-4.203 -31.586,-8.39 h -0.001 c -13.57,-4.932 -27.022,-11.257 -39.1951,-17.699 l -0.0012,-10e-4 c -15.3343,-8.115 -27.8643,-16.007 -34.8845,-20.472 h -0.0013 c -1.6885,-1.074 -3.1288,-1.995 -4.3215,-2.75 h -9e-4 c -2.7033,-1.712 -5.1026,-3.125 -7.8058,-4.836 h -10e-4 c -0.3189,-0.201 0.3528,0.225 10e-4,0 h -0.0011 c -1.617,-1.028 -4.313,-2.756 -7.4371,-4.837 h -4e-4 c -3.0308,-2.019 -5.2015,-3.528 -6.263,-4.272 h -4e-4 c -3.5916,-2.512 -8.5395,-1.638 -11.053,1.953 h -3e-4 c -2.5132,3.591 -1.6406,8.539 1.9494,11.054 z"
       id="path5215" />
    <path
       style="display:inline;mix-blend-mode:normal;fill:none;fill-opacity:1;stroke:#ff89ca;stroke-width:20;stroke-linecap:butt;stroke-linejoin:miter;stroke-miterlimit:4;stroke-dasharray:none;stroke-opacity:1"
       d="m 176.184,1494.1428 c 0,0 -88.5645,-81.54 -87.6919,-178.02 v 0 c 1.5469,-171.001 187.8339,-221.957 300.7849,-215.723 v 0 c 92.523,5.107 159.468,37.298 210.609,73.453 h 10e-4 c 98.149,69.387 132.779,153.18 126.128,235.22 v 0 c -7.588,93.6 -92.791,157.09 -179.369,178.86 v 0.01 c -114.184,28.71 -197.104,2.21 -262.6,-22.77 v 0 c -0.092,0.05 -35.183,19.6 -75.415,26.3 h -0.001 c -57.877,9.65 -99.092,-5.26 -99.092,-5.26 v 0 c 0.059,-0.04 22.719,-16.77 41.216,-42.97 v 0 c 20.691,-29.3 25.43,-49.1 25.43,-49.1 z"
       id="path5217" />
  </g>
  <g
     inkscape:groupmode="layer"
     id="layer6"
     inkscape:label="top"
     style="display:inline;opacity:0.601575;filter:url(#filter5253)"
     transform="translate(135.64822,-908.93024)"
     sodipodi:insensitive="true">
    <path
       style="display:inline;mix-blend-mode:normal;fill:#ffffff;fill-opacity:1;fill-rule:nonzero;stroke:#ffffff;stroke-width:10;stroke-linecap:butt;stroke-linejoin:miter;stroke-miterlimit:4;stroke-dasharray:none;stroke-opacity:1"
       d="m 28.693801,1281.4124 c 1.129337,0.7905 3.405541,2.373 6.567084,4.4787 3.250388,2.1649 6.047806,3.9582 7.718036,5.0205 0.366383,0.233 -0.330622,-0.2113 0,0 1.134102,0.7247 3.829204,2.5566 8.045663,5.0308 1.25235,0.7349 2.793175,1.6159 4.591506,2.618 7.394884,4.1209 21.065162,11.3566 37.290855,18.5662 12.965035,5.7608 27.262945,11.3757 41.668075,15.6633 12.25382,3.6472 23.47566,6.0052 33.67928,7.1073 2.4289,0.2623 4.77138,0.4468 7.03036,0.5581 11.49886,0.5345 20.6427,0.01 28.00447,-1.1217 6.8937,-1.0589 13.50063,-2.8388 19.65402,-5.7595 4.76695,-2.2626 9.25942,-5.1958 13.78558,-9.2249 0.99435,-0.8851 1.97948,-1.8127 2.97026,-2.7921 2.52624,-2.4973 4.81231,-5.0344 7.4512,-7.9998 8.71529,-9.7641 18.24138,-16.6234 28.4972,-20.7687 8.46566,-3.4217 16.36486,-4.5833 23.45838,-4.9181 6.11425,-0.2846 11.84561,1.0044 17.11628,3.5429 5.02476,2.4201 9.57958,5.9549 13.50634,10.198 3.76022,4.0632 6.86102,8.6901 9.12442,13.3171 1.09692,2.2424 1.98379,4.4586 2.64348,6.5671 0.64979,2.077 1.06914,4.0178 1.25807,5.7431 0.38396,3.5058 0.20975,6.4566 -0.44819,8.8767 -0.63263,2.327 -1.7154,4.183 -3.23851,5.6381 -1.49692,1.4301 -3.54787,2.5951 -6.31766,3.367 -2.72815,0.7603 -6.12151,1.1289 -10.2648,0.9907 -0.23173,-0.01 -0.33758,-0.06 -0.40097,-0.1 -0.0878,-0.055 -0.22823,-0.1654 -0.42394,-0.476 -0.20013,-0.3177 -0.42005,-0.8002 -0.61499,-1.5003 -0.19294,-0.6928 -0.34581,-1.5424 -0.44272,-2.5562 -0.19357,-2.0251 -0.14885,-4.5404 0.13897,-7.464 0.28449,-2.8898 0.79912,-6.1061 1.51305,-9.5279 1.41459,-6.7801 3.5896,-14.259 6.19365,-21.3621 1.28869,-3.5151 2.67642,-6.9214 4.11727,-10.0814 1.43462,-3.1464 2.91274,-6.0285 4.3854,-8.517 3.07258,-5.1925 6.28182,-9.558 9.6045,-12.9814 3.2983,-3.3983 6.64694,-5.8053 10.01983,-7.2121 1.67409,-0.6982 3.36058,-1.1531 5.06496,-1.3622 1.69874,-0.2084 3.44242,-0.1761 5.24059,0.1215 3.58309,0.5931 7.48785,2.2594 11.72041,5.3411 3.61202,2.6308 6.88696,6.5009 9.73294,11.1922 2.83335,4.6704 5.16852,10.0348 6.95246,15.5176 1.78295,5.4797 2.99249,11.0075 3.60694,15.9737 0.30723,2.4832 0.46304,4.8047 0.47193,6.8931 0.009,2.0982 -0.13071,3.9141 -0.39415,5.3986 -0.53306,3.0043 -1.33847,5.9432 -2.39262,8.4918 -0.52724,1.2747 -1.10615,2.4262 -1.72734,3.4277 -0.62416,1.0064 -1.27189,1.8305 -1.926,2.4727 -0.65409,0.6422 -1.29081,1.0796 -1.89832,1.3539 -0.5972,0.2696 -1.21177,0.4031 -1.87666,0.3931 -0.67537,-0.01 -1.49675,-0.1704 -2.488,-0.6048 -1.00402,-0.4401 -2.17108,-1.1571 -3.4977,-2.2595 -0.29085,-0.2422 -0.53461,-0.5457 -0.73534,-0.9417 -0.20627,-0.407 -0.38094,-0.943 -0.48445,-1.6296 -0.10458,-0.6937 -0.13359,-1.5168 -0.0663,-2.4731 0.0673,-0.9568 0.2289,-2.0164 0.48806,-3.1693 0.52215,-2.3229 1.41849,-4.9283 2.63127,-7.6943 1.21721,-2.776 2.73185,-5.6654 4.45506,-8.535 3.49183,-5.8149 7.76687,-11.4293 12.05365,-15.8367 2.16665,-2.2277 4.29867,-4.1086 6.30376,-5.5543 2.04098,-1.4716 3.83576,-2.4091 5.31777,-2.8626 2.00625,-0.6143 4.19724,-0.8455 6.54135,-0.6679 2.3709,0.1795 4.90121,0.7778 7.53968,1.8243 5.37817,2.1332 11.09535,6.0847 16.66403,11.8907 0.0354,0.037 0.0708,0.074 0.10616,0.1109 10.70038,11.2056 21.59119,30.1047 27.75191,57.8442 2.9479,13.2733 5.24151,29.0352 6.78599,45.516 1.49913,15.9971 2.27796,32.5413 2.24992,47.5987 -0.0137,7.3818 -0.22174,14.3816 -0.63189,20.7303 -0.40592,6.283 -1.00776,11.8936 -1.80493,16.5716 -0.39513,2.3187 -0.83434,4.3849 -1.31369,6.1744 -0.47897,1.7881 -0.9846,3.2491 -1.50022,4.3874 -0.25533,0.5637 -0.50286,1.0254 -0.73631,1.396 -0.23412,0.3717 -0.43718,0.6249 -0.59705,0.7909 -0.15919,0.1654 -0.24945,0.2176 -0.261,0.2257 -0.01,0.01 0.0713,-0.025 0.15146,-0.03 -0.15111,0.014 -0.35845,0 -0.64265,-0.076 -0.28876,-0.081 -0.65393,-0.2354 -1.09496,-0.5041 -0.89348,-0.5443 -1.9588,-1.4742 -3.14972,-2.8736 -1.17011,-1.3749 -2.3895,-3.1179 -3.62204,-5.202 -1.22054,-2.0637 -2.43399,-4.428 -3.60853,-7.0405 -2.32645,-5.1748 -4.47074,-11.259 -6.19049,-17.7522 -1.69854,-6.4132 -2.97184,-13.1855 -3.59057,-19.7839 a 0.13318017,1.1183374 0.30136639 0 0 -0.0165,-0.1446 c -1.46459,-10.6303 -1.16681,-23.4346 0.61193,-37.2094 1.76121,-13.639 4.95838,-28.101 9.22459,-42.0788 4.23783,-13.8847 9.51194,-27.2284 15.41762,-38.7013 2.93996,-5.7115 6.02603,-10.9388 9.20356,-15.5241 3.15687,-4.5555 6.38118,-8.4443 9.61399,-11.5374 0.925,-0.7866 2.15634,-1.4022 3.71482,-1.7876 1.5956,-0.3947 3.48353,-0.5342 5.60078,-0.3859 4.24112,0.2971 9.15671,1.7327 13.96006,4.1864 4.79022,2.4469 9.3454,5.844 12.91433,9.9445 1.78192,2.0474 3.30751,4.258 4.4974,6.601 1.19006,2.3434 2.04419,4.8188 2.48712,7.4035 0.5427,3.1785 0.56408,6.1212 0.17983,8.8449 -0.38498,2.7289 -1.18145,5.2683 -2.30029,7.6303 -2.24895,4.7478 -5.81968,8.8155 -10.01322,12.2148 -4.21425,3.416 -8.99087,6.1024 -13.51271,8.0851 -2.2687,0.9948 -4.4618,1.8075 -6.47375,2.4447 -2.02264,0.6406 -3.84694,1.0992 -5.37141,1.3894 -2.6397,0.505 -5.12987,1.0398 -7.65564,1.4493 -2.5187,0.4084 -4.82027,0.6454 -6.84901,0.5616 -1.01429,-0.042 -1.92678,-0.1632 -2.73918,-0.3685 -0.81485,-0.2059 -1.51619,-0.4924 -2.12335,-0.8639 -0.60476,-0.37 -1.13901,-0.8392 -1.60147,-1.4387 -0.46856,-0.6075 -0.88847,-1.3815 -1.22169,-2.3776 -0.11571,-0.343 -0.17457,-0.6757 -0.18673,-1.0037 -0.0123,-0.3308 0.0223,-0.6763 0.10957,-1.0414 0.17762,-0.7431 0.57644,-1.576 1.24408,-2.4884 0.67264,-0.9193 1.57952,-1.8664 2.69401,-2.8212 1.12264,-0.9619 2.42632,-1.9064 3.85664,-2.8174 2.91214,-1.8547 6.28018,-3.527 9.59711,-4.9112 3.40411,-1.4206 6.721,-2.5248 9.4677,-3.239 11.65446,-3.0172 21.32547,-2.5976 29.19128,-0.7794 8.50102,1.965 15.36431,5.6824 20.62197,9.216 8.63367,5.7953 18.07677,11.1402 30.61399,14.9884 14.75183,4.528 31.70221,6.2826 51.46471,5.2296 29.82739,-1.5947 55.72177,-7.184 75.15356,-14.1311 8.00032,-2.8603 14.44953,-5.7671 19.57526,-8.3752 6.46058,-3.2872 11.41535,-6.3831 14.90681,-8.7435 6.3602,-4.3 11.24096,-8.3939 15.07667,-12.6146 5.1493,-5.666 8.1644,-11.0163 9.88597,-14.2951 a 4.5298606,4.5298606 90 0 0 -8.02128,-4.2116 c -1.54343,2.9396 -4.24621,7.2949 -8.6706,12.5269 -3.12584,3.6964 -7.28004,8.2157 -12.70589,12.5395 -3.08718,2.4601 -7.48851,5.6036 -13.56559,8.9514 -4.78784,2.6375 -10.91086,5.5808 -18.59051,8.4865 -18.68685,7.0703 -43.99572,12.8189 -73.34504,14.6068 -19.28426,1.1788 -35.63946,-0.4388 -49.73284,-4.6784 -11.95211,-3.5954 -20.98646,-8.6424 -29.38948,-14.2482 -5.5726,-3.7141 -12.97465,-7.7304 -22.20858,-9.8685 -8.58033,-1.9868 -19.02642,-2.425 -31.45505,0.7665 -2.98395,0.7633 -6.51901,1.9281 -10.12246,3.4141 -3.50535,1.4455 -7.14187,3.2229 -10.35753,5.2468 -1.58336,0.9966 -3.08675,2.0668 -4.42805,3.201 -1.324,1.1195 -2.52339,2.3295 -3.48659,3.6232 -0.95255,1.2793 -1.71486,2.6954 -2.10071,4.232 -0.19261,0.7671 -0.29055,1.5616 -0.27072,2.3755 0.0198,0.8116 0.15623,1.6233 0.41632,2.4259 0.47346,1.4628 1.12479,2.7536 1.96007,3.866 0.83116,1.1069 1.81814,2.0017 2.92896,2.7037 1.09816,0.6939 2.28764,1.1807 3.52181,1.5106 1.22294,0.3269 2.49707,0.5017 3.78683,0.5713 2.54292,0.1371 5.24937,-0.1308 7.90964,-0.5307 2.62463,-0.3945 5.33165,-0.9394 7.81905,-1.3841 1.76575,-0.319 3.8037,-0.8178 6.00786,-1.4984 2.1976,-0.6787 4.57783,-1.5435 7.03392,-2.6021 4.87551,-2.1013 10.11768,-4.9957 14.82007,-8.7622 4.6745,-3.7442 8.89472,-8.4146 11.62884,-14.0996 1.36515,-2.8385 2.35543,-5.9218 2.84409,-9.2501 0.488,-3.3239 0.47134,-6.8623 -0.14963,-10.6102 -0.52947,-3.2032 -1.56245,-6.2344 -2.97602,-9.0599 -1.41147,-2.8212 -3.20176,-5.4363 -5.25082,-7.8191 -4.08936,-4.7553 -9.24561,-8.628 -14.61376,-11.4117 -5.35982,-2.7793 -11.04597,-4.5321 -16.23781,-4.9344 -2.60505,-0.2018 -5.14537,-0.068 -7.48461,0.4884 -2.3468,0.5585 -4.53902,1.5552 -6.35817,3.1076 a 0.12650843,1.0272958 40.865864 0 0 -0.11417,0.1032 c -3.63727,3.4452 -7.15873,7.6834 -10.52245,12.5065 -3.3737,4.8375 -6.61183,10.2967 -9.66823,16.1966 -6.13553,11.8436 -11.5757,25.534 -15.9378,39.7106 -4.39259,14.2757 -7.70444,29.0824 -9.54887,43.1086 -1.85343,14.0946 -2.23674,27.4816 -0.71292,38.8527 0.6263,6.9834 1.93681,14.0987 3.68236,20.8097 1.77223,6.8136 4.00438,13.2567 6.46964,18.8126 1.24604,2.8083 2.5592,5.4072 3.91488,7.7285 1.36302,2.3339 2.78822,4.4203 4.25705,6.1698 1.46936,1.7502 3.05669,3.2526 4.7553,4.31 0.86322,0.5373 1.78648,0.9793 2.76417,1.2699 0.98817,0.2936 2.02955,0.4314 3.09917,0.3545 0.92523,-0.068 1.78523,-0.334 2.55985,-0.7409 0.76613,-0.4024 1.42504,-0.9292 1.98918,-1.5049 0.56482,-0.5765 1.05921,-1.227 1.49569,-1.9119 0.43877,-0.6884 0.83643,-1.4389 1.19954,-2.2319 0.72585,-1.585 1.35408,-3.4287 1.90344,-5.4558 0.55424,-2.045 1.04224,-4.3292 1.47012,-6.8055 0.862,-4.9887 1.49659,-10.8545 1.92328,-17.2941 0.43205,-6.5205 0.65362,-13.6697 0.67743,-21.1702 0.0485,-15.2944 -0.72372,-32.065 -2.22663,-48.2749 -1.54715,-16.6871 -3.86405,-32.7584 -6.88171,-46.4018 -6.36417,-28.7732 -17.76353,-48.9351 -29.52673,-61.2579 -0.039,-0.041 -0.078,-0.082 -0.11704,-0.1224 -6.10855,-6.3711 -12.65563,-11.0022 -19.19872,-13.5968 -3.2237,-1.2784 -6.46346,-2.0683 -9.64584,-2.3085 -3.1554,-0.2383 -6.24983,0.065 -9.18548,0.9648 -2.48403,0.7617 -4.99079,2.1595 -7.41223,3.9073 -2.41963,1.7465 -4.86491,3.9231 -7.24723,6.3751 -4.7055,4.8431 -9.30647,10.9081 -13.04996,17.1516 -1.85498,3.0937 -3.51349,6.2553 -4.86703,9.3492 -1.34189,3.0673 -2.40607,6.1183 -3.05063,9.0006 -0.3217,1.4385 -0.54427,2.8589 -0.63932,4.2359 -0.0947,1.3712 -0.065,2.7307 0.13461,4.0396 0.19993,1.311 0.57307,2.5937 1.18412,3.7921 0.61456,1.2053 1.45433,2.291 2.54036,3.1906 1.72794,1.4308 3.45992,2.5382 5.20029,3.2956 1.74123,0.7577 3.49728,1.1671 5.24477,1.1867 1.74858,0.02 3.39265,-0.3527 4.90013,-1.0408 1.48992,-0.6801 2.79621,-1.6448 3.9319,-2.7677 1.13011,-1.1175 2.11302,-2.4126 2.96686,-3.7989 0.85285,-1.3846 1.59528,-2.8901 2.23754,-4.4558 1.27768,-3.1146 2.19758,-6.5622 2.79036,-9.9599 0.34962,-2.0013 0.50144,-4.2531 0.48612,-6.6531 -0.0153,-2.4048 -0.19889,-5.0053 -0.53999,-7.721 -0.68107,-5.4222 -2.00039,-11.3834 -3.92641,-17.2693 -1.92507,-5.8831 -4.47596,-11.7511 -7.64831,-16.9596 -3.16892,-5.2028 -7.02492,-9.8572 -11.60086,-13.1757 -4.90955,-3.5607 -9.80356,-5.7457 -14.66652,-6.5383 -2.43803,-0.3974 -4.84131,-0.4399 -7.19922,-0.1444 -2.36292,0.2961 -4.65266,0.9281 -6.86277,1.8564 -4.43259,1.8616 -8.51647,4.9013 -12.27064,8.7848 -3.78414,3.9144 -7.29542,8.75 -10.55099,14.2716 -1.61678,2.7422 -3.19939,5.848 -4.70546,9.163 -1.51533,3.3354 -2.96296,6.9041 -4.29968,10.5643 -2.69553,7.3808 -4.95692,15.1779 -6.43632,22.3133 -0.74735,3.6046 -1.30044,7.0651 -1.60891,10.2449 -0.30949,3.1903 -0.37971,6.1666 -0.12692,8.7611 0.12753,1.309 0.34096,2.5606 0.66584,3.717 0.32494,1.1567 0.77758,2.2761 1.41215,3.2755 0.64354,1.0135 1.49129,1.9285 2.58998,2.5985 1.11638,0.6807 2.36281,1.0288 3.66795,1.0701 4.63218,0.1463 8.73311,-0.26 12.27529,-1.2551 3.63061,-1.0199 6.70086,-2.6673 9.11441,-4.9831 2.48076,-2.3802 4.1299,-5.335 5.03918,-8.699 0.92634,-3.4272 1.07878,-7.2472 0.62875,-11.3307 -0.24507,-2.2241 -0.76949,-4.588 -1.52358,-6.9953 -0.76832,-2.4527 -1.78383,-4.9789 -3.01559,-7.4962 -2.5356,-5.1818 -5.99572,-10.3467 -10.20825,-14.9012 -4.40181,-4.7592 -9.60668,-8.8356 -15.48302,-11.6714 -6.19648,-2.9902 -13.01483,-4.5419 -20.29453,-4.2119 -7.60959,0.3398 -16.29364,1.5717 -25.65887,5.3147 -11.35391,4.5377 -21.74462,12.007 -31.12398,22.3945 -2.65672,2.9322 -4.84535,5.305 -7.21793,7.592 -0.92624,0.8928 -1.83361,1.7281 -2.73815,2.5181 -4.08205,3.565 -8.02156,6.1161 -12.16953,8.0783 -5.38782,2.5487 -11.27513,4.1523 -17.6516,5.0348 -6.84667,0.9476 -15.3558,1.2169 -26.42452,0.2538 -2.08653,-0.1768 -4.25852,-0.4283 -6.51924,-0.7605 -9.48538,-1.3936 -20.06659,-4.2037 -31.58702,-8.3911 -13.57045,-4.9324 -27.02281,-11.2578 -39.196478,-17.7 -15.33518,-8.1153 -27.865766,-16.008 -34.885887,-20.4728 -1.688899,-1.0742 -3.129609,-1.9957 -4.322439,-2.7508 -2.703655,-1.7116 -5.103201,-3.1245 -7.806855,-4.8361 -0.319876,-0.2024 0.35354,0.2249 0,0 -1.617003,-1.0284 -4.313193,-2.757 -7.437484,-4.8379 -3.031077,-2.0188 -5.201847,-3.5282 -6.263418,-4.2713 a 7.9380478,7.9380478 90 0 0 -9.104348,13.0062 z"
       id="path5224"
       sodipodi:nodetypes="cssssssssssssccssssssc"
       inkscape:path-effect="#path-effect5232"
       inkscape:original-d="m 33.245975,1274.9093 c 26.307693,18.4154 92.829665,58.2515 142.304835,61.5317 43.27667,2.8693 56.02494,-10.6999 69.03363,-25.1875 20.25892,-22.5619 41.11292,-26.0897 54.36923,-26.698 27.47316,-1.2607 45.36479,26.6523 47.08677,42.3221 1.69259,15.4023 -6.27763,23.1337 -23.66339,22.5702 -12.31768,-0.3992 -0.67444,-45.7738 11.65354,-66.6462 12.7125,-21.5234 28.34867,-30.4226 46.6002,-17.1616 16.39265,11.9104 24.25355,44.424 21.7998,58.377 -2.24694,12.7771 -9.29428,25.5625 -21.53925,15.4078 -11.00184,-9.1238 15.25498,-49.9879 31.18541,-54.8693 19.67613,-6.0292 50.97782,18.7922 63.13846,73.6615 12.10375,54.6126 12.38322,146.5837 -0.88392,147.5767 -9.78543,0.7323 -22.95137,-29.3115 -25.42377,-56.3767 -6.02729,-44.2284 17.72712,-121.6162 45.25172,-147.7769 11.01082,-9.4652 44.18743,4.6059 48.07894,27.7687 4.65164,27.6872 -26.64815,41.274 -39.83836,43.7159 -10.13925,1.8771 -21.81909,4.9862 -25.05834,-4.8873 -3.00059,-9.146 16.92834,-18.4201 28.56604,-21.4204 23.41066,-6.0354 40.20503,1.0511 51.73846,8.7693 15.57919,10.4256 37.5586,22.0325 80.60051,19.5723 45.26972,-2.5875 109.14906,-16.518 130.73795,-57.6353" />
    <path
       style="display:inline;mix-blend-mode:normal;fill:none;stroke:#ffffff;stroke-width:20;stroke-linecap:butt;stroke-linejoin:miter;stroke-miterlimit:4;stroke-dasharray:none;stroke-opacity:1"
       d="m 176.18444,1494.1401 c 0,0 -88.564904,-81.5375 -87.692311,-178.0154 1.546623,-171.0015 187.833461,-221.9574 300.784621,-215.723 92.52262,5.1067 159.46845,37.2981 210.60948,73.4522 98.14999,69.3872 132.78013,153.1806 126.12898,235.2247 -7.58755,93.5949 -92.79158,157.0891 -179.36914,178.8607 -114.18376,28.7137 -197.10448,2.2101 -262.60009,-22.7684 0,0 -35.13055,19.5935 -75.41539,26.3077 -57.87691,9.6461 -99.0923,-5.2616 -99.0923,-5.2616 0,0 22.69478,-16.7355 41.21538,-42.9692 20.69082,-29.3078 25.43077,-49.1077 25.43077,-49.1077 z"
       id="path5226"
       sodipodi:nodetypes="cssssscscsc" />
  </g>
</svg>
