<?xml version="1.0" encoding="UTF-8" standalone="no"?>
<!-- Created with Inkscape (http://www.inkscape.org/) -->

<svg
   inkscape:version="1.1.1 (c3084ef, 2021-09-22)"
   sodipodi:docname="logo_fav.svg"
   viewBox="0 0 1063.7352 915.41785"
   height="915.41785"
   width="1063.7352"
   id="svg879"
   version="1.1"
   xmlns:inkscape="http://www.inkscape.org/namespaces/inkscape"
   xmlns:sodipodi="http://sodipodi.sourceforge.net/DTD/sodipodi-0.dtd"
   xmlns="http://www.w3.org/2000/svg"
   xmlns:svg="http://www.w3.org/2000/svg">
  <defs
     id="defs883">
    <inkscape:path-effect
       effect="powerstroke"
       id="path-effect1439"
       is_visible="true"
       lpeversion="1"
       offset_points="0.14669488,7.9380478 | 0.14669488,7.9380478 | 0.21453733,7.9575942 | 1.8162768,3.5052385 | 0.95501767,4.1484184 | 10.501576,3.5898795 | 20.882333,4.5298606 | 20.636317,3.3075663"
       not_jump="false"
       sort_points="true"
       interpolator_type="CentripetalCatmullRom"
       interpolator_beta="0.8"
       start_linecap_type="round"
       linejoin_type="round"
       miter_limit="4"
       scale_width="1"
       end_linecap_type="round" />
    <inkscape:path-effect
       effect="powerstroke"
       id="path-effect5232"
       is_visible="true"
       lpeversion="1"
       offset_points="0.14669488,7.9380478 | 0.14669488,7.9380478 | 0.21453733,7.9575942 | 1.8162768,3.5052385 | 0.95501767,4.1484184 | 10.501576,3.5898795 | 20.882333,4.5298606 | 20.636317,3.3075663"
       not_jump="false"
       sort_points="true"
       interpolator_type="CentripetalCatmullRom"
       interpolator_beta="0.8"
       start_linecap_type="round"
       linejoin_type="round"
       miter_limit="4"
       scale_width="1"
       end_linecap_type="round" />
    <inkscape:path-effect
       effect="powerstroke"
       id="path-effect5197"
       is_visible="true"
       lpeversion="1"
       offset_points="0.14669488,7.9380478 | 0.14669488,7.9380478 | 0.21453733,7.9575942 | 1.8162768,3.5052385 | 0.95501767,4.1484184 | 10.501576,3.5898795 | 20.882333,4.5298606 | 20.636317,3.3075663"
       not_jump="false"
       sort_points="true"
       interpolator_type="CentripetalCatmullRom"
       interpolator_beta="0.8"
       start_linecap_type="round"
       linejoin_type="round"
       miter_limit="4"
       scale_width="1"
       end_linecap_type="round" />
    <inkscape:path-effect
       effect="powerstroke"
       id="path-effect4109"
       is_visible="true"
       lpeversion="1"
       offset_points="0.14669488,7.9380478 | 0.14669488,7.9380478 | 0.21453733,7.9575942 | 1.8162768,3.5052385 | 0.95501767,4.1484184 | 10.501576,3.5898795 | 20.882333,4.5298606 | 20.636317,3.3075663"
       not_jump="false"
       sort_points="true"
       interpolator_type="CentripetalCatmullRom"
       interpolator_beta="0.8"
       start_linecap_type="round"
       linejoin_type="round"
       miter_limit="4"
       scale_width="1"
       end_linecap_type="round" />
    <inkscape:path-effect
       effect="powerstroke"
       id="path-effect4103"
       is_visible="true"
       lpeversion="1"
       offset_points="0.14669488,7.9380478 | 0.14669488,7.9380478 | 0.21453733,7.9575942 | 1.8162768,3.5052385 | 0.95501767,4.1484184 | 10.501576,3.5898795 | 20.882333,4.5298606 | 20.636317,3.3075663"
       not_jump="false"
       sort_points="true"
       interpolator_type="CentripetalCatmullRom"
       interpolator_beta="0.8"
       start_linecap_type="round"
       linejoin_type="round"
       miter_limit="4"
       scale_width="1"
       end_linecap_type="round" />
    <inkscape:path-effect
       effect="powerstroke"
       id="path-effect3833"
       is_visible="true"
       lpeversion="1"
       offset_points="0.14669488,7.9380478 | 0.14669488,7.9380478 | 0.21453733,7.9575942 | 1.8162768,3.5052385 | 0.95501767,4.1484184 | 10.501576,3.5898795 | 20.882333,4.5298606 | 20.636317,3.3075663"
       not_jump="false"
       sort_points="true"
       interpolator_type="CentripetalCatmullRom"
       interpolator_beta="0.8"
       start_linecap_type="round"
       linejoin_type="round"
       miter_limit="4"
       scale_width="1"
       end_linecap_type="round" />
    <inkscape:path-effect
       effect="powerstroke"
       id="path-effect3230"
       is_visible="true"
       lpeversion="1"
       offset_points="0.14669488,7.9380478 | 0.14669488,7.9380478 | 0.21453733,7.9575942 | 1.8162768,3.5052385 | 0.95501767,4.1484184 | 10.501576,3.5898795 | 20.882333,4.5298606 | 20.636317,3.3075663"
       not_jump="false"
       sort_points="true"
       interpolator_type="CentripetalCatmullRom"
       interpolator_beta="0.8"
       start_linecap_type="round"
       linejoin_type="round"
       miter_limit="4"
       scale_width="1"
       end_linecap_type="round" />
    <inkscape:path-effect
       effect="powerstroke"
       id="path-effect3217"
       is_visible="true"
       lpeversion="1"
       offset_points="0.14669488,7.9380478 | 0.14669488,7.9380478 | 0.21453733,7.9575942 | 1.8162768,3.5052385 | 0.95501767,4.1484184 | 10.501576,3.5898795 | 20.882333,4.5298606 | 20.636317,3.3075663"
       not_jump="false"
       sort_points="true"
       interpolator_type="CentripetalCatmullRom"
       interpolator_beta="0.8"
       start_linecap_type="round"
       linejoin_type="round"
       miter_limit="4"
       scale_width="1"
       end_linecap_type="round" />
    <inkscape:path-effect
       effect="powerstroke"
       id="path-effect2770"
       is_visible="true"
       lpeversion="1"
       offset_points="0.14669488,7.9380478 | 0.14669488,7.9380478 | 0.21453733,7.9575942 | 1.8162768,3.5052385 | 0.95501767,4.1484184 | 10.501576,3.5898795 | 20.882333,4.5298606 | 20.636317,3.3075663"
       not_jump="false"
       sort_points="true"
       interpolator_type="CentripetalCatmullRom"
       interpolator_beta="0.8"
       start_linecap_type="round"
       linejoin_type="round"
       miter_limit="4"
       scale_width="1"
       end_linecap_type="round" />
    <inkscape:path-effect
       effect="powerstroke"
       id="path-effect2353"
       is_visible="true"
       lpeversion="1"
       offset_points="0.14669488,7.9380478 | 0.14669488,7.9380478 | 0.21453733,7.9575942 | 1.8162768,3.5052385 | 0.95501767,4.1484184 | 10.501576,3.5898795 | 20.882333,4.5298606 | 20.636317,3.3075663"
       not_jump="false"
       sort_points="true"
       interpolator_type="CentripetalCatmullRom"
       interpolator_beta="0.8"
       start_linecap_type="round"
       linejoin_type="round"
       miter_limit="4"
       scale_width="1"
       end_linecap_type="round" />
  </defs>
  <sodipodi:namedview
     id="namedview881"
     pagecolor="#a19191"
     bordercolor="#666666"
     borderopacity="1.0"
     inkscape:pageshadow="2"
     inkscape:pageopacity="0.79607843"
     inkscape:pagecheckerboard="0"
     showgrid="false"
     inkscape:zoom="0.39342292"
     inkscape:cx="354.58025"
     inkscape:cy="601.13426"
     inkscape:window-width="1440"
     inkscape:window-height="847"
     inkscape:window-x="0"
     inkscape:window-y="25"
     inkscape:window-maximized="0"
     inkscape:current-layer="layer1"
     height="1000px"
     fit-margin-top="0"
     fit-margin-left="0"
     fit-margin-right="0"
     fit-margin-bottom="0" />
  <g
     inkscape:groupmode="layer"
     id="layer1"
     inkscape:label="ombre"
     style="display:inline">
    <g
       id="g1125"
       transform="matrix(1.3728866,0,0,1.3728866,-213.55416,-176.60607)">
      <path
         style="display:inline;mix-blend-mode:normal;fill:#000000;fill-opacity:1;fill-rule:nonzero;stroke:#000000;stroke-width:20;stroke-linecap:butt;stroke-linejoin:miter;stroke-miterlimit:4;stroke-dasharray:none;stroke-opacity:1"
         d="m 172.34203,384.48216 c 1.12933,0.79054 3.40554,2.37299 6.56708,4.4787 3.25039,2.16488 6.0478,3.9582 7.71803,5.0205 0.36639,0.23302 -0.33062,-0.21129 0,0 1.13411,0.72475 3.82921,2.55663 8.04567,5.03079 1.25235,0.73486 2.79317,1.6159 4.5915,2.61804 7.39489,4.12087 21.06516,11.35658 37.29086,18.56618 12.96503,5.76078 27.26294,11.37572 41.66807,15.66327 12.25382,3.64724 23.47566,6.00522 33.67928,7.10732 2.4289,0.26235 4.77138,0.44679 7.03036,0.55807 11.49886,0.53449 20.6427,0.009 28.00447,-1.12169 6.8937,-1.05886 13.50063,-2.83877 19.65402,-5.75947 4.76695,-2.26263 9.25942,-5.19582 13.78558,-9.2249 0.99435,-0.88514 1.97948,-1.81271 2.97026,-2.79213 2.52624,-2.4973 4.81231,-5.0344 7.4512,-7.99975 8.71529,-9.76409 18.24138,-16.62342 28.4972,-20.76869 8.46566,-3.4217 16.36486,-4.58332 23.45838,-4.91811 6.11425,-0.28466 11.84561,1.00433 17.11628,3.54287 5.02476,2.4201 9.57958,5.95492 13.50634,10.19804 3.76022,4.06317 6.86102,8.69007 9.12442,13.31707 1.09692,2.2424 1.98379,4.45856 2.64348,6.56712 0.64979,2.07694 1.06914,4.01777 1.25807,5.74307 0.38396,3.50579 0.20975,6.45658 -0.44819,8.8767 -0.63263,2.32704 -1.7154,4.18297 -3.23851,5.6381 -1.49692,1.43012 -3.54787,2.59506 -6.31766,3.36698 -2.72815,0.76031 -6.12151,1.12887 -10.2648,0.99073 -0.23173,-0.008 -0.33758,-0.0602 -0.40097,-0.0998 -0.0878,-0.0548 -0.22823,-0.16543 -0.42394,-0.4761 -0.20013,-0.3177 -0.42005,-0.80015 -0.61499,-1.5002 -0.19294,-0.69284 -0.34581,-1.54241 -0.44272,-2.55627 -0.19357,-2.0251 -0.14885,-4.54038 0.13897,-7.46395 0.28449,-2.88986 0.79912,-6.10616 1.51305,-9.52796 1.41459,-6.78003 3.5896,-14.25896 6.19365,-21.36203 1.28869,-3.51518 2.67642,-6.9214 4.11727,-10.08143 1.43462,-3.1464 2.91274,-6.02854 4.3854,-8.51702 3.07258,-5.19252 6.28182,-9.55797 9.6045,-12.98138 3.2983,-3.39829 6.64694,-5.80532 10.01983,-7.21209 1.67409,-0.69824 3.36058,-1.15309 5.06496,-1.36221 1.69874,-0.20844 3.44242,-0.17616 5.24059,0.12149 3.58309,0.5931 7.48785,2.25944 11.72041,5.34107 3.61202,2.63078 6.88696,6.50093 9.73294,11.1922 2.83335,4.67046 5.16852,10.03488 6.95246,15.5176 1.78295,5.47969 2.99249,11.00754 3.60694,15.97376 0.30723,2.4832 0.46304,4.80469 0.47193,6.89308 0.009,2.0982 -0.13071,3.91411 -0.39415,5.39863 -0.53306,3.00421 -1.33847,5.94312 -2.39262,8.49175 -0.52724,1.27473 -1.10615,2.4262 -1.72734,3.42774 -0.62416,1.00633 -1.27189,1.83044 -1.926,2.47265 -0.65409,0.64218 -1.29081,1.07963 -1.89832,1.35389 -0.5972,0.26961 -1.21177,0.40317 -1.87666,0.39316 -0.67537,-0.0102 -1.49675,-0.17045 -2.488,-0.60487 -1.00402,-0.44001 -2.17108,-1.15708 -3.4977,-2.25943 -0.29085,-0.24224 -0.53461,-0.54573 -0.73534,-0.94175 -0.20627,-0.40694 -0.38094,-0.94299 -0.48445,-1.62956 -0.10458,-0.69374 -0.13359,-1.51682 -0.0663,-2.47308 0.0673,-0.95687 0.2289,-2.01645 0.48806,-3.16937 0.52215,-2.32289 1.41849,-4.9283 2.63127,-7.69422 1.21721,-2.77603 2.73185,-5.66547 4.45506,-8.5351 3.49183,-5.81487 7.76687,-11.42925 12.05365,-15.8367 2.16665,-2.22764 4.29867,-4.1086 6.30376,-5.55429 2.04098,-1.47157 3.83576,-2.40902 5.31777,-2.8626 2.00625,-0.61422 4.19724,-0.84543 6.54135,-0.6679 2.3709,0.17955 4.90121,0.77789 7.53968,1.82437 5.37817,2.13312 11.09535,6.0847 16.66403,11.89068 0.0354,0.0369 0.0708,0.0739 0.10616,0.11093 10.70038,11.20551 21.59119,30.10465 27.75191,57.8442 2.9479,13.27331 5.24151,29.03515 6.78599,45.51597 1.49913,15.99706 2.27796,32.54127 2.24992,47.59871 -0.0137,7.38178 -0.22174,14.38161 -0.63189,20.73024 -0.40592,6.28304 -1.00776,11.89362 -1.80493,16.57162 -0.39513,2.31869 -0.83434,4.38489 -1.31369,6.1744 -0.47897,1.7881 -0.9846,3.24914 -1.50022,4.38746 -0.25533,0.56369 -0.50286,1.02537 -0.73631,1.39599 -0.23412,0.37169 -0.43718,0.62488 -0.59705,0.79091 -0.15919,0.16532 -0.24945,0.21751 -0.261,0.22562 -0.01,0.007 0.0712,-0.0251 0.15146,-0.0295 -0.15111,0.0143 -0.35845,0.005 -0.64265,-0.0756 -0.28876,-0.0815 -0.65393,-0.23539 -1.09496,-0.50409 -0.89348,-0.54437 -1.9588,-1.47425 -3.14972,-2.87363 -1.17011,-1.37493 -2.3895,-3.11794 -3.62204,-5.20198 -1.22054,-2.06374 -2.43399,-4.42798 -3.60853,-7.04054 -2.32645,-5.17478 -4.47074,-11.25896 -6.19049,-17.75224 -1.69854,-6.41317 -2.97184,-13.18546 -3.59057,-19.7839 a 0.13318016,1.1183373 0.30136639 0 0 -0.0165,-0.14454 c -1.46459,-10.63035 -1.16681,-23.43461 0.61193,-37.20939 1.76121,-13.63906 4.95838,-28.10102 9.22459,-42.07879 4.23783,-13.88475 9.51194,-27.22845 15.41762,-38.70135 2.93996,-5.71145 6.02603,-10.93876 9.20356,-15.52409 3.15687,-4.55552 6.38118,-8.44427 9.61399,-11.53735 0.925,-0.78662 2.15634,-1.40222 3.71482,-1.78768 1.5956,-0.39463 3.48353,-0.53416 5.60078,-0.38586 4.24112,0.29706 9.15671,1.73267 13.96006,4.18636 4.79022,2.44698 9.3454,5.844 12.91433,9.94459 1.78192,2.04738 3.30751,4.2579 4.4974,6.60099 1.19006,2.34339 2.04419,4.81877 2.48712,7.40342 0.5427,3.17854 0.56408,6.12119 0.17983,8.84492 -0.38498,2.72889 -1.18145,5.2683 -2.30029,7.63032 -2.24895,4.7478 -5.81968,8.81552 -10.01322,12.21477 -4.21425,3.41603 -8.99087,6.10243 -13.51271,8.08517 -2.2687,0.99478 -4.4618,1.80745 -6.47375,2.44469 -2.02264,0.64062 -3.84694,1.09915 -5.37141,1.38933 -2.6397,0.505 -5.12987,1.03989 -7.65564,1.44938 -2.5187,0.40834 -4.82027,0.64539 -6.84901,0.56153 -1.01429,-0.0419 -1.92678,-0.16315 -2.73918,-0.36847 -0.81485,-0.20594 -1.51619,-0.49237 -2.12335,-0.86388 -0.60476,-0.37003 -1.13901,-0.83923 -1.60147,-1.43875 -0.46856,-0.60744 -0.88847,-1.38148 -1.22169,-2.37762 -0.11571,-0.34293 -0.17457,-0.67562 -0.18673,-1.00368 -0.0123,-0.33075 0.0223,-0.67625 0.10957,-1.04141 0.17762,-0.7431 0.57644,-1.57596 1.24408,-2.4884 0.67264,-0.91927 1.57952,-1.86635 2.69401,-2.8212 1.12264,-0.96184 2.42632,-1.90638 3.85664,-2.81734 2.91214,-1.85474 6.28018,-3.52701 9.59711,-4.91124 3.40411,-1.42061 6.721,-2.5248 9.4677,-3.23898 11.65446,-3.01718 21.32547,-2.59764 29.19128,-0.77942 8.50102,1.96504 15.36431,5.68241 20.62197,9.21598 8.63367,5.7953 18.07677,11.14023 30.61399,14.98845 14.75183,4.528 31.70221,6.28263 51.46471,5.22956 29.82739,-1.59468 55.72177,-7.18401 75.15356,-14.13111 8.00032,-2.86021 14.44953,-5.7671 19.57526,-8.37514 6.46058,-3.28724 11.41535,-6.38309 14.90681,-8.74356 6.3602,-4.29993 11.24096,-8.39389 15.07667,-12.61452 5.1493,-5.66603 8.1644,-11.0163 9.88597,-14.29513 a 4.5298641,4.5298641 90 0 0 -8.02128,-4.21162 c -1.54343,2.93957 -4.24621,7.29489 -8.6706,12.52689 -3.12584,3.69642 -7.28004,8.21574 -12.70589,12.53948 -3.08718,2.4601 -7.48851,5.60367 -13.56559,8.95143 -4.78784,2.63755 -10.91086,5.58082 -18.59051,8.48649 -18.68685,7.07037 -43.99572,12.81895 -73.34504,14.60685 -19.28426,1.17879 -35.63946,-0.43883 -49.73284,-4.67839 -11.95211,-3.59543 -20.98646,-8.64245 -29.38948,-14.2482 -5.5726,-3.7141 -12.97465,-7.7304 -22.20858,-9.86852 -8.58033,-1.98678 -19.02642,-2.42505 -31.45505,0.76647 -2.98395,0.76327 -6.51901,1.92816 -10.12246,3.4141 -3.50535,1.44548 -7.14187,3.22293 -10.35753,5.24682 -1.58336,0.99655 -3.08675,2.06675 -4.42805,3.20096 -1.324,1.11958 -2.52339,2.32954 -3.48659,3.62319 -0.95255,1.27935 -1.71486,2.69547 -2.10071,4.23208 -0.19261,0.76706 -0.29055,1.56157 -0.27072,2.37547 0.0198,0.81158 0.15623,1.62325 0.41632,2.42594 0.47346,1.46275 1.12479,2.75354 1.96007,3.86591 0.83116,1.1069 1.81814,2.00179 2.92896,2.7037 1.09816,0.69391 2.28764,1.18075 3.52181,1.51064 1.22294,0.32689 2.49707,0.50174 3.78683,0.57128 2.54292,0.13712 5.24937,-0.13079 7.90964,-0.53068 2.62463,-0.39453 5.33165,-0.93939 7.81905,-1.38406 1.76575,-0.31899 3.8037,-0.81781 6.00786,-1.49848 2.1976,-0.67864 4.57783,-1.54346 7.03392,-2.60203 4.87551,-2.10135 10.11768,-4.99568 14.82007,-8.76222 4.6745,-3.74419 8.89472,-8.41465 11.62884,-14.0996 1.36515,-2.83849 2.35543,-5.92185 2.84409,-9.25016 0.488,-3.3238 0.47134,-6.86221 -0.14963,-10.61014 -0.52947,-3.20316 -1.56245,-6.23443 -2.97602,-9.05988 -1.41147,-2.82126 -3.20176,-5.43638 -5.25082,-7.81913 -4.08936,-4.7553 -9.24561,-8.62804 -14.61376,-11.41166 -5.35982,-2.77929 -11.04597,-4.53209 -16.23781,-4.93442 -2.60505,-0.20187 -5.14537,-0.0682 -7.48461,0.48842 -2.3468,0.55841 -4.53902,1.55518 -6.35817,3.10759 a 0.12650848,1.0272963 40.865864 0 0 -0.11417,0.10321 c -3.63727,3.44518 -7.15873,7.68331 -10.52245,12.50647 -3.3737,4.83747 -6.61183,10.29666 -9.66823,16.19656 -6.13553,11.84366 -11.5757,25.53402 -15.9378,39.71062 -4.39259,14.27568 -7.70444,29.08244 -9.54887,43.10859 -1.85343,14.09467 -2.23674,27.4816 -0.71292,38.85273 0.6263,6.98335 1.93681,14.09864 3.68236,20.80968 1.77223,6.81365 4.00438,13.25666 6.46964,18.81265 1.24604,2.80822 2.5592,5.40715 3.91488,7.72846 1.36302,2.33389 2.78822,4.42027 4.25705,6.16982 1.46936,1.75018 3.05669,3.25261 4.7553,4.30996 0.86322,0.53734 1.78648,0.97932 2.76417,1.26987 0.98817,0.29366 2.02955,0.43148 3.09917,0.35459 0.92523,-0.0677 1.78523,-0.33401 2.55985,-0.74092 0.76613,-0.40246 1.42504,-0.92918 1.98918,-1.50494 0.56482,-0.57647 1.05921,-1.22702 1.49569,-1.91188 0.43877,-0.68844 0.83643,-1.43895 1.19954,-2.23187 0.72585,-1.58506 1.35408,-3.42877 1.90344,-5.45579 0.55424,-2.04504 1.04224,-4.3292 1.47012,-6.80549 0.862,-4.98875 1.49659,-10.85452 1.92328,-17.29413 0.43205,-6.52048 0.65362,-13.66969 0.67743,-21.17024 0.0485,-15.29442 -0.72372,-32.065 -2.22663,-48.27487 -1.54715,-16.68706 -3.86405,-32.75837 -6.88171,-46.40183 -6.36417,-28.7732 -17.76353,-48.93506 -29.52673,-61.25793 -0.039,-0.0408 -0.078,-0.0816 -0.11704,-0.12234 -6.10855,-6.3711 -12.65563,-11.00217 -19.19872,-13.59685 -3.2237,-1.27837 -6.46346,-2.06823 -9.64584,-2.30851 -3.1554,-0.23824 -6.24983,0.0648 -9.18548,0.96489 -2.48403,0.76168 -4.99079,2.1595 -7.41223,3.90727 -2.41963,1.74646 -4.86491,3.92311 -7.24723,6.37511 -4.7055,4.84312 -9.30647,10.90804 -13.04996,17.15153 -1.85498,3.09379 -3.51349,6.25538 -4.86703,9.34927 -1.34189,3.06726 -2.40607,6.11823 -3.05063,9.00054 -0.3217,1.43854 -0.54427,2.85894 -0.63932,4.23594 -0.0947,1.37124 -0.065,2.73066 0.13461,4.03961 0.19993,1.31094 0.57307,2.59367 1.18412,3.79211 0.61456,1.2053 1.45433,2.29101 2.54036,3.19055 1.72794,1.4308 3.45992,2.53823 5.20029,3.2956 1.74123,0.75775 3.49728,1.16716 5.24477,1.18675 1.74858,0.0196 3.39265,-0.35267 4.90013,-1.04078 1.48992,-0.68009 2.79621,-1.64483 3.9319,-2.76778 1.13011,-1.11743 2.11302,-2.41255 2.96686,-3.79883 0.85285,-1.38468 1.59528,-2.89012 2.23754,-4.4558 1.27768,-3.11464 2.19758,-6.56226 2.79036,-9.95989 0.34962,-2.00136 0.50144,-4.2531 0.48612,-6.65314 -0.0153,-2.40478 -0.19889,-5.00535 -0.53999,-7.72102 -0.68107,-5.42217 -2.00039,-11.38338 -3.92641,-17.2693 -1.92507,-5.88304 -4.47596,-11.75108 -7.64831,-16.95955 -3.16892,-5.20284 -7.02492,-9.85727 -11.60086,-13.17568 -4.90955,-3.56075 -9.80356,-5.74572 -14.66652,-6.53837 -2.43803,-0.3974 -4.84131,-0.43991 -7.19922,-0.14442 -2.36292,0.29613 -4.65266,0.92817 -6.86277,1.85641 -4.43259,1.86167 -8.51647,4.90136 -12.27064,8.78479 -3.78414,3.91445 -7.29542,8.75008 -10.55099,14.27167 -1.61678,2.74218 -3.19939,5.84793 -4.70546,9.16294 -1.51533,3.33539 -2.96296,6.90417 -4.29968,10.56436 -2.69553,7.38079 -4.95692,15.17785 -6.43632,22.3133 -0.74735,3.60461 -1.30044,7.06504 -1.60891,10.24486 -0.30949,3.19034 -0.37971,6.16664 -0.12692,8.76116 0.12753,1.3089 0.34096,2.56056 0.66584,3.71697 0.32494,1.15665 0.77758,2.27609 1.41215,3.27548 0.64354,1.01351 1.49129,1.92853 2.58998,2.59845 1.11638,0.68071 2.36281,1.0288 3.66795,1.07014 4.63218,0.14631 8.73311,-0.26003 12.27529,-1.25511 3.63061,-1.01992 6.70086,-2.66727 9.11441,-4.98303 2.48076,-2.38025 4.1299,-5.33504 5.03918,-8.6991 0.92634,-3.42716 1.07878,-7.24719 0.62875,-11.33066 -0.24507,-2.22411 -0.76949,-4.588 -1.52358,-6.99527 -0.76832,-2.4527 -1.78383,-4.9789 -3.01559,-7.49617 -2.5356,-5.18184 -5.99572,-10.3467 -10.20825,-14.90127 -4.40181,-4.75921 -9.60668,-8.8356 -15.48302,-11.67137 -6.19648,-2.99025 -13.01483,-4.54189 -20.29453,-4.21194 -7.60959,0.33985 -16.29364,1.57173 -25.65887,5.31468 -11.35391,4.53777 -21.74462,12.00706 -31.12398,22.39451 -2.65672,2.93224 -4.84535,5.30509 -7.21793,7.59202 -0.92624,0.89281 -1.83361,1.72812 -2.73815,2.5181 -4.08205,3.56505 -8.02156,6.11608 -12.16953,8.07828 -5.38782,2.54872 -11.27513,4.15237 -17.6516,5.03488 -6.84667,0.94759 -15.3558,1.21683 -26.42452,0.25379 -2.08653,-0.17683 -4.25852,-0.42834 -6.51924,-0.76049 -9.48538,-1.39363 -20.06659,-4.20378 -31.58702,-8.39111 -13.57045,-4.93245 -27.0228,-11.25783 -39.19648,-17.70004 -15.33518,-8.11525 -27.86576,-16.00803 -34.88588,-20.47283 -1.6889,-1.07414 -3.12961,-1.99563 -4.32244,-2.75078 -2.70366,-1.71163 -5.1032,-3.12446 -7.80686,-4.83608 -0.31987,-0.20245 0.35355,0.22485 0,0 -1.617,-1.02844 -4.31319,-2.75699 -7.43748,-4.83788 -3.03108,-2.0188 -5.20184,-3.52822 -6.26342,-4.27132 a 7.9380478,7.9380478 90 0 0 -9.10434,13.0062 z"
         id="path1435"
         sodipodi:nodetypes="cssssssssssssccssssssc"
         inkscape:path-effect="#path-effect1439"
         inkscape:original-d="m 176.8942,377.97906 c 26.30769,18.4154 92.82966,58.2515 142.30483,61.5317 43.27667,2.8693 56.02494,-10.6999 69.03363,-25.1875 20.25892,-22.5619 41.11292,-26.0897 54.36923,-26.698 27.47316,-1.2607 45.36479,26.6523 47.08677,42.3221 1.69259,15.4023 -6.27763,23.1337 -23.66339,22.5702 -12.31768,-0.3992 -0.67444,-45.7738 11.65354,-66.6462 12.7125,-21.5234 28.34867,-30.4226 46.6002,-17.1616 16.39265,11.9104 24.25355,44.424 21.7998,58.377 -2.24694,12.7771 -9.29428,25.5625 -21.53925,15.4078 -11.00184,-9.1238 15.25498,-49.9879 31.18541,-54.8693 19.67613,-6.0292 50.97782,18.7922 63.13846,73.6615 12.10375,54.6126 12.38322,146.5837 -0.88392,147.5767 -9.78543,0.7323 -22.95137,-29.3115 -25.42377,-56.3767 -6.02729,-44.2284 17.72712,-121.6162 45.25172,-147.7769 11.01082,-9.4652 44.18743,4.6059 48.07894,27.7687 4.65164,27.6872 -26.64815,41.274 -39.83836,43.7159 -10.13925,1.8771 -21.81909,4.9862 -25.05834,-4.8873 -3.00059,-9.146 16.92834,-18.4201 28.56604,-21.4204 23.41066,-6.0354 40.20503,1.0511 51.73846,8.7693 15.57919,10.4256 37.5586,22.0325 80.60051,19.5723 45.26972,-2.5875 109.14906,-16.518 130.73795,-57.6353" />
      <path
         style="display:inline;mix-blend-mode:normal;fill:none;stroke:#000000;stroke-width:30;stroke-linecap:butt;stroke-linejoin:miter;stroke-miterlimit:4;stroke-dasharray:none;stroke-opacity:1"
         d="m 319.83266,597.20986 c 0,0 -88.5649,-81.5375 -87.69231,-178.0154 1.54662,-171.0015 187.83346,-221.9574 300.78462,-215.723 92.52262,5.1067 159.46845,37.2981 210.60948,73.4522 98.14999,69.3872 132.78013,153.1806 126.12898,235.2247 -7.58755,93.5949 -92.79158,157.0891 -179.36914,178.8607 -114.18376,28.7137 -197.10448,2.2101 -262.60009,-22.7684 0,0 -35.13055,19.5935 -75.41539,26.3077 -57.87691,9.6461 -99.0923,-5.2616 -99.0923,-5.2616 0,0 22.69478,-16.7355 41.21538,-42.9692 20.69082,-29.3078 25.43077,-49.1077 25.43077,-49.1077 z"
         id="path1441"
         sodipodi:nodetypes="cssssscscsc" />
    </g>
  </g>
</svg>
