<?xml version="1.0" encoding="UTF-8" standalone="no"?>
<!-- Created with Inkscape (http://www.inkscape.org/) -->

<svg
   inkscape:version="1.1.1 (c3084ef, 2021-09-22)"
   sodipodi:docname="logo_vec_decoupe.svg"
   viewBox="0 0 1063.7352 915.41785"
   height="915.41785"
   width="1063.7352"
   id="svg879"
   version="1.1"
   xmlns:inkscape="http://www.inkscape.org/namespaces/inkscape"
   xmlns:sodipodi="http://sodipodi.sourceforge.net/DTD/sodipodi-0.dtd"
   xmlns:xlink="http://www.w3.org/1999/xlink"
   xmlns="http://www.w3.org/2000/svg"
   xmlns:svg="http://www.w3.org/2000/svg">
  <defs
     id="defs883">
    <inkscape:path-effect
       effect="powerstroke"
       id="path-effect3704"
       is_visible="true"
       lpeversion="1"
       offset_points="0.14669488,7.9380478 | 0.14669488,7.9380478 | 0.21453733,7.9575942 | 1.8162768,3.5052385 | 0.95501767,4.1484184 | 10.501576,3.5898795 | 20.882333,4.5298606 | 20.636317,3.3075663"
       not_jump="false"
       sort_points="true"
       interpolator_type="CentripetalCatmullRom"
       interpolator_beta="0.8"
       start_linecap_type="round"
       linejoin_type="round"
       miter_limit="4"
       scale_width="1"
       end_linecap_type="round" />
    <inkscape:path-effect
       effect="powerstroke"
       id="path-effect1699"
       is_visible="true"
       lpeversion="1"
       offset_points="0.14669488,7.9380478 | 0.14669488,7.9380478 | 0.21453733,7.9575942 | 1.8162768,3.5052385 | 0.95501767,4.1484184 | 10.501576,3.5898795 | 20.882333,4.5298606 | 20.636317,3.3075663"
       not_jump="false"
       sort_points="true"
       interpolator_type="CentripetalCatmullRom"
       interpolator_beta="0.8"
       start_linecap_type="round"
       linejoin_type="round"
       miter_limit="4"
       scale_width="1"
       end_linecap_type="round" />
    <inkscape:path-effect
       effect="powerstroke"
       id="path-effect1439"
       is_visible="true"
       lpeversion="1"
       offset_points="0.14669488,7.9380478 | 0.14669488,7.9380478 | 0.21453733,7.9575942 | 1.8162768,3.5052385 | 0.95501767,4.1484184 | 10.501576,3.5898795 | 20.882333,4.5298606 | 20.636317,3.3075663"
       not_jump="false"
       sort_points="true"
       interpolator_type="CentripetalCatmullRom"
       interpolator_beta="0.8"
       start_linecap_type="round"
       linejoin_type="round"
       miter_limit="4"
       scale_width="1"
       end_linecap_type="round" />
    <linearGradient
       inkscape:collect="always"
       id="linearGradient5964">
      <stop
         style="stop-color:#ff6fbe;stop-opacity:1;"
         offset="0"
         id="stop5960" />
      <stop
         style="stop-color:#ff6fbe;stop-opacity:0;"
         offset="1"
         id="stop5962" />
    </linearGradient>
    <inkscape:path-effect
       effect="powerstroke"
       id="path-effect5232"
       is_visible="true"
       lpeversion="1"
       offset_points="0.14669488,7.9380478 | 0.14669488,7.9380478 | 0.21453733,7.9575942 | 1.8162768,3.5052385 | 0.95501767,4.1484184 | 10.501576,3.5898795 | 20.882333,4.5298606 | 20.636317,3.3075663"
       not_jump="false"
       sort_points="true"
       interpolator_type="CentripetalCatmullRom"
       interpolator_beta="0.8"
       start_linecap_type="round"
       linejoin_type="round"
       miter_limit="4"
       scale_width="1"
       end_linecap_type="round" />
    <inkscape:path-effect
       effect="powerstroke"
       id="path-effect5197"
       is_visible="true"
       lpeversion="1"
       offset_points="0.14669488,7.9380478 | 0.14669488,7.9380478 | 0.21453733,7.9575942 | 1.8162768,3.5052385 | 0.95501767,4.1484184 | 10.501576,3.5898795 | 20.882333,4.5298606 | 20.636317,3.3075663"
       not_jump="false"
       sort_points="true"
       interpolator_type="CentripetalCatmullRom"
       interpolator_beta="0.8"
       start_linecap_type="round"
       linejoin_type="round"
       miter_limit="4"
       scale_width="1"
       end_linecap_type="round" />
    <inkscape:path-effect
       effect="powerstroke"
       id="path-effect4109"
       is_visible="true"
       lpeversion="1"
       offset_points="0.14669488,7.9380478 | 0.14669488,7.9380478 | 0.21453733,7.9575942 | 1.8162768,3.5052385 | 0.95501767,4.1484184 | 10.501576,3.5898795 | 20.882333,4.5298606 | 20.636317,3.3075663"
       not_jump="false"
       sort_points="true"
       interpolator_type="CentripetalCatmullRom"
       interpolator_beta="0.8"
       start_linecap_type="round"
       linejoin_type="round"
       miter_limit="4"
       scale_width="1"
       end_linecap_type="round" />
    <inkscape:path-effect
       effect="powerstroke"
       id="path-effect4103"
       is_visible="true"
       lpeversion="1"
       offset_points="0.14669488,7.9380478 | 0.14669488,7.9380478 | 0.21453733,7.9575942 | 1.8162768,3.5052385 | 0.95501767,4.1484184 | 10.501576,3.5898795 | 20.882333,4.5298606 | 20.636317,3.3075663"
       not_jump="false"
       sort_points="true"
       interpolator_type="CentripetalCatmullRom"
       interpolator_beta="0.8"
       start_linecap_type="round"
       linejoin_type="round"
       miter_limit="4"
       scale_width="1"
       end_linecap_type="round" />
    <inkscape:path-effect
       effect="powerstroke"
       id="path-effect3833"
       is_visible="true"
       lpeversion="1"
       offset_points="0.14669488,7.9380478 | 0.14669488,7.9380478 | 0.21453733,7.9575942 | 1.8162768,3.5052385 | 0.95501767,4.1484184 | 10.501576,3.5898795 | 20.882333,4.5298606 | 20.636317,3.3075663"
       not_jump="false"
       sort_points="true"
       interpolator_type="CentripetalCatmullRom"
       interpolator_beta="0.8"
       start_linecap_type="round"
       linejoin_type="round"
       miter_limit="4"
       scale_width="1"
       end_linecap_type="round" />
    <inkscape:path-effect
       effect="powerstroke"
       id="path-effect3230"
       is_visible="true"
       lpeversion="1"
       offset_points="0.14669488,7.9380478 | 0.14669488,7.9380478 | 0.21453733,7.9575942 | 1.8162768,3.5052385 | 0.95501767,4.1484184 | 10.501576,3.5898795 | 20.882333,4.5298606 | 20.636317,3.3075663"
       not_jump="false"
       sort_points="true"
       interpolator_type="CentripetalCatmullRom"
       interpolator_beta="0.8"
       start_linecap_type="round"
       linejoin_type="round"
       miter_limit="4"
       scale_width="1"
       end_linecap_type="round" />
    <inkscape:path-effect
       effect="powerstroke"
       id="path-effect3217"
       is_visible="true"
       lpeversion="1"
       offset_points="0.14669488,7.9380478 | 0.14669488,7.9380478 | 0.21453733,7.9575942 | 1.8162768,3.5052385 | 0.95501767,4.1484184 | 10.501576,3.5898795 | 20.882333,4.5298606 | 20.636317,3.3075663"
       not_jump="false"
       sort_points="true"
       interpolator_type="CentripetalCatmullRom"
       interpolator_beta="0.8"
       start_linecap_type="round"
       linejoin_type="round"
       miter_limit="4"
       scale_width="1"
       end_linecap_type="round" />
    <inkscape:path-effect
       effect="powerstroke"
       id="path-effect2770"
       is_visible="true"
       lpeversion="1"
       offset_points="0.14669488,7.9380478 | 0.14669488,7.9380478 | 0.21453733,7.9575942 | 1.8162768,3.5052385 | 0.95501767,4.1484184 | 10.501576,3.5898795 | 20.882333,4.5298606 | 20.636317,3.3075663"
       not_jump="false"
       sort_points="true"
       interpolator_type="CentripetalCatmullRom"
       interpolator_beta="0.8"
       start_linecap_type="round"
       linejoin_type="round"
       miter_limit="4"
       scale_width="1"
       end_linecap_type="round" />
    <inkscape:path-effect
       effect="powerstroke"
       id="path-effect2353"
       is_visible="true"
       lpeversion="1"
       offset_points="0.14669488,7.9380478 | 0.14669488,7.9380478 | 0.21453733,7.9575942 | 1.8162768,3.5052385 | 0.95501767,4.1484184 | 10.501576,3.5898795 | 20.882333,4.5298606 | 20.636317,3.3075663"
       not_jump="false"
       sort_points="true"
       interpolator_type="CentripetalCatmullRom"
       interpolator_beta="0.8"
       start_linecap_type="round"
       linejoin_type="round"
       miter_limit="4"
       scale_width="1"
       end_linecap_type="round" />
    <filter
       inkscape:collect="always"
       style="color-interpolation-filters:sRGB"
       id="filter5245"
       x="-0.068564382"
       y="-0.12430215"
       width="1.1371287"
       height="1.2485719">
      <feGaussianBlur
         inkscape:collect="always"
         stdDeviation="15.779909"
         id="feGaussianBlur5247" />
    </filter>
    <filter
       inkscape:collect="always"
       style="color-interpolation-filters:sRGB"
       id="filter5249"
       x="-0.039226378"
       y="-0.080449041"
       width="1.0784527"
       height="1.1608657">
      <feGaussianBlur
         inkscape:collect="always"
         stdDeviation="6.6337263"
         id="feGaussianBlur5251" />
    </filter>
    <filter
       inkscape:collect="always"
       style="color-interpolation-filters:sRGB"
       id="filter5253"
       x="-0.017947513"
       y="-0.048642077"
       width="1.035895"
       height="1.0972518">
      <feGaussianBlur
         inkscape:collect="always"
         stdDeviation="0.5221976"
         id="feGaussianBlur5255" />
    </filter>
    <radialGradient
       inkscape:collect="always"
       xlink:href="#linearGradient5964"
       id="radialGradient5966"
       cx="394.10056"
       cy="1366.6392"
       fx="394.10056"
       fy="1366.6392"
       r="514.91705"
       gradientTransform="matrix(1.1675188,0,0,0.99584073,-66.748736,15.17845)"
       gradientUnits="userSpaceOnUse" />
    <filter
       inkscape:collect="always"
       style="color-interpolation-filters:sRGB"
       id="filter3920"
       x="-0.11364483"
       y="-0.16554214"
       width="1.2272896"
       height="1.3340217">
      <feGaussianBlur
         inkscape:collect="always"
         stdDeviation="29.83376"
         id="feGaussianBlur3922" />
    </filter>
    <filter
       inkscape:collect="always"
       style="color-interpolation-filters:sRGB"
       id="filter4032"
       x="-0.034440056"
       y="-0.040020086"
       width="1.0688801"
       height="1.0800402">
      <feGaussianBlur
         inkscape:collect="always"
         stdDeviation="15.264626"
         id="feGaussianBlur4034" />
    </filter>
  </defs>
  <sodipodi:namedview
     id="namedview881"
     pagecolor="#a19191"
     bordercolor="#666666"
     borderopacity="1.0"
     inkscape:pageshadow="2"
     inkscape:pageopacity="0.79607843"
     inkscape:pagecheckerboard="0"
     showgrid="false"
     inkscape:zoom="0.52663646"
     inkscape:cx="369.32498"
     inkscape:cy="462.36829"
     inkscape:window-width="1440"
     inkscape:window-height="847"
     inkscape:window-x="0"
     inkscape:window-y="25"
     inkscape:window-maximized="0"
     inkscape:current-layer="layer10"
     height="1000px"
     fit-margin-top="0"
     fit-margin-left="0"
     fit-margin-right="0"
     fit-margin-bottom="0" />
  <g
     inkscape:groupmode="layer"
     id="layer10"
     inkscape:label="back"
     style="display:inline;opacity:0.88992974;filter:url(#filter4032)"
     transform="translate(135.64822,-908.93024)">
    <ellipse
       style="opacity:0.751181;fill:url(#radialGradient5966);fill-opacity:1;stroke:none;stroke-width:28.7416;stroke-miterlimit:4;stroke-dasharray:none;stroke-opacity:1"
       id="path5682"
       cx="393.37112"
       cy="1376.1334"
       rx="601.17535"
       ry="512.77533" />
  </g>
  <g
     inkscape:groupmode="layer"
     id="layer1"
     inkscape:label="ombre"
     style="display:inline"
     sodipodi:insensitive="true">
    <g
       id="g3918"
       transform="translate(6,6)">
      <path
         style="display:inline;opacity:1;mix-blend-mode:normal;fill:#000000;fill-opacity:1;fill-rule:nonzero;stroke:#000000;stroke-width:10;stroke-linecap:butt;stroke-linejoin:miter;stroke-miterlimit:4;stroke-dasharray:none;stroke-opacity:1;filter:url(#filter5253)"
         d="m 164.34203,389.01955 c 1.12933,0.79054 3.40554,2.37299 6.56708,4.4787 3.25039,2.16488 6.0478,3.9582 7.71803,5.0205 0.36639,0.23302 -0.33062,-0.21129 0,0 1.13411,0.72475 3.82921,2.55663 8.04567,5.03079 1.25235,0.73486 2.79317,1.6159 4.5915,2.61804 7.39489,4.12087 21.06516,11.35658 37.29086,18.56618 12.96503,5.76078 27.26294,11.37572 41.66807,15.66327 12.25382,3.64724 23.47566,6.00522 33.67928,7.10732 2.4289,0.26235 4.77138,0.44679 7.03036,0.55807 11.49886,0.53449 20.6427,0.009 28.00447,-1.12169 6.8937,-1.05886 13.50063,-2.83877 19.65402,-5.75947 4.76695,-2.26263 9.25942,-5.19582 13.78558,-9.2249 0.99435,-0.88514 1.97948,-1.81271 2.97026,-2.79213 2.52624,-2.4973 4.81231,-5.0344 7.4512,-7.99975 8.71529,-9.76409 18.24138,-16.62342 28.4972,-20.76869 8.46566,-3.4217 16.36486,-4.58332 23.45838,-4.91811 6.11425,-0.28466 11.84561,1.00433 17.11628,3.54287 5.02476,2.4201 9.57958,5.95492 13.50634,10.19804 3.76022,4.06317 6.86102,8.69007 9.12442,13.31707 1.09692,2.2424 1.98379,4.45856 2.64348,6.56712 0.64979,2.07694 1.06914,4.01777 1.25807,5.74307 0.38396,3.50579 0.20975,6.45658 -0.44819,8.8767 -0.63263,2.32704 -1.7154,4.18297 -3.23851,5.6381 -1.49692,1.43012 -3.54787,2.59506 -6.31766,3.36698 -2.72815,0.76031 -6.12151,1.12887 -10.2648,0.99073 -0.23173,-0.008 -0.33758,-0.0602 -0.40097,-0.0998 -0.0878,-0.0548 -0.22823,-0.16543 -0.42394,-0.4761 -0.20013,-0.3177 -0.42005,-0.80015 -0.61499,-1.5002 -0.19294,-0.69284 -0.34581,-1.54241 -0.44272,-2.55627 -0.19357,-2.0251 -0.14885,-4.54038 0.13897,-7.46395 0.28449,-2.88986 0.79912,-6.10616 1.51305,-9.52796 1.41459,-6.78003 3.5896,-14.25896 6.19365,-21.36203 1.28869,-3.51518 2.67642,-6.9214 4.11727,-10.08143 1.43462,-3.1464 2.91274,-6.02854 4.3854,-8.51702 3.07258,-5.19252 6.28182,-9.55797 9.6045,-12.98138 3.2983,-3.39829 6.64694,-5.80532 10.01983,-7.21209 1.67409,-0.69824 3.36058,-1.15309 5.06496,-1.36221 1.69874,-0.20844 3.44242,-0.17616 5.24059,0.12149 3.58309,0.5931 7.48785,2.25944 11.72041,5.34107 3.61202,2.63078 6.88696,6.50093 9.73294,11.1922 2.83335,4.67046 5.16852,10.03488 6.95246,15.5176 1.78295,5.47969 2.99249,11.00754 3.60694,15.97376 0.30723,2.4832 0.46304,4.80469 0.47193,6.89308 0.009,2.0982 -0.13071,3.91411 -0.39415,5.39863 -0.53306,3.00421 -1.33847,5.94312 -2.39262,8.49175 -0.52724,1.27473 -1.10615,2.4262 -1.72734,3.42774 -0.62416,1.00633 -1.27189,1.83044 -1.926,2.47265 -0.65409,0.64218 -1.29081,1.07963 -1.89832,1.35389 -0.5972,0.26961 -1.21177,0.40317 -1.87666,0.39316 -0.67537,-0.0102 -1.49675,-0.17045 -2.488,-0.60487 -1.00402,-0.44001 -2.17108,-1.15708 -3.4977,-2.25943 -0.29085,-0.24224 -0.53461,-0.54573 -0.73534,-0.94175 -0.20627,-0.40694 -0.38094,-0.94299 -0.48445,-1.62956 -0.10458,-0.69374 -0.13359,-1.51682 -0.0663,-2.47308 0.0673,-0.95687 0.2289,-2.01645 0.48806,-3.16937 0.52215,-2.32289 1.41849,-4.9283 2.63127,-7.69422 1.21721,-2.77603 2.73185,-5.66547 4.45506,-8.5351 3.49183,-5.81487 7.76687,-11.42925 12.05365,-15.8367 2.16665,-2.22764 4.29867,-4.1086 6.30376,-5.55429 2.04098,-1.47157 3.83576,-2.40902 5.31777,-2.8626 2.00625,-0.61422 4.19724,-0.84543 6.54135,-0.6679 2.3709,0.17955 4.90121,0.77789 7.53968,1.82437 5.37817,2.13312 11.09535,6.0847 16.66403,11.89068 0.0354,0.0369 0.0708,0.0739 0.10616,0.11093 10.70038,11.20551 21.59119,30.10465 27.75191,57.8442 2.9479,13.27331 5.24151,29.03515 6.78599,45.51597 1.49913,15.99706 2.27796,32.54127 2.24992,47.59871 -0.0137,7.38178 -0.22174,14.38161 -0.63189,20.73024 -0.40592,6.28304 -1.00776,11.89362 -1.80493,16.57162 -0.39513,2.31869 -0.83434,4.38489 -1.31369,6.1744 -0.47897,1.7881 -0.9846,3.24914 -1.50022,4.38746 -0.25533,0.56369 -0.50286,1.02537 -0.73631,1.39599 -0.23412,0.37169 -0.43718,0.62488 -0.59705,0.79091 -0.15919,0.16532 -0.24945,0.21751 -0.261,0.22562 -0.01,0.007 0.0712,-0.0251 0.15146,-0.0295 -0.15111,0.0143 -0.35845,0.005 -0.64265,-0.0756 -0.28876,-0.0815 -0.65393,-0.23539 -1.09496,-0.50409 -0.89348,-0.54437 -1.9588,-1.47425 -3.14972,-2.87363 -1.17011,-1.37493 -2.3895,-3.11794 -3.62204,-5.20198 -1.22054,-2.06374 -2.43399,-4.42798 -3.60853,-7.04054 -2.32645,-5.17478 -4.47074,-11.25896 -6.19049,-17.75224 -1.69854,-6.41317 -2.97184,-13.18546 -3.59057,-19.7839 a 0.13318018,1.1183375 0.30136639 0 0 -0.0165,-0.14454 c -1.46459,-10.63035 -1.16681,-23.43461 0.61193,-37.20939 1.76121,-13.63906 4.95838,-28.10102 9.22459,-42.07879 4.23783,-13.88475 9.51194,-27.22845 15.41762,-38.70135 2.93996,-5.71145 6.02603,-10.93876 9.20356,-15.52409 3.15687,-4.55552 6.38118,-8.44427 9.61399,-11.53735 0.925,-0.78662 2.15634,-1.40222 3.71482,-1.78768 1.5956,-0.39463 3.48353,-0.53416 5.60078,-0.38586 4.24112,0.29706 9.15671,1.73267 13.96006,4.18636 4.79022,2.44698 9.3454,5.844 12.91433,9.94459 1.78192,2.04738 3.30751,4.2579 4.4974,6.60099 1.19006,2.34339 2.04419,4.81877 2.48712,7.40342 0.5427,3.17854 0.56408,6.12119 0.17983,8.84492 -0.38498,2.72889 -1.18145,5.2683 -2.30029,7.63032 -2.24895,4.7478 -5.81968,8.81552 -10.01322,12.21477 -4.21425,3.41603 -8.99087,6.10243 -13.51271,8.08517 -2.2687,0.99478 -4.4618,1.80745 -6.47375,2.44469 -2.02264,0.64062 -3.84694,1.09915 -5.37141,1.38933 -2.6397,0.505 -5.12987,1.03989 -7.65564,1.44938 -2.5187,0.40834 -4.82027,0.64539 -6.84901,0.56153 -1.01429,-0.0419 -1.92678,-0.16315 -2.73918,-0.36847 -0.81485,-0.20594 -1.51619,-0.49237 -2.12335,-0.86388 -0.60476,-0.37003 -1.13901,-0.83923 -1.60147,-1.43875 -0.46856,-0.60744 -0.88847,-1.38148 -1.22169,-2.37762 -0.11571,-0.34293 -0.17457,-0.67562 -0.18673,-1.00368 -0.0123,-0.33075 0.0223,-0.67625 0.10957,-1.04141 0.17762,-0.7431 0.57644,-1.57596 1.24408,-2.4884 0.67264,-0.91927 1.57952,-1.86635 2.69401,-2.8212 1.12264,-0.96184 2.42632,-1.90638 3.85664,-2.81734 2.91214,-1.85474 6.28018,-3.52701 9.59711,-4.91124 3.40411,-1.42061 6.721,-2.5248 9.4677,-3.23898 11.65446,-3.01718 21.32547,-2.59764 29.19128,-0.77942 8.50102,1.96504 15.36431,5.68241 20.62197,9.21598 8.63367,5.7953 18.07677,11.14023 30.61399,14.98845 14.75183,4.528 31.70221,6.28263 51.46471,5.22956 29.82739,-1.59468 55.72177,-7.18401 75.15356,-14.13111 8.00032,-2.86021 14.44953,-5.7671 19.57526,-8.37514 6.46058,-3.28724 11.41535,-6.38309 14.90681,-8.74356 6.3602,-4.29993 11.24096,-8.39389 15.07667,-12.61452 5.1493,-5.66603 8.1644,-11.0163 9.88597,-14.29513 a 4.5298641,4.5298641 90 0 0 -8.02128,-4.21162 c -1.54343,2.93957 -4.24621,7.29489 -8.6706,12.52689 -3.12584,3.69642 -7.28004,8.21574 -12.70589,12.53948 -3.08718,2.4601 -7.48851,5.60367 -13.56559,8.95143 -4.78784,2.63755 -10.91086,5.58082 -18.59051,8.48649 -18.68685,7.07037 -43.99572,12.81895 -73.34504,14.60685 -19.28426,1.17879 -35.63946,-0.43883 -49.73284,-4.67839 -11.95211,-3.59543 -20.98646,-8.64245 -29.38948,-14.2482 -5.5726,-3.7141 -12.97465,-7.7304 -22.20858,-9.86852 -8.58033,-1.98678 -19.02642,-2.42505 -31.45505,0.76647 -2.98395,0.76327 -6.51901,1.92816 -10.12246,3.4141 -3.50535,1.44548 -7.14187,3.22293 -10.35753,5.24682 -1.58336,0.99655 -3.08675,2.06675 -4.42805,3.20096 -1.324,1.11958 -2.52339,2.32954 -3.48659,3.62319 -0.95255,1.27935 -1.71486,2.69547 -2.10071,4.23208 -0.19261,0.76706 -0.29055,1.56157 -0.27072,2.37547 0.0198,0.81158 0.15623,1.62325 0.41632,2.42594 0.47346,1.46275 1.12479,2.75354 1.96007,3.86591 0.83116,1.1069 1.81814,2.00179 2.92896,2.7037 1.09816,0.69391 2.28764,1.18075 3.52181,1.51064 1.22294,0.32689 2.49707,0.50174 3.78683,0.57128 2.54292,0.13712 5.24937,-0.13079 7.90964,-0.53068 2.62463,-0.39453 5.33165,-0.93939 7.81905,-1.38406 1.76575,-0.31899 3.8037,-0.81781 6.00786,-1.49848 2.1976,-0.67864 4.57783,-1.54346 7.03392,-2.60203 4.87551,-2.10135 10.11768,-4.99568 14.82007,-8.76222 4.6745,-3.74419 8.89472,-8.41465 11.62884,-14.0996 1.36515,-2.83849 2.35543,-5.92185 2.84409,-9.25016 0.488,-3.3238 0.47134,-6.86221 -0.14963,-10.61014 -0.52947,-3.20316 -1.56245,-6.23443 -2.97602,-9.05988 -1.41147,-2.82126 -3.20176,-5.43638 -5.25082,-7.81913 -4.08936,-4.7553 -9.24561,-8.62804 -14.61376,-11.41166 -5.35982,-2.77929 -11.04597,-4.53209 -16.23781,-4.93442 -2.60505,-0.20187 -5.14537,-0.0682 -7.48461,0.48842 -2.3468,0.55841 -4.53902,1.55518 -6.35817,3.10759 a 0.12650848,1.0272962 40.865864 0 0 -0.11417,0.10321 c -3.63727,3.44518 -7.15873,7.68331 -10.52245,12.50647 -3.3737,4.83747 -6.61183,10.29666 -9.66823,16.19656 -6.13553,11.84366 -11.5757,25.53402 -15.9378,39.71062 -4.39259,14.27568 -7.70444,29.08244 -9.54887,43.10859 -1.85343,14.09467 -2.23674,27.4816 -0.71292,38.85273 0.6263,6.98335 1.93681,14.09864 3.68236,20.80968 1.77223,6.81365 4.00438,13.25666 6.46964,18.81265 1.24604,2.80822 2.5592,5.40715 3.91488,7.72846 1.36302,2.33389 2.78822,4.42027 4.25705,6.16982 1.46936,1.75018 3.05669,3.25261 4.7553,4.30996 0.86322,0.53734 1.78648,0.97932 2.76417,1.26987 0.98817,0.29366 2.02955,0.43148 3.09917,0.35459 0.92523,-0.0677 1.78523,-0.33401 2.55985,-0.74092 0.76613,-0.40246 1.42504,-0.92918 1.98918,-1.50494 0.56482,-0.57647 1.05921,-1.22702 1.49569,-1.91188 0.43877,-0.68844 0.83643,-1.43895 1.19954,-2.23187 0.72585,-1.58506 1.35408,-3.42877 1.90344,-5.45579 0.55424,-2.04504 1.04224,-4.3292 1.47012,-6.80549 0.862,-4.98875 1.49659,-10.85452 1.92328,-17.29413 0.43205,-6.52048 0.65362,-13.66969 0.67743,-21.17024 0.0485,-15.29442 -0.72372,-32.065 -2.22663,-48.27487 -1.54715,-16.68706 -3.86405,-32.75837 -6.88171,-46.40183 -6.36417,-28.7732 -17.76353,-48.93506 -29.52673,-61.25793 -0.039,-0.0409 -0.078,-0.0816 -0.11704,-0.12234 -6.10855,-6.3711 -12.65563,-11.00217 -19.19872,-13.59685 -3.2237,-1.27837 -6.46346,-2.06823 -9.64584,-2.30851 -3.1554,-0.23824 -6.24983,0.0648 -9.18548,0.96489 -2.48403,0.76168 -4.99079,2.1595 -7.41223,3.90727 -2.41963,1.74646 -4.86491,3.92311 -7.24723,6.37511 -4.7055,4.84312 -9.30647,10.90804 -13.04996,17.15153 -1.85498,3.09379 -3.51349,6.25538 -4.86703,9.34927 -1.34189,3.06726 -2.40607,6.11823 -3.05063,9.00054 -0.3217,1.43854 -0.54427,2.85894 -0.63932,4.23594 -0.0947,1.37124 -0.065,2.73066 0.13461,4.03961 0.19993,1.31094 0.57307,2.59367 1.18412,3.79211 0.61456,1.2053 1.45433,2.29101 2.54036,3.19055 1.72794,1.4308 3.45992,2.53823 5.20029,3.2956 1.74123,0.75775 3.49728,1.16716 5.24477,1.18675 1.74858,0.0196 3.39265,-0.35267 4.90013,-1.04078 1.48992,-0.68009 2.79621,-1.64483 3.9319,-2.76778 1.13011,-1.11743 2.11302,-2.41255 2.96686,-3.79883 0.85285,-1.38468 1.59528,-2.89012 2.23754,-4.4558 1.27768,-3.11464 2.19758,-6.56226 2.79036,-9.95989 0.34962,-2.00136 0.50144,-4.2531 0.48612,-6.65314 -0.0153,-2.40478 -0.19889,-5.00535 -0.53999,-7.72102 -0.68107,-5.42217 -2.00039,-11.38338 -3.92641,-17.2693 -1.92507,-5.88304 -4.47596,-11.75108 -7.64831,-16.95955 -3.16892,-5.20284 -7.02492,-9.85727 -11.60086,-13.17568 -4.90955,-3.56075 -9.80356,-5.74572 -14.66652,-6.53837 -2.43803,-0.3974 -4.84131,-0.43991 -7.19922,-0.14442 -2.36292,0.29613 -4.65266,0.92817 -6.86277,1.85641 -4.43259,1.86167 -8.51647,4.90136 -12.27064,8.78479 -3.78414,3.91445 -7.29542,8.75008 -10.55099,14.27167 -1.61678,2.74218 -3.19939,5.84793 -4.70546,9.16294 -1.51533,3.33539 -2.96296,6.90417 -4.29968,10.56436 -2.69553,7.38079 -4.95692,15.17785 -6.43632,22.3133 -0.74735,3.60461 -1.30044,7.06504 -1.60891,10.24486 -0.30949,3.19034 -0.37971,6.16664 -0.12692,8.76116 0.12753,1.3089 0.34096,2.56056 0.66584,3.71697 0.32494,1.15665 0.77758,2.27609 1.41215,3.27548 0.64354,1.01351 1.49129,1.92853 2.58998,2.59845 1.11638,0.68071 2.36281,1.0288 3.66795,1.07014 4.63218,0.14631 8.73311,-0.26003 12.27529,-1.25511 3.63061,-1.01992 6.70086,-2.66727 9.11441,-4.98303 2.48076,-2.38025 4.1299,-5.33504 5.03918,-8.6991 0.92634,-3.42716 1.07878,-7.24719 0.62875,-11.33066 -0.24507,-2.22411 -0.76949,-4.588 -1.52358,-6.99527 -0.76832,-2.4527 -1.78383,-4.9789 -3.01559,-7.49617 -2.5356,-5.18184 -5.99572,-10.3467 -10.20825,-14.90127 -4.40181,-4.75921 -9.60668,-8.8356 -15.48302,-11.67137 -6.19648,-2.99025 -13.01483,-4.54189 -20.29453,-4.21194 -7.60959,0.33985 -16.29364,1.57173 -25.65887,5.31468 -11.35391,4.53777 -21.74462,12.00706 -31.12398,22.39451 -2.65672,2.93224 -4.84535,5.30509 -7.21793,7.59202 -0.92624,0.89281 -1.83361,1.72812 -2.73815,2.5181 -4.08205,3.56505 -8.02156,6.11608 -12.16953,8.07828 -5.38782,2.54872 -11.27513,4.15237 -17.6516,5.03488 -6.84667,0.94759 -15.3558,1.21683 -26.42452,0.25379 -2.08653,-0.17683 -4.25852,-0.42834 -6.51924,-0.76049 -9.48538,-1.39363 -20.06659,-4.20378 -31.58702,-8.39111 -13.57045,-4.93245 -27.0228,-11.25783 -39.19648,-17.70004 -15.33518,-8.11525 -27.86576,-16.00803 -34.88588,-20.47283 -1.6889,-1.07414 -3.12961,-1.99563 -4.32244,-2.75078 -2.70366,-1.71163 -5.1032,-3.12446 -7.80686,-4.83608 -0.31987,-0.20245 0.35355,0.22485 0,0 -1.617,-1.02844 -4.31319,-2.75699 -7.43748,-4.83788 -3.03108,-2.0188 -5.20184,-3.52822 -6.26342,-4.27132 a 7.9380478,7.9380478 90 0 0 -9.10434,13.0062 z"
         id="path3694"
         sodipodi:nodetypes="cssssssssssssccssssssc"
         inkscape:path-effect="#path-effect3704"
         inkscape:original-d="m 168.8942,382.51645 c 26.30769,18.4154 92.82966,58.2515 142.30483,61.5317 43.27667,2.8693 56.02494,-10.6999 69.03363,-25.1875 20.25892,-22.5619 41.11292,-26.0897 54.36923,-26.698 27.47316,-1.2607 45.36479,26.6523 47.08677,42.3221 1.69259,15.4023 -6.27763,23.1337 -23.66339,22.5702 -12.31768,-0.3992 -0.67444,-45.7738 11.65354,-66.6462 12.7125,-21.5234 28.34867,-30.4226 46.6002,-17.1616 16.39265,11.9104 24.25355,44.424 21.7998,58.377 -2.24694,12.7771 -9.29428,25.5625 -21.53925,15.4078 -11.00184,-9.1238 15.25498,-49.9879 31.18541,-54.8693 19.67613,-6.0292 50.97782,18.7922 63.13846,73.6615 12.10375,54.6126 12.38322,146.5837 -0.88392,147.5767 -9.78543,0.7323 -22.95137,-29.3115 -25.42377,-56.3767 -6.02729,-44.2284 17.72712,-121.6162 45.25172,-147.7769 11.01082,-9.4652 44.18743,4.6059 48.07894,27.7687 4.65164,27.6872 -26.64815,41.274 -39.83836,43.7159 -10.13925,1.8771 -21.81909,4.9862 -25.05834,-4.8873 -3.00059,-9.146 16.92834,-18.4201 28.56604,-21.4204 23.41066,-6.0354 40.20503,1.0511 51.73846,8.7693 15.57919,10.4256 37.5586,22.0325 80.60051,19.5723 45.26972,-2.5875 109.14906,-16.518 130.73795,-57.6353" />
      <path
         id="path3696"
         style="display:inline;opacity:1;mix-blend-mode:normal;fill:none;stroke:#000000;stroke-width:20;stroke-linecap:round;stroke-linejoin:round;stroke-miterlimit:4;stroke-dasharray:none;stroke-opacity:1;filter:url(#filter5253)"
         d="m 227.91212,383.87695 c 25.64286,-141.9495 192.5015,-181.6367 297.01285,-175.8681 92.52262,5.1067 159.46845,37.2981 210.60948,73.4522 67.1677,47.4843 104.58793,101.7152 119.38789,157.5151"
         sodipodi:nodetypes="ccsc" />
      <path
         id="path3698"
         style="display:inline;opacity:1;mix-blend-mode:normal;fill:none;stroke:#000000;stroke-width:20;stroke-linecap:round;stroke-linejoin:round;stroke-miterlimit:4;stroke-dasharray:none;stroke-opacity:1;filter:url(#filter5253)"
         d="m 862.10528,490.11945 c 0.59173,10.752 0.42787,15.838 -0.44185,26.5663 -7.58755,93.5949 -92.79158,157.0891 -179.36914,178.8607 -114.18376,28.7137 -197.10448,2.2101 -262.60009,-22.7684 0,0 -35.13055,19.5935 -75.41539,26.3077 -57.87691,9.6461 -99.0923,-5.2616 -99.0923,-5.2616 0,0 22.69478,-16.7355 41.21538,-42.9692 20.69082,-29.3078 25.43077,-49.1077 25.43077,-49.1077 v 0 c 0,0 -79.14821,-65.8187 -86.68854,-155.6306"
         sodipodi:nodetypes="csscscsccc" />
    </g>
  </g>
  <g
     inkscape:groupmode="layer"
     id="layer7"
     inkscape:label="bot"
     style="display:inline;mix-blend-mode:normal;filter:url(#filter3920)"
     transform="translate(135.64822,-908.93024)"
     sodipodi:insensitive="true">
    <g
       id="g3600"
       transform="translate(0,-2257.0705)">
      <path
         style="display:inline;opacity:0.601575;mix-blend-mode:normal;fill:#ff236d;fill-opacity:1;fill-rule:nonzero;stroke:#fe239b;stroke-width:10;stroke-linecap:butt;stroke-linejoin:miter;stroke-miterlimit:4;stroke-dasharray:none;stroke-opacity:1;filter:url(#filter5253)"
         d="m 28.693801,3554.2465 c 1.129337,0.7905 3.405541,2.373 6.567084,4.4787 3.250388,2.1649 6.047806,3.9582 7.718036,5.0205 0.366383,0.233 -0.330622,-0.2113 0,0 1.134102,0.7247 3.829204,2.5566 8.045663,5.0308 1.25235,0.7349 2.793175,1.6159 4.591506,2.618 7.394884,4.1209 21.065162,11.3566 37.290855,18.5662 12.965035,5.7608 27.262945,11.3757 41.668075,15.6633 12.25382,3.6472 23.47566,6.0052 33.67928,7.1073 2.4289,0.2623 4.77138,0.4468 7.03036,0.5581 11.49886,0.5345 20.6427,0.01 28.00447,-1.1217 6.8937,-1.0589 13.50063,-2.8388 19.65402,-5.7595 4.76695,-2.2626 9.25942,-5.1958 13.78558,-9.2249 0.99435,-0.8851 1.97948,-1.8127 2.97026,-2.7921 2.52624,-2.4973 4.81231,-5.0344 7.4512,-7.9998 8.71529,-9.7641 18.24138,-16.6234 28.4972,-20.7687 8.46566,-3.4217 16.36486,-4.5833 23.45838,-4.9181 6.11425,-0.2846 11.84561,1.0044 17.11628,3.5429 5.02476,2.4201 9.57958,5.9549 13.50634,10.198 3.76022,4.0632 6.86102,8.6901 9.12442,13.3171 1.09692,2.2424 1.98379,4.4586 2.64348,6.5671 0.64979,2.077 1.06914,4.0178 1.25807,5.7431 0.38396,3.5058 0.20975,6.4566 -0.44819,8.8767 -0.63263,2.327 -1.7154,4.183 -3.23851,5.6381 -1.49692,1.4301 -3.54787,2.5951 -6.31766,3.367 -2.72815,0.7603 -6.12151,1.1289 -10.2648,0.9907 -0.23173,-0.01 -0.33758,-0.06 -0.40097,-0.1 -0.0878,-0.055 -0.22823,-0.1654 -0.42394,-0.476 -0.20013,-0.3177 -0.42005,-0.8002 -0.61499,-1.5003 -0.19294,-0.6928 -0.34581,-1.5424 -0.44272,-2.5562 -0.19357,-2.0251 -0.14885,-4.5404 0.13897,-7.464 0.28449,-2.8898 0.79912,-6.1061 1.51305,-9.5279 1.41459,-6.7801 3.5896,-14.259 6.19365,-21.3621 1.28869,-3.5151 2.67642,-6.9214 4.11727,-10.0814 1.43462,-3.1464 2.91274,-6.0285 4.3854,-8.517 3.07258,-5.1925 6.28182,-9.558 9.6045,-12.9814 3.2983,-3.3983 6.64694,-5.8053 10.01983,-7.2121 1.67409,-0.6982 3.36058,-1.1531 5.06496,-1.3622 1.69874,-0.2084 3.44242,-0.1761 5.24059,0.1215 3.58309,0.5931 7.48785,2.2594 11.72041,5.3411 3.61202,2.6308 6.88696,6.5009 9.73294,11.1922 2.83335,4.6704 5.16852,10.0348 6.95246,15.5176 1.78295,5.4797 2.99249,11.0075 3.60694,15.9737 0.30723,2.4832 0.46304,4.8047 0.47193,6.8931 0.009,2.0982 -0.13071,3.9141 -0.39415,5.3986 -0.53306,3.0043 -1.33847,5.9432 -2.39262,8.4918 -0.52724,1.2747 -1.10615,2.4262 -1.72734,3.4277 -0.62416,1.0064 -1.27189,1.8305 -1.926,2.4727 -0.65409,0.6422 -1.29081,1.0796 -1.89832,1.3539 -0.5972,0.2696 -1.21177,0.4031 -1.87666,0.3931 -0.67537,-0.01 -1.49675,-0.1704 -2.488,-0.6048 -1.00402,-0.4401 -2.17108,-1.1571 -3.4977,-2.2595 -0.29085,-0.2422 -0.53461,-0.5457 -0.73534,-0.9417 -0.20627,-0.407 -0.38094,-0.943 -0.48445,-1.6296 -0.10458,-0.6937 -0.13359,-1.5168 -0.0663,-2.4731 0.0673,-0.9568 0.2289,-2.0164 0.48806,-3.1693 0.52215,-2.3229 1.41849,-4.9283 2.63127,-7.6943 1.21721,-2.776 2.73185,-5.6654 4.45506,-8.535 3.49183,-5.8149 7.76687,-11.4293 12.05365,-15.8367 2.16665,-2.2277 4.29867,-4.1086 6.30376,-5.5543 2.04098,-1.4716 3.83576,-2.4091 5.31777,-2.8626 2.00625,-0.6143 4.19724,-0.8455 6.54135,-0.6679 2.3709,0.1795 4.90121,0.7778 7.53968,1.8243 5.37817,2.1332 11.09535,6.0847 16.66403,11.8907 0.0354,0.037 0.0708,0.074 0.10616,0.1109 10.70038,11.2056 21.59119,30.1047 27.75191,57.8442 2.9479,13.2733 5.24151,29.0352 6.78599,45.516 1.49913,15.9971 2.27796,32.5413 2.24992,47.5987 -0.0137,7.3818 -0.22174,14.3816 -0.63189,20.7303 -0.40592,6.283 -1.00776,11.8936 -1.80493,16.5716 -0.39513,2.3187 -0.83434,4.3849 -1.31369,6.1744 -0.47897,1.7881 -0.9846,3.2491 -1.50022,4.3874 -0.25533,0.5637 -0.50286,1.0254 -0.73631,1.396 -0.23412,0.3717 -0.43718,0.6249 -0.59705,0.7909 -0.15919,0.1654 -0.24945,0.2176 -0.261,0.2257 -0.01,0.01 0.0713,-0.025 0.15146,-0.03 -0.15111,0.014 -0.35845,0 -0.64265,-0.076 -0.28876,-0.081 -0.65393,-0.2354 -1.09496,-0.5041 -0.89348,-0.5443 -1.9588,-1.4742 -3.14972,-2.8736 -1.17011,-1.3749 -2.3895,-3.1179 -3.62204,-5.202 -1.22054,-2.0637 -2.43399,-4.428 -3.60853,-7.0405 -2.32645,-5.1748 -4.47074,-11.259 -6.19049,-17.7522 -1.69854,-6.4132 -2.97184,-13.1855 -3.59057,-19.7839 a 0.13318017,1.1183374 0.30136639 0 0 -0.0165,-0.1446 c -1.46459,-10.6303 -1.16681,-23.4346 0.61193,-37.2094 1.76121,-13.639 4.95838,-28.101 9.22459,-42.0788 4.23783,-13.8847 9.51194,-27.2284 15.41762,-38.7013 2.93996,-5.7115 6.02603,-10.9388 9.20356,-15.5241 3.15687,-4.5555 6.38118,-8.4443 9.61399,-11.5374 0.925,-0.7866 2.15634,-1.4022 3.71482,-1.7876 1.5956,-0.3947 3.48353,-0.5342 5.60078,-0.3859 4.24112,0.2971 9.15671,1.7327 13.96006,4.1864 4.79022,2.4469 9.3454,5.844 12.91433,9.9445 1.78192,2.0474 3.30751,4.258 4.4974,6.601 1.19006,2.3434 2.04419,4.8188 2.48712,7.4035 0.5427,3.1785 0.56408,6.1212 0.17983,8.8449 -0.38498,2.7289 -1.18145,5.2683 -2.30029,7.6303 -2.24895,4.7478 -5.81968,8.8155 -10.01322,12.2148 -4.21425,3.416 -8.99087,6.1024 -13.51271,8.0851 -2.2687,0.9948 -4.4618,1.8075 -6.47375,2.4447 -2.02264,0.6406 -3.84694,1.0992 -5.37141,1.3894 -2.6397,0.505 -5.12987,1.0398 -7.65564,1.4493 -2.5187,0.4084 -4.82027,0.6454 -6.84901,0.5616 -1.01429,-0.042 -1.92678,-0.1632 -2.73918,-0.3685 -0.81485,-0.2059 -1.51619,-0.4924 -2.12335,-0.8639 -0.60476,-0.37 -1.13901,-0.8392 -1.60147,-1.4387 -0.46856,-0.6075 -0.88847,-1.3815 -1.22169,-2.3776 -0.11571,-0.343 -0.17457,-0.6757 -0.18673,-1.0037 -0.0123,-0.3308 0.0223,-0.6763 0.10957,-1.0414 0.17762,-0.7431 0.57644,-1.576 1.24408,-2.4884 0.67264,-0.9193 1.57952,-1.8664 2.69401,-2.8212 1.12264,-0.9619 2.42632,-1.9064 3.85664,-2.8174 2.91214,-1.8547 6.28018,-3.527 9.59711,-4.9112 3.40411,-1.4206 6.721,-2.5248 9.4677,-3.239 11.65446,-3.0172 21.32547,-2.5976 29.19128,-0.7794 8.50102,1.965 15.36431,5.6824 20.62197,9.216 8.63367,5.7953 18.07677,11.1402 30.61399,14.9884 14.75183,4.528 31.70221,6.2826 51.46471,5.2296 29.82739,-1.5947 55.72177,-7.184 75.15356,-14.1311 8.00032,-2.8603 14.44953,-5.7671 19.57526,-8.3752 6.46058,-3.2872 11.41535,-6.3831 14.90681,-8.7435 6.3602,-4.3 11.24096,-8.3939 15.07667,-12.6146 5.1493,-5.666 8.1644,-11.0163 9.88597,-14.2951 a 4.5298606,4.5298606 90 0 0 -8.02128,-4.2116 c -1.54343,2.9396 -4.24621,7.2949 -8.6706,12.5269 -3.12584,3.6964 -7.28004,8.2157 -12.70589,12.5395 -3.08718,2.4601 -7.48851,5.6036 -13.56559,8.9514 -4.78784,2.6375 -10.91086,5.5808 -18.59051,8.4865 -18.68685,7.0703 -43.99572,12.8189 -73.34504,14.6068 -19.28426,1.1788 -35.63946,-0.4388 -49.73284,-4.6784 -11.95211,-3.5954 -20.98646,-8.6424 -29.38948,-14.2482 -5.5726,-3.7141 -12.97465,-7.7304 -22.20858,-9.8685 -8.58033,-1.9868 -19.02642,-2.425 -31.45505,0.7665 -2.98395,0.7633 -6.51901,1.9281 -10.12246,3.4141 -3.50535,1.4455 -7.14187,3.2229 -10.35753,5.2468 -1.58336,0.9966 -3.08675,2.0668 -4.42805,3.201 -1.324,1.1195 -2.52339,2.3295 -3.48659,3.6232 -0.95255,1.2793 -1.71486,2.6954 -2.10071,4.232 -0.19261,0.7671 -0.29055,1.5616 -0.27072,2.3755 0.0198,0.8116 0.15623,1.6233 0.41632,2.4259 0.47346,1.4628 1.12479,2.7536 1.96007,3.866 0.83116,1.1069 1.81814,2.0017 2.92896,2.7037 1.09816,0.6939 2.28764,1.1807 3.52181,1.5106 1.22294,0.3269 2.49707,0.5017 3.78683,0.5713 2.54292,0.1371 5.24937,-0.1308 7.90964,-0.5307 2.62463,-0.3945 5.33165,-0.9394 7.81905,-1.3841 1.76575,-0.319 3.8037,-0.8178 6.00786,-1.4984 2.1976,-0.6787 4.57783,-1.5435 7.03392,-2.6021 4.87551,-2.1013 10.11768,-4.9957 14.82007,-8.7622 4.6745,-3.7442 8.89472,-8.4146 11.62884,-14.0996 1.36515,-2.8385 2.35543,-5.9218 2.84409,-9.2501 0.488,-3.3239 0.47134,-6.8623 -0.14963,-10.6102 -0.52947,-3.2032 -1.56245,-6.2344 -2.97602,-9.0599 -1.41147,-2.8212 -3.20176,-5.4363 -5.25082,-7.8191 -4.08936,-4.7553 -9.24561,-8.628 -14.61376,-11.4117 -5.35982,-2.7793 -11.04597,-4.5321 -16.23781,-4.9344 -2.60505,-0.2018 -5.14537,-0.068 -7.48461,0.4884 -2.3468,0.5585 -4.53902,1.5552 -6.35817,3.1076 a 0.12650872,1.0272982 40.865864 0 0 -0.11417,0.1032 c -3.63727,3.4452 -7.15873,7.6834 -10.52245,12.5065 -3.3737,4.8375 -6.61183,10.2967 -9.66823,16.1966 -6.13553,11.8436 -11.5757,25.534 -15.9378,39.7106 -4.39259,14.2757 -7.70444,29.0824 -9.54887,43.1086 -1.85343,14.0946 -2.23674,27.4816 -0.71292,38.8527 0.6263,6.9834 1.93681,14.0987 3.68236,20.8097 1.77223,6.8136 4.00438,13.2567 6.46964,18.8126 1.24604,2.8083 2.5592,5.4072 3.91488,7.7285 1.36302,2.3339 2.78822,4.4203 4.25705,6.1698 1.46936,1.7502 3.05669,3.2526 4.7553,4.31 0.86322,0.5373 1.78648,0.9793 2.76417,1.2699 0.98817,0.2936 2.02955,0.4314 3.09917,0.3545 0.92523,-0.068 1.78523,-0.334 2.55985,-0.7409 0.76613,-0.4024 1.42504,-0.9292 1.98918,-1.5049 0.56482,-0.5765 1.05921,-1.227 1.49569,-1.9119 0.43877,-0.6884 0.83643,-1.4389 1.19954,-2.2319 0.72585,-1.585 1.35408,-3.4287 1.90344,-5.4558 0.55424,-2.045 1.04224,-4.3292 1.47012,-6.8055 0.862,-4.9887 1.49659,-10.8545 1.92328,-17.2941 0.43205,-6.5205 0.65362,-13.6697 0.67743,-21.1702 0.0485,-15.2944 -0.72372,-32.065 -2.22663,-48.2749 -1.54715,-16.6871 -3.86405,-32.7584 -6.88171,-46.4018 -6.36417,-28.7732 -17.76353,-48.9351 -29.52673,-61.2579 -0.039,-0.041 -0.078,-0.082 -0.11704,-0.1224 -6.10855,-6.3711 -12.65563,-11.0022 -19.19872,-13.5968 -3.2237,-1.2784 -6.46346,-2.0683 -9.64584,-2.3085 -3.1554,-0.2383 -6.24983,0.065 -9.18548,0.9648 -2.48403,0.7617 -4.99079,2.1595 -7.41223,3.9073 -2.41963,1.7465 -4.86491,3.9231 -7.24723,6.3751 -4.7055,4.8431 -9.30647,10.9081 -13.04996,17.1516 -1.85498,3.0937 -3.51349,6.2553 -4.86703,9.3492 -1.34189,3.0673 -2.40607,6.1183 -3.05063,9.0006 -0.3217,1.4385 -0.54427,2.8589 -0.63932,4.2359 -0.0947,1.3712 -0.065,2.7307 0.13461,4.0396 0.19993,1.311 0.57307,2.5937 1.18412,3.7921 0.61456,1.2053 1.45433,2.291 2.54036,3.1906 1.72794,1.4308 3.45992,2.5382 5.20029,3.2956 1.74123,0.7577 3.49728,1.1671 5.24477,1.1867 1.74858,0.02 3.39265,-0.3527 4.90013,-1.0408 1.48992,-0.6801 2.79621,-1.6448 3.9319,-2.7677 1.13011,-1.1175 2.11302,-2.4126 2.96686,-3.7989 0.85285,-1.3846 1.59528,-2.8901 2.23754,-4.4558 1.27768,-3.1146 2.19758,-6.5622 2.79036,-9.9599 0.34962,-2.0013 0.50144,-4.2531 0.48612,-6.6531 -0.0153,-2.4048 -0.19889,-5.0053 -0.53999,-7.721 -0.68107,-5.4222 -2.00039,-11.3834 -3.92641,-17.2693 -1.92507,-5.8831 -4.47596,-11.7511 -7.64831,-16.9596 -3.16892,-5.2028 -7.02492,-9.8572 -11.60086,-13.1757 -4.90955,-3.5607 -9.80356,-5.7457 -14.66652,-6.5383 -2.43803,-0.3974 -4.84131,-0.4399 -7.19922,-0.1444 -2.36292,0.2961 -4.65266,0.9281 -6.86277,1.8564 -4.43259,1.8616 -8.51647,4.9013 -12.27064,8.7848 -3.78414,3.9144 -7.29542,8.75 -10.55099,14.2716 -1.61678,2.7422 -3.19939,5.848 -4.70546,9.163 -1.51533,3.3354 -2.96296,6.9041 -4.29968,10.5643 -2.69553,7.3808 -4.95692,15.1779 -6.43632,22.3133 -0.74735,3.6046 -1.30044,7.0651 -1.60891,10.2449 -0.30949,3.1903 -0.37971,6.1666 -0.12692,8.7611 0.12753,1.309 0.34096,2.5606 0.66584,3.717 0.32494,1.1567 0.77758,2.2761 1.41215,3.2755 0.64354,1.0135 1.49129,1.9285 2.58998,2.5985 1.11638,0.6807 2.36281,1.0288 3.66795,1.0701 4.63218,0.1463 8.73311,-0.26 12.27529,-1.2551 3.63061,-1.0199 6.70086,-2.6673 9.11441,-4.9831 2.48076,-2.3802 4.1299,-5.335 5.03918,-8.699 0.92634,-3.4272 1.07878,-7.2472 0.62875,-11.3307 -0.24507,-2.2241 -0.76949,-4.588 -1.52358,-6.9953 -0.76832,-2.4527 -1.78383,-4.9789 -3.01559,-7.4962 -2.5356,-5.1818 -5.99572,-10.3467 -10.20825,-14.9012 -4.40181,-4.7592 -9.60668,-8.8356 -15.48302,-11.6714 -6.19648,-2.9902 -13.01483,-4.5419 -20.29453,-4.2119 -7.60959,0.3398 -16.29364,1.5717 -25.65887,5.3147 -11.35391,4.5377 -21.74462,12.007 -31.12398,22.3945 -2.65672,2.9322 -4.84535,5.305 -7.21793,7.592 -0.92624,0.8928 -1.83361,1.7281 -2.73815,2.5181 -4.08205,3.565 -8.02156,6.1161 -12.16953,8.0783 -5.38782,2.5487 -11.27513,4.1523 -17.6516,5.0348 -6.84667,0.9476 -15.3558,1.2169 -26.42452,0.2538 -2.08653,-0.1768 -4.25852,-0.4283 -6.51924,-0.7605 -9.48538,-1.3936 -20.06659,-4.2037 -31.58702,-8.3911 -13.57045,-4.9324 -27.02281,-11.2578 -39.196478,-17.7 -15.33518,-8.1153 -27.865766,-16.008 -34.885887,-20.4728 -1.688899,-1.0742 -3.129609,-1.9957 -4.322439,-2.7508 -2.703655,-1.7116 -5.103201,-3.1245 -7.806855,-4.8361 -0.319876,-0.2024 0.35354,0.2249 0,0 -1.617003,-1.0284 -4.313193,-2.757 -7.437484,-4.8379 -3.031077,-2.0188 -5.201847,-3.5282 -6.263418,-4.2713 a 7.9380478,7.9380478 90 0 0 -9.104348,13.0062 z"
         id="path1687"
         sodipodi:nodetypes="cssssssssssssccssssssc"
         inkscape:original-d="m 33.245975,3547.7434 c 26.307693,18.4154 92.829665,58.2515 142.304835,61.5317 43.27667,2.8693 56.02494,-10.6999 69.03363,-25.1875 20.25892,-22.5619 41.11292,-26.0897 54.36923,-26.698 27.47316,-1.2607 45.36479,26.6523 47.08677,42.3221 1.69259,15.4023 -6.27763,23.1337 -23.66339,22.5702 -12.31768,-0.3992 -0.67444,-45.7738 11.65354,-66.6462 12.7125,-21.5234 28.34867,-30.4226 46.6002,-17.1616 16.39265,11.9104 24.25355,44.424 21.7998,58.377 -2.24694,12.7771 -9.29428,25.5625 -21.53925,15.4078 -11.00184,-9.1238 15.25498,-49.9879 31.18541,-54.8693 19.67613,-6.0292 50.97782,18.7922 63.13846,73.6615 12.10375,54.6126 12.38322,146.5837 -0.88392,147.5767 -9.78543,0.7323 -22.95137,-29.3115 -25.42377,-56.3767 -6.02729,-44.2284 17.72712,-121.6162 45.25172,-147.7769 11.01082,-9.4652 44.18743,4.6059 48.07894,27.7687 4.65164,27.6872 -26.64815,41.274 -39.83836,43.7159 -10.13925,1.8771 -21.81909,4.9862 -25.05834,-4.8873 -3.00059,-9.146 16.92834,-18.4201 28.56604,-21.4204 23.41066,-6.0354 40.20503,1.0511 51.73846,8.7693 15.57919,10.4256 37.5586,22.0325 80.60051,19.5723 45.26972,-2.5875 109.14906,-16.518 130.73795,-57.6353"
         inkscape:path-effect="#path-effect1699" />
      <path
         id="path1689"
         style="display:inline;opacity:0.601575;mix-blend-mode:normal;fill:none;fill-opacity:1;stroke:#fe239b;stroke-width:20;stroke-linecap:round;stroke-linejoin:round;stroke-miterlimit:4;stroke-dasharray:none;stroke-opacity:1;filter:url(#filter5253)"
         d="m 92.2639,3549.1039 c 25.64286,-141.9495 192.5015,-181.6367 297.01285,-175.8681 92.52262,5.1067 159.46845,37.2981 210.60948,73.4522 67.1677,47.4843 104.58793,101.7152 119.38789,157.5151"
         sodipodi:nodetypes="ccsc" />
      <path
         id="path1691"
         style="display:inline;opacity:0.601575;mix-blend-mode:normal;fill:none;fill-opacity:1;stroke:#fe239b;stroke-width:20;stroke-linecap:round;stroke-linejoin:round;stroke-miterlimit:4;stroke-dasharray:none;stroke-opacity:1;filter:url(#filter5253)"
         d="m 726.45706,3655.3464 c 0.59173,10.752 0.42787,15.838 -0.44185,26.5663 -7.58755,93.5949 -92.79158,157.0891 -179.36914,178.8607 -114.18376,28.7137 -197.10448,2.2101 -262.60009,-22.7684 0,0 -35.13055,19.5935 -75.41539,26.3077 -57.87691,9.6461 -99.0923,-5.2616 -99.0923,-5.2616 0,0 22.69478,-16.7355 41.21538,-42.9692 20.69082,-29.3078 25.43077,-49.1077 25.43077,-49.1077 v 0 c 0,0 -79.14821,-65.8187 -86.68854,-155.6306"
         sodipodi:nodetypes="csscscsccc" />
    </g>
  </g>
  <g
     inkscape:groupmode="layer"
     id="layer9"
     inkscape:label="in2"
     style="display:inline;mix-blend-mode:normal;filter:url(#filter5245)"
     transform="translate(135.64822,-908.93024)"
     sodipodi:insensitive="true">
    <g
       id="g3188"
       style="display:inline;opacity:0.601575;filter:url(#filter5253)"
       transform="translate(0,-1498.7147)">
      <path
         style="display:inline;mix-blend-mode:normal;fill:none;fill-opacity:1;stroke:#ff6c9d;stroke-width:20px;stroke-linecap:round;stroke-linejoin:round;stroke-miterlimit:4;stroke-dasharray:none;stroke-opacity:1"
         d="M 92.2639,2791.49 C 117.907,2649.54 284.765,2609.86 389.277,2615.62 v 0 c 92.523,5.11 159.468,37.3 210.609,73.46 v 0 c 67.168,47.48 104.588,101.71 119.388,157.51"
         id="path2891" />
      <path
         style="display:inline;mix-blend-mode:normal;fill:none;fill-opacity:1;stroke:#ff6c9d;stroke-width:20px;stroke-linecap:round;stroke-linejoin:round;stroke-miterlimit:4;stroke-dasharray:none;stroke-opacity:1"
         d="m 726.457,2897.74 c 0.592,10.75 0.428,15.83 -0.442,26.56 -7.587,93.6 -92.791,157.09 -179.369,178.86 v 0 c -114.184,28.72 -197.104,2.21 -262.6,-22.77 0,0 -35.131,19.6 -75.415,26.31 h -0.001 c -57.877,9.65 -99.092,-5.26 -99.092,-5.26 v 0 c 0.059,-0.04 22.719,-16.77 41.216,-42.97 v 0 c 20.691,-29.31 25.43,-49.11 25.43,-49.11 v 0 0 c -0.103,-0.08 -79.1527,-65.87 -86.6881,-155.63"
         id="path3016" />
      <path
         style="display:inline;mix-blend-mode:normal;fill:#ff6c9d;fill-opacity:1;fill-rule:nonzero;stroke:#ff6c9d;stroke-width:10px;stroke-linecap:butt;stroke-linejoin:miter;stroke-miterlimit:4;stroke-dasharray:none;stroke-opacity:1"
         d="m 28.6938,2796.64 c 1.1293,0.79 3.4055,2.37 6.5671,4.47 h 2e-4 c 3.2503,2.17 6.0476,3.96 7.7178,5.02 h 2e-4 c 0.366,0.24 -0.3307,-0.21 -2e-4,0 h 3e-4 c 1.1343,0.73 3.8293,2.56 8.0454,5.04 h 1e-4 c 1.2524,0.73 2.7931,1.61 4.5914,2.61 h 2e-4 c 7.395,4.12 21.0651,11.36 37.2906,18.57 h 2e-4 c 12.9649,5.76 27.2629,11.38 41.6679,15.66 v 0 c 12.254,3.65 23.476,6.01 33.679,7.11 h 0.001 c 2.428,0.26 4.771,0.45 7.03,0.56 v 0 c 11.499,0.53 20.642,0.01 28.004,-1.12 v 0 c 6.894,-1.06 13.501,-2.84 19.654,-5.76 v 0 c 4.767,-2.27 9.26,-5.2 13.786,-9.23 v 0 c 0.994,-0.88 1.979,-1.81 2.97,-2.79 v 0 c 2.526,-2.5 4.812,-5.03 7.451,-8 v 0 c 8.716,-9.76 18.242,-16.62 28.497,-20.77 h 0.001 c 8.465,-3.42 16.364,-4.58 23.458,-4.92 v 0 c 6.114,-0.28 11.845,1.01 17.116,3.55 v 0 c 5.025,2.42 9.58,5.95 13.506,10.19 h 10e-4 c 3.76,4.07 6.86,8.69 9.124,13.32 v 0 c 1.097,2.24 1.984,4.46 2.643,6.57 v 0 c 0.65,2.08 1.069,4.02 1.258,5.74 v 0 c 0.384,3.51 0.21,6.46 -0.448,8.88 v 0 c -0.633,2.33 -1.715,4.18 -3.238,5.64 h -10e-4 c -1.496,1.43 -3.547,2.59 -6.317,3.36 v 0 c -2.728,0.76 -6.122,1.13 -10.265,0.99 v 0 c -0.232,-0.01 -0.337,-0.06 -0.401,-0.1 v 0 c -0.088,-0.05 -0.228,-0.16 -0.424,-0.47 v 0 c -0.2,-0.32 -0.42,-0.8 -0.615,-1.5 v 0 c -0.193,-0.7 -0.346,-1.54 -0.442,-2.56 v 0 c -0.194,-2.02 -0.149,-4.54 0.139,-7.46 v 0 c 0.284,-2.89 0.799,-6.11 1.513,-9.53 v 0 c 1.414,-6.78 3.589,-14.26 6.193,-21.36 v 0 c 1.289,-3.52 2.677,-6.92 4.118,-10.08 v 0 c 1.434,-3.15 2.912,-6.03 4.385,-8.52 v 0 c 3.073,-5.19 6.282,-9.56 9.604,-12.98 h 10e-4 c 3.298,-3.4 6.646,-5.81 10.019,-7.21 v 0 c 1.674,-0.7 3.361,-1.16 5.065,-1.37 v 0 c 1.699,-0.21 3.443,-0.17 5.241,0.12 v 0 c 3.583,0.6 7.488,2.26 11.72,5.35 v 0 c 3.612,2.63 6.887,6.5 9.733,11.19 v 0 c 2.834,4.67 5.169,10.03 6.953,15.52 v 0 c 1.783,5.48 2.992,11 3.607,15.97 v 0 c 0.307,2.48 0.463,4.8 0.471,6.89 v 0 c 0.009,2.1 -0.13,3.92 -0.394,5.4 v 0 c -0.533,3.01 -1.338,5.94 -2.392,8.49 v 0 c -0.528,1.28 -1.106,2.43 -1.728,3.43 v 0 c -0.624,1.01 -1.272,1.83 -1.926,2.47 v 0 c -0.654,0.65 -1.29,1.08 -1.898,1.36 v 0 c -0.597,0.27 -1.212,0.4 -1.877,0.39 v 0 c -0.675,-0.01 -1.497,-0.17 -2.488,-0.6 v 0 c -1.004,-0.44 -2.171,-1.16 -3.497,-2.26 v 0 c -0.291,-0.25 -0.535,-0.55 -0.736,-0.95 v 0 c -0.206,-0.4 -0.381,-0.94 -0.484,-1.63 v 0 c -0.105,-0.69 -0.134,-1.51 -0.066,-2.47 v 0 c 0.067,-0.96 0.229,-2.01 0.488,-3.17 v 0 c 0.522,-2.32 1.418,-4.93 2.631,-7.69 v 0 c 1.217,-2.78 2.732,-5.67 4.455,-8.54 v 0 c 3.492,-5.81 7.767,-11.43 12.054,-15.83 v 0 c 2.166,-2.23 4.298,-4.11 6.303,-5.56 h 10e-4 c 2.041,-1.47 3.835,-2.41 5.317,-2.86 v 0 c 2.007,-0.61 4.198,-0.85 6.542,-0.67 v 0 c 2.371,0.18 4.901,0.78 7.539,1.83 v 0 c 5.378,2.13 11.096,6.08 16.664,11.89 v 0 c 0.036,0.03 0.071,0.07 0.106,0.11 h 0.001 c 10.7,11.2 21.591,30.1 27.751,57.84 v 0 c 2.948,13.28 5.242,29.04 6.786,45.52 v 0 c 1.499,15.99 2.278,32.54 2.25,47.6 v 0 c -0.013,7.38 -0.222,14.38 -0.632,20.73 v 0 c -0.406,6.28 -1.007,11.89 -1.805,16.57 v 0 c -0.395,2.32 -0.834,4.38 -1.313,6.17 v 0 c -0.479,1.79 -0.985,3.25 -1.501,4.39 v 0 c -0.255,0.56 -0.502,1.03 -0.736,1.4 v 0 c -0.234,0.37 -0.437,0.62 -0.597,0.79 v 0 c -0.159,0.16 -0.249,0.21 -0.261,0.22 v 0 c -0.009,0.01 0.072,-0.02 0.152,-0.03 h -0.001 c -0.151,0.02 -0.358,0 -0.642,-0.07 v 0 c -0.289,-0.08 -0.654,-0.24 -1.095,-0.51 v 0 c -0.894,-0.54 -1.959,-1.47 -3.15,-2.87 v 0 c -1.17,-1.38 -2.389,-3.12 -3.622,-5.2 v 0 c -1.22,-2.07 -2.434,-4.43 -3.608,-7.04 v 0 c -2.327,-5.18 -4.471,-11.26 -6.191,-17.76 v 0 c -1.698,-6.41 -2.972,-13.18 -3.59,-19.78 v 0 c -0.005,-0.05 -0.011,-0.1 -0.017,-0.14 v 0 c -1.464,-10.63 -1.167,-23.44 0.612,-37.21 v 0 c 1.761,-13.64 4.958,-28.1 9.225,-42.08 v 0 c 4.238,-13.89 9.512,-27.23 15.417,-38.7 v 0 c 2.94,-5.72 6.026,-10.94 9.204,-15.53 v 0 c 3.157,-4.55 6.381,-8.44 9.614,-11.54 v 0 c 0.925,-0.78 2.156,-1.4 3.715,-1.78 v 0 c 1.595,-0.4 3.483,-0.54 5.6,-0.39 h 10e-4 c 4.241,0.3 9.156,1.73 13.959,4.19 h 10e-4 c 4.79,2.44 9.345,5.84 12.914,9.94 v 0 c 1.782,2.05 3.307,4.26 4.497,6.6 v 0 c 1.19,2.35 2.044,4.82 2.487,7.41 v 0 c 0.543,3.18 0.564,6.12 0.18,8.84 v 0 c -0.385,2.73 -1.181,5.27 -2.3,7.63 v 0 c -2.249,4.75 -5.82,8.82 -10.013,12.22 h -10e-4 c -4.214,3.41 -8.99,6.1 -13.512,8.08 v 0 c -2.269,1 -4.462,1.81 -6.474,2.45 v 0 c -2.023,0.64 -3.847,1.1 -5.371,1.39 h -0.001 c -2.639,0.5 -5.129,1.04 -7.655,1.45 v 0 c -2.519,0.4 -4.82,0.64 -6.849,0.56 v 0 c -1.014,-0.05 -1.927,-0.17 -2.739,-0.37 v 0 c -0.815,-0.21 -1.516,-0.49 -2.123,-0.87 h -10e-4 c -0.604,-0.37 -1.138,-0.83 -1.601,-1.43 v 0 c -0.469,-0.61 -0.888,-1.39 -1.222,-2.38 v 0 c -0.115,-0.35 -0.174,-0.68 -0.186,-1.01 v 0 c -0.013,-0.33 0.022,-0.67 0.109,-1.04 v 0 c 0.178,-0.74 0.577,-1.57 1.244,-2.49 h 10e-4 c 0.672,-0.91 1.579,-1.86 2.693,-2.82 v 0 c 1.123,-0.96 2.427,-1.9 3.857,-2.81 v 0 c 2.912,-1.86 6.28,-3.53 9.597,-4.92 v 0 c 3.404,-1.42 6.721,-2.52 9.468,-3.23 v 0 c 11.654,-3.02 21.325,-2.6 29.191,-0.78 v 0 c 8.501,1.96 15.364,5.68 20.622,9.21 v 0 c 8.634,5.8 18.077,11.14 30.614,14.99 v 0 c 14.752,4.53 31.702,6.28 51.465,5.23 v 0 c 29.827,-1.59 55.722,-7.18 75.153,-14.13 h 0.001 c 8,-2.86 14.449,-5.77 19.575,-8.38 v 0 c 6.46,-3.28 11.415,-6.38 14.906,-8.74 h 10e-4 c 6.36,-4.3 11.24,-8.39 15.076,-12.61 v 0 c 5.149,-5.67 8.164,-11.02 9.886,-14.3 v 0 c 1.161,-2.21 0.308,-4.95 -1.906,-6.11 h -0.001 c -2.213,-1.17 -4.95,-0.31 -6.114,1.9 v 0 c -1.544,2.94 -4.247,7.29 -8.671,12.53 v 0 c -3.126,3.69 -7.28,8.21 -12.706,12.54 v 0 c -3.087,2.46 -7.488,5.6 -13.565,8.95 h -0.001 c -4.787,2.63 -10.91,5.58 -18.59,8.48 v 0 c -18.687,7.07 -43.996,12.82 -73.345,14.61 v 0 c -19.284,1.18 -35.639,-0.44 -49.733,-4.68 v 0 c -11.952,-3.59 -20.986,-8.64 -29.389,-14.25 h -0.001 c -5.572,-3.71 -12.974,-7.73 -22.208,-9.86 v 0 c -8.581,-1.99 -19.026,-2.43 -31.455,0.76 v 0 c -2.984,0.77 -6.519,1.93 -10.122,3.42 h -10e-4 c -3.505,1.44 -7.141,3.22 -10.357,5.24 v 0 c -1.583,1 -3.087,2.07 -4.428,3.2 v 0 c -1.324,1.12 -2.523,2.33 -3.486,3.63 h -10e-4 c -0.952,1.28 -1.714,2.69 -2.1,4.23 v 0 c -0.193,0.77 -0.291,1.56 -0.271,2.37 v 0 c 0.02,0.82 0.156,1.63 0.416,2.43 h 0.001 c 0.473,1.46 1.124,2.75 1.959,3.87 h 10e-4 c 0.831,1.1 1.818,2 2.928,2.7 h 0.001 c 1.098,0.69 2.287,1.18 3.521,1.51 h 0.001 c 1.223,0.33 2.497,0.5 3.786,0.57 h 10e-4 c 2.542,0.14 5.249,-0.13 7.909,-0.53 v 0 c 2.625,-0.39 5.332,-0.94 7.819,-1.38 v 0 c 1.766,-0.32 3.804,-0.82 6.008,-1.5 v 0 c 2.198,-0.68 4.578,-1.54 7.034,-2.6 v 0 c 4.876,-2.11 10.117,-5 14.82,-8.77 v 0 c 4.674,-3.74 8.894,-8.41 11.628,-14.1 h 0.001 c 1.365,-2.83 2.355,-5.92 2.844,-9.25 v 0 c 0.488,-3.32 0.471,-6.86 -0.15,-10.61 v 0 c -0.53,-3.2 -1.563,-6.23 -2.976,-9.06 v 0 c -1.412,-2.82 -3.202,-5.43 -5.251,-7.81 v 0 c -4.089,-4.76 -9.246,-8.63 -14.614,-11.42 v 0 c -5.36,-2.78 -11.046,-4.53 -16.237,-4.93 h -0.001 c -2.605,-0.2 -5.145,-0.07 -7.484,0.49 h -0.001 c -2.346,0.56 -4.538,1.55 -6.357,3.11 h -0.001 c -0.034,0.03 -0.073,0.06 -0.113,0.1 h -10e-4 c -3.637,3.44 -7.158,7.68 -10.522,12.51 v 0 c -3.374,4.83 -6.612,10.29 -9.668,16.19 v 0 c -6.136,11.85 -11.576,25.54 -15.938,39.71 v 0 c -4.393,14.28 -7.704,29.08 -9.549,43.11 v 0 c -1.853,14.1 -2.236,27.48 -0.713,38.85 v 0 c 0.627,6.99 1.937,14.1 3.683,20.81 v 0 c 1.772,6.82 4.004,13.26 6.469,18.82 v 0 c 1.246,2.8 2.56,5.4 3.915,7.72 h 10e-4 c 1.362,2.34 2.788,4.42 4.256,6.17 h 10e-4 c 1.469,1.75 3.056,3.26 4.755,4.31 v 0 c 0.863,0.54 1.786,0.98 2.764,1.27 v 0 c 0.988,0.3 2.029,0.44 3.099,0.36 v 0 c 0.925,-0.07 1.785,-0.34 2.56,-0.74 v 0 c 0.766,-0.4 1.425,-0.93 1.989,-1.51 v 0 c 0.565,-0.57 1.059,-1.22 1.496,-1.91 v 0 c 0.438,-0.69 0.836,-1.44 1.199,-2.23 v 0 c 0.726,-1.59 1.354,-3.43 1.904,-5.46 v 0 c 0.554,-2.04 1.042,-4.33 1.47,-6.8 v 0 c 0.862,-4.99 1.496,-10.86 1.923,-17.3 v 0 c 0.432,-6.52 0.654,-13.67 0.677,-21.17 v 0 c 0.049,-15.29 -0.723,-32.06 -2.226,-48.27 v 0 c -1.547,-16.69 -3.864,-32.76 -6.882,-46.4 v 0 c -6.364,-28.78 -17.764,-48.94 -29.527,-61.26 v 0 c -0.039,-0.04 -0.078,-0.08 -0.117,-0.12 v 0 c -6.109,-6.37 -12.655,-11.01 -19.198,-13.6 h -0.001 c -3.223,-1.28 -6.463,-2.07 -9.645,-2.31 h -0.001 c -3.155,-0.24 -6.249,0.07 -9.185,0.97 v 0 c -2.484,0.76 -4.991,2.16 -7.412,3.9 v 0 c -2.42,1.75 -4.865,3.93 -7.247,6.38 v 0 c -4.706,4.84 -9.307,10.91 -13.05,17.15 v 0 c -1.855,3.09 -3.514,6.26 -4.867,9.35 v 0 c -1.342,3.07 -2.406,6.12 -3.051,9 v 0 c -0.322,1.44 -0.544,2.86 -0.639,4.24 v 0 c -0.095,1.37 -0.065,2.73 0.134,4.04 h 0.001 c 0.2,1.31 0.573,2.59 1.184,3.79 v 0 c 0.614,1.2 1.454,2.29 2.54,3.19 v 0 c 1.728,1.43 3.46,2.54 5.2,3.29 h 0.001 c 1.741,0.76 3.497,1.17 5.244,1.19 v 0 c 1.749,0.02 3.393,-0.35 4.9,-1.04 h 10e-4 c 1.489,-0.68 2.795,-1.65 3.931,-2.77 v 0 c 1.13,-1.12 2.113,-2.41 2.967,-3.8 v 0 c 0.853,-1.38 1.595,-2.89 2.237,-4.45 h 0.001 c 1.277,-3.12 2.197,-6.57 2.79,-9.96 v 0 c 0.349,-2 0.501,-4.26 0.486,-6.66 v 0 c -0.015,-2.4 -0.199,-5 -0.54,-7.72 v 0 c -0.681,-5.42 -2,-11.38 -3.926,-17.27 h -0.001 c -1.925,-5.88 -4.476,-11.75 -7.648,-16.96 v 0 c -3.169,-5.2 -7.025,-9.85 -11.601,-13.17 v 0 c -4.909,-3.56 -9.803,-5.75 -14.666,-6.54 h -0.001 c -2.438,-0.4 -4.841,-0.44 -7.198,-0.14 h -0.001 c -2.363,0.29 -4.652,0.92 -6.862,1.85 h -0.001 c -4.432,1.86 -8.516,4.9 -12.27,8.79 v 0 c -3.784,3.91 -7.295,8.75 -10.551,14.27 v 0 c -1.617,2.74 -3.199,5.85 -4.705,9.16 v 0 c -1.516,3.34 -2.963,6.91 -4.3,10.57 v 0 c -2.696,7.38 -4.957,15.17 -6.436,22.31 v 0 c -0.748,3.6 -1.301,7.06 -1.609,10.24 v 0 c -0.31,3.19 -0.38,6.17 -0.127,8.77 v 0 c 0.128,1.3 0.341,2.56 0.666,3.71 v 0 c 0.325,1.16 0.777,2.28 1.412,3.28 v 0 c 0.644,1.01 1.491,1.93 2.59,2.6 v 0 c 1.117,0.68 2.363,1.02 3.668,1.07 v 0 c 4.632,0.14 8.733,-0.26 12.275,-1.26 h 0.001 c 3.63,-1.02 6.7,-2.67 9.114,-4.98 v 0 c 2.48,-2.38 4.129,-5.34 5.039,-8.7 v 0 c 0.926,-3.43 1.078,-7.25 0.628,-11.33 v 0 c -0.245,-2.23 -0.769,-4.59 -1.523,-7 v 0 c -0.769,-2.45 -1.784,-4.98 -3.016,-7.49 v 0 c -2.535,-5.19 -5.996,-10.35 -10.208,-14.9 v 0 c -4.402,-4.76 -9.607,-8.84 -15.483,-11.68 v 0 c -6.197,-2.99 -13.015,-4.54 -20.295,-4.21 v 0 c -7.609,0.34 -16.293,1.57 -25.658,5.32 h -10e-4 c -11.353,4.53 -21.744,12 -31.123,22.39 h -0.001 c -2.656,2.93 -4.845,5.31 -7.217,7.59 H 234.8 c -0.926,0.9 -1.833,1.73 -2.737,2.52 h -10e-4 c -4.082,3.57 -8.021,6.12 -12.169,8.08 v 0 c -5.388,2.55 -11.275,4.15 -17.652,5.03 v 0 c -6.847,0.95 -15.356,1.22 -26.424,0.26 h -0.001 c -2.086,-0.18 -4.258,-0.43 -6.518,-0.76 h -0.001 c -9.485,-1.4 -20.066,-4.21 -31.586,-8.39 h -0.001 c -13.57,-4.94 -27.022,-11.26 -39.1958,-17.7 h -5e-4 c -15.335,-8.12 -27.8654,-16.01 -34.8854,-20.48 h -4e-4 c -1.6887,-1.07 -3.1293,-1.99 -4.322,-2.75 h -4e-4 c -2.7035,-1.71 -5.103,-3.12 -7.8065,-4.83 h -3e-4 c -0.3191,-0.2 0.3537,0.22 3e-4,0 h -4e-4 c -1.617,-1.03 -4.313,-2.76 -7.4371,-4.84 h -4e-4 c -3.0308,-2.02 -5.2015,-3.53 -6.263,-4.27 -3.5916,-2.51 -8.5398,-1.64 -11.0534,1.95 h -2e-4 c -2.5134,3.59 -1.6408,8.54 1.9493,11.05 v 0 z"
         id="path3145" />
    </g>
  </g>
  <g
     inkscape:groupmode="layer"
     id="layer8"
     inkscape:label="in1"
     style="display:inline;mix-blend-mode:normal;filter:url(#filter5249)"
     transform="translate(135.64822,-908.93024)"
     sodipodi:insensitive="true">
    <g
       id="g3193"
       style="display:inline;opacity:0.601575;filter:url(#filter5253)"
       transform="translate(0,-741.10165)">
      <path
         style="display:inline;mix-blend-mode:normal;fill:none;fill-opacity:1;stroke:#ffb5ce;stroke-width:20px;stroke-linecap:round;stroke-linejoin:round;stroke-miterlimit:4;stroke-dasharray:none;stroke-opacity:1"
         d="M 92.2639,2033.88 C 117.907,1891.93 284.765,1852.24 389.277,1858.01 v 0 c 92.522,5.11 159.468,37.3 210.609,73.46 h 10e-4 c 67.167,47.48 104.587,101.71 119.387,157.51"
         id="path2893" />
      <path
         style="display:inline;mix-blend-mode:normal;fill:none;fill-opacity:1;stroke:#ffb5ce;stroke-width:20px;stroke-linecap:round;stroke-linejoin:round;stroke-miterlimit:4;stroke-dasharray:none;stroke-opacity:1"
         d="m 726.457,2140.12 c 0.592,10.76 0.428,15.84 -0.442,26.57 -7.587,93.59 -92.791,157.09 -179.369,178.86 v 0 c -114.184,28.71 -197.104,2.21 -262.6,-22.77 0,0 -35.131,19.6 -75.415,26.31 h -0.001 c -57.876,9.65 -99.092,-5.26 -99.092,-5.26 v 0 c 0.03,-0.02 22.707,-16.75 41.216,-42.97 v 0 c 20.691,-29.31 25.43,-49.11 25.43,-49.11 v 0 0 c -0.051,-0.04 -79.1502,-65.85 -86.6881,-155.63"
         id="path3014" />
      <path
         style="display:inline;mix-blend-mode:normal;fill:#ffb5ce;fill-opacity:1;fill-rule:nonzero;stroke:#ffb5ce;stroke-width:10px;stroke-linecap:butt;stroke-linejoin:miter;stroke-miterlimit:4;stroke-dasharray:none;stroke-opacity:1"
         d="m 28.6938,2039.02 c 1.1293,0.79 3.4055,2.38 6.5671,4.48 h 4e-4 c 3.2502,2.17 6.0475,3.96 7.7176,5.02 h 4e-4 c 0.3656,0.24 -0.3309,-0.21 -4e-4,0 h 6e-4 c 1.1344,0.73 3.8293,2.56 8.0451,5.03 h 3e-4 c 1.2523,0.74 2.793,1.62 4.5912,2.62 h 4e-4 c 7.395,4.12 21.0651,11.36 37.2904,18.57 h 4e-4 c 12.9647,5.76 27.2627,11.37 41.6677,15.66 v 0 c 12.254,3.65 23.476,6.01 33.679,7.11 h 0.001 c 2.429,0.26 4.771,0.45 7.03,0.56 v 0 c 11.499,0.53 20.642,0.01 28.004,-1.13 h 0.001 c 6.893,-1.05 13.5,-2.83 19.653,-5.75 h 10e-4 c 4.766,-2.27 9.259,-5.2 13.785,-9.23 v 0 c 0.994,-0.88 1.979,-1.81 2.97,-2.79 v 0 c 2.526,-2.5 4.812,-5.04 7.451,-8 v 0 c 8.716,-9.77 18.242,-16.62 28.497,-20.77 h 0.001 c 8.465,-3.42 16.364,-4.58 23.458,-4.92 v 0 c 6.114,-0.28 11.845,1.01 17.116,3.54 v 0 c 5.025,2.43 9.58,5.96 13.506,10.2 h 10e-4 c 3.76,4.07 6.86,8.69 9.124,13.32 v 0 c 1.097,2.24 1.984,4.46 2.643,6.57 v 0 c 0.65,2.07 1.069,4.01 1.258,5.74 v 0 c 0.384,3.51 0.21,6.46 -0.448,8.88 v 0 c -0.633,2.32 -1.715,4.18 -3.238,5.63 l -10e-4,0.01 c -1.497,1.43 -3.547,2.59 -6.317,3.36 v 0 c -2.728,0.76 -6.122,1.13 -10.265,0.99 v 0 c -0.232,-0.01 -0.337,-0.06 -0.401,-0.1 v 0 c -0.088,-0.05 -0.228,-0.16 -0.424,-0.47 v 0 c -0.2,-0.32 -0.42,-0.8 -0.615,-1.5 v 0 c -0.193,-0.7 -0.346,-1.55 -0.442,-2.56 v 0 c -0.194,-2.03 -0.149,-4.54 0.139,-7.46 v 0 c 0.284,-2.89 0.799,-6.11 1.513,-9.53 v 0 c 1.414,-6.78 3.589,-14.26 6.193,-21.36 v 0 c 1.289,-3.52 2.677,-6.93 4.118,-10.09 v 0 c 1.434,-3.14 2.912,-6.02 4.385,-8.51 v 0 c 3.073,-5.2 6.282,-9.56 9.604,-12.98 h 10e-4 c 3.298,-3.4 6.646,-5.81 10.019,-7.22 h 0.001 c 1.674,-0.69 3.36,-1.15 5.064,-1.36 h 0.001 c 1.698,-0.21 3.442,-0.17 5.24,0.12 v 0 c 3.583,0.6 7.488,2.26 11.72,5.34 h 10e-4 c 3.611,2.64 6.886,6.51 9.732,11.2 v 0 c 2.834,4.67 5.169,10.03 6.953,15.51 v 0 c 1.783,5.48 2.992,11.01 3.607,15.98 v 0 c 0.307,2.48 0.463,4.8 0.471,6.89 v 0 c 0.009,2.1 -0.13,3.92 -0.394,5.4 v 0 c -0.533,3 -1.338,5.94 -2.392,8.49 v 0 c -0.528,1.28 -1.106,2.43 -1.728,3.43 v 0 c -0.624,1.01 -1.272,1.83 -1.926,2.47 v 0 c -0.654,0.64 -1.291,1.08 -1.898,1.36 h -10e-4 c -0.597,0.27 -1.211,0.4 -1.876,0.39 v 0 c -0.676,-0.01 -1.497,-0.17 -2.488,-0.61 v 0 c -1.004,-0.44 -2.171,-1.15 -3.497,-2.26 h -0.001 c -0.29,-0.24 -0.534,-0.54 -0.735,-0.94 v 0 c -0.206,-0.4 -0.381,-0.94 -0.484,-1.63 v 0 c -0.105,-0.69 -0.134,-1.51 -0.066,-2.47 v 0 c 0.067,-0.96 0.229,-2.02 0.488,-3.17 v 0 c 0.522,-2.32 1.418,-4.93 2.631,-7.69 v 0 c 1.217,-2.78 2.732,-5.67 4.455,-8.54 v 0 c 3.492,-5.81 7.767,-11.43 12.054,-15.84 v 0 c 2.166,-2.22 4.298,-4.1 6.303,-5.55 h 10e-4 c 2.041,-1.47 3.835,-2.41 5.317,-2.86 h 0.001 c 2.006,-0.62 4.197,-0.85 6.541,-0.67 v 0 c 2.371,0.18 4.901,0.78 7.539,1.82 h 10e-4 c 5.378,2.14 11.095,6.09 16.663,11.9 h 0.001 c 0.035,0.03 0.07,0.07 0.105,0.11 h 0.001 c 10.7,11.2 21.591,30.1 27.751,57.84 v 0 c 2.948,13.27 5.242,29.04 6.786,45.52 v 0 c 1.499,15.99 2.278,32.54 2.25,47.59 v 0.01 c -0.013,7.38 -0.222,14.38 -0.632,20.73 v 0 c -0.406,6.28 -1.007,11.89 -1.805,16.57 v 0 c -0.395,2.32 -0.834,4.38 -1.313,6.17 v 0 c -0.479,1.79 -0.985,3.25 -1.501,4.39 v 0 c -0.255,0.56 -0.502,1.02 -0.736,1.39 v 0.01 c -0.234,0.37 -0.437,0.62 -0.597,0.79 v 0 c -0.159,0.16 -0.249,0.21 -0.261,0.22 v 0 c -0.008,0.01 0.072,-0.02 0.152,-0.03 h -0.001 c -0.151,0.02 -0.358,0 -0.642,-0.07 h -10e-4 c -0.288,-0.09 -0.653,-0.24 -1.094,-0.51 v 0 c -0.894,-0.54 -1.959,-1.47 -3.15,-2.87 v 0 c -1.17,-1.38 -2.389,-3.12 -3.622,-5.2 v 0 c -1.221,-2.07 -2.434,-4.43 -3.608,-7.04 v -0.01 c -2.327,-5.17 -4.471,-11.25 -6.191,-17.75 v 0 c -1.698,-6.41 -2.972,-13.18 -3.59,-19.78 v 0 c -0.005,-0.05 -0.011,-0.1 -0.017,-0.15 v 0 c -1.464,-10.63 -1.167,-23.43 0.612,-37.21 v 0 c 1.761,-13.63 4.958,-28.1 9.225,-42.07 v 0 c 4.238,-13.89 9.512,-27.23 15.417,-38.71 v 0 c 2.94,-5.71 6.026,-10.93 9.204,-15.52 v 0 c 3.157,-4.55 6.381,-8.44 9.614,-11.54 v 0 c 0.925,-0.78 2.156,-1.4 3.715,-1.78 v 0 c 1.596,-0.4 3.483,-0.54 5.6,-0.39 h 10e-4 c 4.241,0.3 9.156,1.73 13.959,4.19 h 10e-4 c 4.79,2.44 9.345,5.84 12.914,9.94 v 0 c 1.782,2.05 3.307,4.26 4.497,6.6 v 0 c 1.19,2.35 2.044,4.82 2.487,7.41 v 0 c 0.543,3.17 0.564,6.12 0.18,8.84 v 0 c -0.385,2.73 -1.181,5.27 -2.3,7.63 v 0 c -2.249,4.75 -5.82,8.82 -10.013,12.22 h -10e-4 c -4.214,3.41 -8.99,6.1 -13.512,8.08 h -0.001 c -2.268,1 -4.461,1.81 -6.473,2.45 v 0 c -2.023,0.64 -3.847,1.09 -5.371,1.38 h -0.001 c -2.639,0.51 -5.129,1.04 -7.655,1.45 v 0 c -2.519,0.41 -4.82,0.65 -6.849,0.57 v 0 c -1.014,-0.05 -1.927,-0.17 -2.739,-0.37 v 0 c -0.815,-0.21 -1.516,-0.5 -2.123,-0.87 h -10e-4 c -0.604,-0.37 -1.138,-0.84 -1.601,-1.44 v 0 c -0.469,-0.6 -0.888,-1.38 -1.222,-2.37 v 0 c -0.115,-0.35 -0.174,-0.68 -0.186,-1.01 v 0 c -0.013,-0.33 0.022,-0.67 0.109,-1.04 v 0 c 0.178,-0.74 0.577,-1.57 1.244,-2.49 h 10e-4 c 0.672,-0.92 1.579,-1.86 2.693,-2.82 h 10e-4 c 1.122,-0.96 2.426,-1.9 3.856,-2.82 v 0 c 2.912,-1.85 6.28,-3.52 9.597,-4.91 h 0.001 c 3.403,-1.42 6.72,-2.52 9.467,-3.24 v 0 c 11.654,-3.01 21.325,-2.59 29.191,-0.78 l 10e-4,0.01 c 8.5,1.96 15.364,5.68 20.621,9.21 h 10e-4 c 8.633,5.8 18.076,11.14 30.613,14.99 h 10e-4 c 14.751,4.53 31.701,6.28 51.464,5.23 v 0 c 29.827,-1.6 55.722,-7.19 75.153,-14.13 h 0.001 c 8,-2.86 14.449,-5.77 19.575,-8.38 v 0 c 6.46,-3.28 11.415,-6.38 14.906,-8.74 h 10e-4 c 6.36,-4.3 11.24,-8.39 15.076,-12.62 v 0 c 5.149,-5.66 8.164,-11.01 9.886,-14.29 v 0 c 1.161,-2.22 0.307,-4.95 -1.906,-6.11 h -0.001 c -2.214,-1.17 -4.95,-0.32 -6.114,1.9 v 0 c -1.544,2.94 -4.247,7.29 -8.671,12.52 v 0 c -3.126,3.7 -7.28,8.22 -12.706,12.54 v 0 c -3.087,2.46 -7.488,5.61 -13.565,8.96 v 0 c -4.788,2.63 -10.911,5.58 -18.591,8.48 v 0 c -18.687,7.07 -43.996,12.82 -73.345,14.61 v 0 c -19.284,1.18 -35.639,-0.44 -49.733,-4.68 v 0 c -11.952,-3.59 -20.986,-8.64 -29.389,-14.25 v 0 c -5.573,-3.71 -12.975,-7.73 -22.209,-9.87 v 0 c -8.58,-1.98 -19.026,-2.42 -31.455,0.77 v 0 c -2.984,0.76 -6.519,1.93 -10.122,3.41 h -10e-4 c -3.505,1.45 -7.141,3.23 -10.357,5.25 v 0 c -1.583,1 -3.087,2.07 -4.428,3.2 v 0 c -1.324,1.12 -2.523,2.33 -3.486,3.63 h -10e-4 c -0.952,1.27 -1.714,2.69 -2.1,4.23 v 0 c -0.193,0.76 -0.291,1.56 -0.271,2.37 v 0 c 0.02,0.81 0.156,1.63 0.416,2.43 v 0 c 0.474,1.46 1.125,2.75 1.96,3.86 l 10e-4,0.01 c 0.831,1.1 1.818,2 2.928,2.7 h 0.001 c 1.098,0.69 2.287,1.18 3.521,1.51 h 0.001 c 1.222,0.33 2.496,0.5 3.786,0.57 v 0 c 2.543,0.14 5.25,-0.13 7.91,-0.53 v 0 c 2.625,-0.39 5.331,-0.94 7.819,-1.38 v 0 c 1.766,-0.32 3.804,-0.82 6.008,-1.5 v 0 c 2.197,-0.68 4.578,-1.55 7.034,-2.6 v 0 c 4.875,-2.11 10.117,-5 14.82,-8.77 v 0 c 4.674,-3.74 8.894,-8.41 11.628,-14.1 h 0.001 c 1.365,-2.84 2.355,-5.92 2.844,-9.25 v 0 c 0.488,-3.32 0.471,-6.86 -0.15,-10.61 v 0 c -0.53,-3.2 -1.563,-6.23 -2.976,-9.06 v 0 c -1.412,-2.82 -3.202,-5.43 -5.251,-7.82 v 0 c -4.089,-4.75 -9.246,-8.62 -14.614,-11.41 v 0 c -5.36,-2.78 -11.046,-4.53 -16.237,-4.93 h -0.001 c -2.605,-0.2 -5.145,-0.07 -7.484,0.49 v 0 c -2.347,0.55 -4.539,1.55 -6.358,3.1 v 0 c -0.035,0.03 -0.074,0.07 -0.114,0.11 h -10e-4 c -3.637,3.44 -7.158,7.68 -10.522,12.5 v 0 c -3.374,4.84 -6.612,10.3 -9.668,16.2 v 0 c -6.136,11.84 -11.576,25.53 -15.938,39.71 v 0 c -4.393,14.28 -7.704,29.08 -9.549,43.11 v 0 c -1.853,14.09 -2.237,27.48 -0.713,38.85 v 0 c 0.627,6.99 1.937,14.1 3.683,20.81 v 0 c 1.772,6.82 4.004,13.26 6.469,18.81 v 0 c 1.246,2.81 2.56,5.41 3.915,7.73 v 0 c 1.363,2.34 2.788,4.42 4.257,6.17 v 0 c 1.47,1.75 3.057,3.26 4.756,4.31 v 0 c 0.863,0.54 1.786,0.98 2.764,1.27 v 0 c 0.988,0.3 2.029,0.43 3.099,0.36 v 0 c 0.925,-0.07 1.785,-0.34 2.56,-0.74 v 0 c 0.766,-0.41 1.425,-0.93 1.989,-1.51 v 0 c 0.565,-0.58 1.059,-1.23 1.496,-1.91 v 0 c 0.438,-0.69 0.836,-1.44 1.199,-2.23 v 0 c 0.726,-1.59 1.354,-3.43 1.904,-5.46 v 0 c 0.554,-2.04 1.042,-4.33 1.47,-6.8 v 0 c 0.862,-4.99 1.496,-10.86 1.923,-17.3 v 0 c 0.432,-6.52 0.654,-13.67 0.677,-21.17 v 0 c 0.049,-15.29 -0.723,-32.06 -2.226,-48.27 v 0 c -1.547,-16.69 -3.864,-32.76 -6.882,-46.4 v 0 c -6.364,-28.78 -17.763,-48.94 -29.527,-61.26 v 0 c -0.039,-0.04 -0.078,-0.08 -0.117,-0.13 v 0 c -6.108,-6.37 -12.655,-11 -19.198,-13.59 h -0.001 c -3.223,-1.28 -6.463,-2.07 -9.645,-2.31 v 0 c -3.156,-0.24 -6.25,0.06 -9.186,0.96 v 0 c -2.484,0.77 -4.991,2.16 -7.412,3.91 v 0 c -2.42,1.75 -4.865,3.92 -7.247,6.38 v 0 c -4.706,4.84 -9.307,10.91 -13.05,17.15 v 0 c -1.855,3.09 -3.514,6.25 -4.867,9.35 v 0 c -1.342,3.07 -2.406,6.12 -3.051,9 v 0 c -0.322,1.44 -0.544,2.86 -0.639,4.23 v 0 c -0.095,1.38 -0.065,2.73 0.134,4.04 h 0.001 c 0.199,1.31 0.573,2.6 1.184,3.8 v 0 c 0.614,1.2 1.454,2.29 2.54,3.19 v 0 c 1.728,1.43 3.46,2.53 5.2,3.29 v 0 c 1.742,0.76 3.498,1.17 5.245,1.19 v 0 c 1.749,0.02 3.393,-0.35 4.9,-1.04 v 0 c 1.49,-0.68 2.796,-1.65 3.932,-2.77 v 0 c 1.13,-1.12 2.113,-2.41 2.967,-3.8 v 0 c 0.853,-1.38 1.595,-2.89 2.237,-4.45 h 0.001 c 1.277,-3.12 2.197,-6.57 2.79,-9.96 v 0 c 0.349,-2.01 0.501,-4.26 0.486,-6.66 v 0 c -0.015,-2.4 -0.199,-5 -0.54,-7.72 v 0 c -0.681,-5.42 -2,-11.38 -3.926,-17.27 h -0.001 c -1.925,-5.88 -4.475,-11.75 -7.648,-16.96 v 0 c -3.169,-5.2 -7.025,-9.85 -11.601,-13.17 v 0 c -4.909,-3.56 -9.803,-5.75 -14.666,-6.54 v 0 c -2.438,-0.4 -4.842,-0.44 -7.199,-0.15 h -0.001 c -2.362,0.3 -4.652,0.93 -6.862,1.86 v 0 c -4.433,1.86 -8.517,4.9 -12.271,8.79 v 0 c -3.784,3.91 -7.295,8.75 -10.551,14.27 v 0 c -1.617,2.74 -3.199,5.85 -4.705,9.16 v 0 c -1.516,3.34 -2.963,6.9 -4.3,10.56 v 0 c -2.696,7.39 -4.957,15.18 -6.436,22.32 v 0 c -0.748,3.6 -1.301,7.06 -1.609,10.24 v 0 c -0.31,3.19 -0.38,6.17 -0.127,8.76 v 0 c 0.127,1.31 0.341,2.56 0.666,3.72 v 0 c 0.325,1.16 0.777,2.28 1.412,3.28 v 0 c 0.644,1.01 1.491,1.92 2.59,2.59 v 0 c 1.116,0.69 2.363,1.03 3.668,1.07 v 0 c 4.632,0.15 8.733,-0.26 12.275,-1.25 v 0 c 3.631,-1.02 6.701,-2.67 9.115,-4.98 v 0 c 2.48,-2.38 4.129,-5.34 5.039,-8.7 v 0 c 0.926,-3.43 1.078,-7.25 0.628,-11.33 v 0 c -0.245,-2.23 -0.769,-4.59 -1.523,-7 v 0 c -0.769,-2.45 -1.784,-4.98 -3.016,-7.49 v 0 c -2.535,-5.19 -5.995,-10.35 -10.208,-14.91 v 0 c -4.402,-4.76 -9.607,-8.83 -15.483,-11.67 v 0 c -6.197,-2.99 -13.015,-4.54 -20.295,-4.21 v 0 c -7.609,0.34 -16.293,1.57 -25.658,5.32 h -10e-4 c -11.353,4.53 -21.744,12 -31.123,22.39 h -0.001 c -2.656,2.93 -4.845,5.31 -7.217,7.59 H 234.8 c -0.926,0.9 -1.833,1.73 -2.737,2.52 h -10e-4 c -4.082,3.57 -8.021,6.12 -12.169,8.08 v 0 c -5.388,2.55 -11.275,4.15 -17.652,5.03 v 0 c -6.846,0.95 -15.355,1.22 -26.424,0.26 v 0 c -2.087,-0.18 -4.259,-0.43 -6.519,-0.76 h -0.001 c -9.485,-1.4 -20.066,-4.21 -31.586,-8.39 h -0.001 c -13.57,-4.94 -27.022,-11.26 -39.1958,-17.7 h -3e-4 c -15.335,-8.12 -27.8655,-16.01 -34.8856,-20.48 h -2e-4 c -1.6888,-1.07 -3.1295,-1.99 -4.3222,-2.75 h -2e-4 c -2.7036,-1.71 -5.1031,-3.12 -7.8067,-4.83 h -2e-4 c -0.3195,-0.21 0.3537,0.22 2e-4,0 h -2e-4 c -1.617,-1.03 -4.3131,-2.76 -7.4373,-4.84 h -2e-4 c -3.0309,-2.02 -5.2017,-3.53 -6.2632,-4.27 -3.5916,-2.52 -8.5398,-1.64 -11.0534,1.95 h -3e-4 c -2.5132,3.59 -1.6406,8.54 1.9494,11.05 z"
         id="path3143" />
    </g>
  </g>
  <g
     inkscape:groupmode="layer"
     id="layer6"
     inkscape:label="top"
     style="display:inline;opacity:0.660422;filter:url(#filter5253)"
     transform="translate(135.64822,-908.93024)"
     sodipodi:insensitive="true">
    <g
       id="g3198"
       transform="translate(0,16.53739)">
      <path
         style="display:inline;mix-blend-mode:normal;fill:#ffffff;fill-opacity:1;fill-rule:nonzero;stroke:#ffffff;stroke-width:10;stroke-linecap:butt;stroke-linejoin:miter;stroke-miterlimit:4;stroke-dasharray:none;stroke-opacity:1"
         d="m 28.693801,1281.4124 c 1.129337,0.7905 3.405541,2.373 6.567084,4.4787 3.250388,2.1649 6.047806,3.9582 7.718036,5.0205 0.366383,0.233 -0.330622,-0.2113 0,0 1.134102,0.7247 3.829204,2.5566 8.045663,5.0308 1.25235,0.7349 2.793175,1.6159 4.591506,2.618 7.394884,4.1209 21.065162,11.3566 37.290855,18.5662 12.965035,5.7608 27.262945,11.3757 41.668075,15.6633 12.25382,3.6472 23.47566,6.0052 33.67928,7.1073 2.4289,0.2623 4.77138,0.4468 7.03036,0.5581 11.49886,0.5345 20.6427,0.01 28.00447,-1.1217 6.8937,-1.0589 13.50063,-2.8388 19.65402,-5.7595 4.76695,-2.2626 9.25942,-5.1958 13.78558,-9.2249 0.99435,-0.8851 1.97948,-1.8127 2.97026,-2.7921 2.52624,-2.4973 4.81231,-5.0344 7.4512,-7.9998 8.71529,-9.7641 18.24138,-16.6234 28.4972,-20.7687 8.46566,-3.4217 16.36486,-4.5833 23.45838,-4.9181 6.11425,-0.2846 11.84561,1.0044 17.11628,3.5429 5.02476,2.4201 9.57958,5.9549 13.50634,10.198 3.76022,4.0632 6.86102,8.6901 9.12442,13.3171 1.09692,2.2424 1.98379,4.4586 2.64348,6.5671 0.64979,2.077 1.06914,4.0178 1.25807,5.7431 0.38396,3.5058 0.20975,6.4566 -0.44819,8.8767 -0.63263,2.327 -1.7154,4.183 -3.23851,5.6381 -1.49692,1.4301 -3.54787,2.5951 -6.31766,3.367 -2.72815,0.7603 -6.12151,1.1289 -10.2648,0.9907 -0.23173,-0.01 -0.33758,-0.06 -0.40097,-0.1 -0.0878,-0.055 -0.22823,-0.1654 -0.42394,-0.476 -0.20013,-0.3177 -0.42005,-0.8002 -0.61499,-1.5003 -0.19294,-0.6928 -0.34581,-1.5424 -0.44272,-2.5562 -0.19357,-2.0251 -0.14885,-4.5404 0.13897,-7.464 0.28449,-2.8898 0.79912,-6.1061 1.51305,-9.5279 1.41459,-6.7801 3.5896,-14.259 6.19365,-21.3621 1.28869,-3.5151 2.67642,-6.9214 4.11727,-10.0814 1.43462,-3.1464 2.91274,-6.0285 4.3854,-8.517 3.07258,-5.1925 6.28182,-9.558 9.6045,-12.9814 3.2983,-3.3983 6.64694,-5.8053 10.01983,-7.2121 1.67409,-0.6982 3.36058,-1.1531 5.06496,-1.3622 1.69874,-0.2084 3.44242,-0.1761 5.24059,0.1215 3.58309,0.5931 7.48785,2.2594 11.72041,5.3411 3.61202,2.6308 6.88696,6.5009 9.73294,11.1922 2.83335,4.6704 5.16852,10.0348 6.95246,15.5176 1.78295,5.4797 2.99249,11.0075 3.60694,15.9737 0.30723,2.4832 0.46304,4.8047 0.47193,6.8931 0.009,2.0982 -0.13071,3.9141 -0.39415,5.3986 -0.53306,3.0043 -1.33847,5.9432 -2.39262,8.4918 -0.52724,1.2747 -1.10615,2.4262 -1.72734,3.4277 -0.62416,1.0064 -1.27189,1.8305 -1.926,2.4727 -0.65409,0.6422 -1.29081,1.0796 -1.89832,1.3539 -0.5972,0.2696 -1.21177,0.4031 -1.87666,0.3931 -0.67537,-0.01 -1.49675,-0.1704 -2.488,-0.6048 -1.00402,-0.4401 -2.17108,-1.1571 -3.4977,-2.2595 -0.29085,-0.2422 -0.53461,-0.5457 -0.73534,-0.9417 -0.20627,-0.407 -0.38094,-0.943 -0.48445,-1.6296 -0.10458,-0.6937 -0.13359,-1.5168 -0.0663,-2.4731 0.0673,-0.9568 0.2289,-2.0164 0.48806,-3.1693 0.52215,-2.3229 1.41849,-4.9283 2.63127,-7.6943 1.21721,-2.776 2.73185,-5.6654 4.45506,-8.535 3.49183,-5.8149 7.76687,-11.4293 12.05365,-15.8367 2.16665,-2.2277 4.29867,-4.1086 6.30376,-5.5543 2.04098,-1.4716 3.83576,-2.4091 5.31777,-2.8626 2.00625,-0.6143 4.19724,-0.8455 6.54135,-0.6679 2.3709,0.1795 4.90121,0.7778 7.53968,1.8243 5.37817,2.1332 11.09535,6.0847 16.66403,11.8907 0.0354,0.037 0.0708,0.074 0.10616,0.1109 10.70038,11.2056 21.59119,30.1047 27.75191,57.8442 2.9479,13.2733 5.24151,29.0352 6.78599,45.516 1.49913,15.9971 2.27796,32.5413 2.24992,47.5987 -0.0137,7.3818 -0.22174,14.3816 -0.63189,20.7303 -0.40592,6.283 -1.00776,11.8936 -1.80493,16.5716 -0.39513,2.3187 -0.83434,4.3849 -1.31369,6.1744 -0.47897,1.7881 -0.9846,3.2491 -1.50022,4.3874 -0.25533,0.5637 -0.50286,1.0254 -0.73631,1.396 -0.23412,0.3717 -0.43718,0.6249 -0.59705,0.7909 -0.15919,0.1654 -0.24945,0.2176 -0.261,0.2257 -0.01,0.01 0.0713,-0.025 0.15146,-0.03 -0.15111,0.014 -0.35845,0 -0.64265,-0.076 -0.28876,-0.081 -0.65393,-0.2354 -1.09496,-0.5041 -0.89348,-0.5443 -1.9588,-1.4742 -3.14972,-2.8736 -1.17011,-1.3749 -2.3895,-3.1179 -3.62204,-5.202 -1.22054,-2.0637 -2.43399,-4.428 -3.60853,-7.0405 -2.32645,-5.1748 -4.47074,-11.259 -6.19049,-17.7522 -1.69854,-6.4132 -2.97184,-13.1855 -3.59057,-19.7839 a 0.13318017,1.1183374 0.30136639 0 0 -0.0165,-0.1446 c -1.46459,-10.6303 -1.16681,-23.4346 0.61193,-37.2094 1.76121,-13.639 4.95838,-28.101 9.22459,-42.0788 4.23783,-13.8847 9.51194,-27.2284 15.41762,-38.7013 2.93996,-5.7115 6.02603,-10.9388 9.20356,-15.5241 3.15687,-4.5555 6.38118,-8.4443 9.61399,-11.5374 0.925,-0.7866 2.15634,-1.4022 3.71482,-1.7876 1.5956,-0.3947 3.48353,-0.5342 5.60078,-0.3859 4.24112,0.2971 9.15671,1.7327 13.96006,4.1864 4.79022,2.4469 9.3454,5.844 12.91433,9.9445 1.78192,2.0474 3.30751,4.258 4.4974,6.601 1.19006,2.3434 2.04419,4.8188 2.48712,7.4035 0.5427,3.1785 0.56408,6.1212 0.17983,8.8449 -0.38498,2.7289 -1.18145,5.2683 -2.30029,7.6303 -2.24895,4.7478 -5.81968,8.8155 -10.01322,12.2148 -4.21425,3.416 -8.99087,6.1024 -13.51271,8.0851 -2.2687,0.9948 -4.4618,1.8075 -6.47375,2.4447 -2.02264,0.6406 -3.84694,1.0992 -5.37141,1.3894 -2.6397,0.505 -5.12987,1.0398 -7.65564,1.4493 -2.5187,0.4084 -4.82027,0.6454 -6.84901,0.5616 -1.01429,-0.042 -1.92678,-0.1632 -2.73918,-0.3685 -0.81485,-0.2059 -1.51619,-0.4924 -2.12335,-0.8639 -0.60476,-0.37 -1.13901,-0.8392 -1.60147,-1.4387 -0.46856,-0.6075 -0.88847,-1.3815 -1.22169,-2.3776 -0.11571,-0.343 -0.17457,-0.6757 -0.18673,-1.0037 -0.0123,-0.3308 0.0223,-0.6763 0.10957,-1.0414 0.17762,-0.7431 0.57644,-1.576 1.24408,-2.4884 0.67264,-0.9193 1.57952,-1.8664 2.69401,-2.8212 1.12264,-0.9619 2.42632,-1.9064 3.85664,-2.8174 2.91214,-1.8547 6.28018,-3.527 9.59711,-4.9112 3.40411,-1.4206 6.721,-2.5248 9.4677,-3.239 11.65446,-3.0172 21.32547,-2.5976 29.19128,-0.7794 8.50102,1.965 15.36431,5.6824 20.62197,9.216 8.63367,5.7953 18.07677,11.1402 30.61399,14.9884 14.75183,4.528 31.70221,6.2826 51.46471,5.2296 29.82739,-1.5947 55.72177,-7.184 75.15356,-14.1311 8.00032,-2.8603 14.44953,-5.7671 19.57526,-8.3752 6.46058,-3.2872 11.41535,-6.3831 14.90681,-8.7435 6.3602,-4.3 11.24096,-8.3939 15.07667,-12.6146 5.1493,-5.666 8.1644,-11.0163 9.88597,-14.2951 a 4.5298606,4.5298606 90 0 0 -8.02128,-4.2116 c -1.54343,2.9396 -4.24621,7.2949 -8.6706,12.5269 -3.12584,3.6964 -7.28004,8.2157 -12.70589,12.5395 -3.08718,2.4601 -7.48851,5.6036 -13.56559,8.9514 -4.78784,2.6375 -10.91086,5.5808 -18.59051,8.4865 -18.68685,7.0703 -43.99572,12.8189 -73.34504,14.6068 -19.28426,1.1788 -35.63946,-0.4388 -49.73284,-4.6784 -11.95211,-3.5954 -20.98646,-8.6424 -29.38948,-14.2482 -5.5726,-3.7141 -12.97465,-7.7304 -22.20858,-9.8685 -8.58033,-1.9868 -19.02642,-2.425 -31.45505,0.7665 -2.98395,0.7633 -6.51901,1.9281 -10.12246,3.4141 -3.50535,1.4455 -7.14187,3.2229 -10.35753,5.2468 -1.58336,0.9966 -3.08675,2.0668 -4.42805,3.201 -1.324,1.1195 -2.52339,2.3295 -3.48659,3.6232 -0.95255,1.2793 -1.71486,2.6954 -2.10071,4.232 -0.19261,0.7671 -0.29055,1.5616 -0.27072,2.3755 0.0198,0.8116 0.15623,1.6233 0.41632,2.4259 0.47346,1.4628 1.12479,2.7536 1.96007,3.866 0.83116,1.1069 1.81814,2.0017 2.92896,2.7037 1.09816,0.6939 2.28764,1.1807 3.52181,1.5106 1.22294,0.3269 2.49707,0.5017 3.78683,0.5713 2.54292,0.1371 5.24937,-0.1308 7.90964,-0.5307 2.62463,-0.3945 5.33165,-0.9394 7.81905,-1.3841 1.76575,-0.319 3.8037,-0.8178 6.00786,-1.4984 2.1976,-0.6787 4.57783,-1.5435 7.03392,-2.6021 4.87551,-2.1013 10.11768,-4.9957 14.82007,-8.7622 4.6745,-3.7442 8.89472,-8.4146 11.62884,-14.0996 1.36515,-2.8385 2.35543,-5.9218 2.84409,-9.2501 0.488,-3.3239 0.47134,-6.8623 -0.14963,-10.6102 -0.52947,-3.2032 -1.56245,-6.2344 -2.97602,-9.0599 -1.41147,-2.8212 -3.20176,-5.4363 -5.25082,-7.8191 -4.08936,-4.7553 -9.24561,-8.628 -14.61376,-11.4117 -5.35982,-2.7793 -11.04597,-4.5321 -16.23781,-4.9344 -2.60505,-0.2018 -5.14537,-0.068 -7.48461,0.4884 -2.3468,0.5585 -4.53902,1.5552 -6.35817,3.1076 a 0.12650843,1.0272958 40.865864 0 0 -0.11417,0.1032 c -3.63727,3.4452 -7.15873,7.6834 -10.52245,12.5065 -3.3737,4.8375 -6.61183,10.2967 -9.66823,16.1966 -6.13553,11.8436 -11.5757,25.534 -15.9378,39.7106 -4.39259,14.2757 -7.70444,29.0824 -9.54887,43.1086 -1.85343,14.0946 -2.23674,27.4816 -0.71292,38.8527 0.6263,6.9834 1.93681,14.0987 3.68236,20.8097 1.77223,6.8136 4.00438,13.2567 6.46964,18.8126 1.24604,2.8083 2.5592,5.4072 3.91488,7.7285 1.36302,2.3339 2.78822,4.4203 4.25705,6.1698 1.46936,1.7502 3.05669,3.2526 4.7553,4.31 0.86322,0.5373 1.78648,0.9793 2.76417,1.2699 0.98817,0.2936 2.02955,0.4314 3.09917,0.3545 0.92523,-0.068 1.78523,-0.334 2.55985,-0.7409 0.76613,-0.4024 1.42504,-0.9292 1.98918,-1.5049 0.56482,-0.5765 1.05921,-1.227 1.49569,-1.9119 0.43877,-0.6884 0.83643,-1.4389 1.19954,-2.2319 0.72585,-1.585 1.35408,-3.4287 1.90344,-5.4558 0.55424,-2.045 1.04224,-4.3292 1.47012,-6.8055 0.862,-4.9887 1.49659,-10.8545 1.92328,-17.2941 0.43205,-6.5205 0.65362,-13.6697 0.67743,-21.1702 0.0485,-15.2944 -0.72372,-32.065 -2.22663,-48.2749 -1.54715,-16.6871 -3.86405,-32.7584 -6.88171,-46.4018 -6.36417,-28.7732 -17.76353,-48.9351 -29.52673,-61.2579 -0.039,-0.041 -0.078,-0.082 -0.11704,-0.1224 -6.10855,-6.3711 -12.65563,-11.0022 -19.19872,-13.5968 -3.2237,-1.2784 -6.46346,-2.0683 -9.64584,-2.3085 -3.1554,-0.2383 -6.24983,0.065 -9.18548,0.9648 -2.48403,0.7617 -4.99079,2.1595 -7.41223,3.9073 -2.41963,1.7465 -4.86491,3.9231 -7.24723,6.3751 -4.7055,4.8431 -9.30647,10.9081 -13.04996,17.1516 -1.85498,3.0937 -3.51349,6.2553 -4.86703,9.3492 -1.34189,3.0673 -2.40607,6.1183 -3.05063,9.0006 -0.3217,1.4385 -0.54427,2.8589 -0.63932,4.2359 -0.0947,1.3712 -0.065,2.7307 0.13461,4.0396 0.19993,1.311 0.57307,2.5937 1.18412,3.7921 0.61456,1.2053 1.45433,2.291 2.54036,3.1906 1.72794,1.4308 3.45992,2.5382 5.20029,3.2956 1.74123,0.7577 3.49728,1.1671 5.24477,1.1867 1.74858,0.02 3.39265,-0.3527 4.90013,-1.0408 1.48992,-0.6801 2.79621,-1.6448 3.9319,-2.7677 1.13011,-1.1175 2.11302,-2.4126 2.96686,-3.7989 0.85285,-1.3846 1.59528,-2.8901 2.23754,-4.4558 1.27768,-3.1146 2.19758,-6.5622 2.79036,-9.9599 0.34962,-2.0013 0.50144,-4.2531 0.48612,-6.6531 -0.0153,-2.4048 -0.19889,-5.0053 -0.53999,-7.721 -0.68107,-5.4222 -2.00039,-11.3834 -3.92641,-17.2693 -1.92507,-5.8831 -4.47596,-11.7511 -7.64831,-16.9596 -3.16892,-5.2028 -7.02492,-9.8572 -11.60086,-13.1757 -4.90955,-3.5607 -9.80356,-5.7457 -14.66652,-6.5383 -2.43803,-0.3974 -4.84131,-0.4399 -7.19922,-0.1444 -2.36292,0.2961 -4.65266,0.9281 -6.86277,1.8564 -4.43259,1.8616 -8.51647,4.9013 -12.27064,8.7848 -3.78414,3.9144 -7.29542,8.75 -10.55099,14.2716 -1.61678,2.7422 -3.19939,5.848 -4.70546,9.163 -1.51533,3.3354 -2.96296,6.9041 -4.29968,10.5643 -2.69553,7.3808 -4.95692,15.1779 -6.43632,22.3133 -0.74735,3.6046 -1.30044,7.0651 -1.60891,10.2449 -0.30949,3.1903 -0.37971,6.1666 -0.12692,8.7611 0.12753,1.309 0.34096,2.5606 0.66584,3.717 0.32494,1.1567 0.77758,2.2761 1.41215,3.2755 0.64354,1.0135 1.49129,1.9285 2.58998,2.5985 1.11638,0.6807 2.36281,1.0288 3.66795,1.0701 4.63218,0.1463 8.73311,-0.26 12.27529,-1.2551 3.63061,-1.0199 6.70086,-2.6673 9.11441,-4.9831 2.48076,-2.3802 4.1299,-5.335 5.03918,-8.699 0.92634,-3.4272 1.07878,-7.2472 0.62875,-11.3307 -0.24507,-2.2241 -0.76949,-4.588 -1.52358,-6.9953 -0.76832,-2.4527 -1.78383,-4.9789 -3.01559,-7.4962 -2.5356,-5.1818 -5.99572,-10.3467 -10.20825,-14.9012 -4.40181,-4.7592 -9.60668,-8.8356 -15.48302,-11.6714 -6.19648,-2.9902 -13.01483,-4.5419 -20.29453,-4.2119 -7.60959,0.3398 -16.29364,1.5717 -25.65887,5.3147 -11.35391,4.5377 -21.74462,12.007 -31.12398,22.3945 -2.65672,2.9322 -4.84535,5.305 -7.21793,7.592 -0.92624,0.8928 -1.83361,1.7281 -2.73815,2.5181 -4.08205,3.565 -8.02156,6.1161 -12.16953,8.0783 -5.38782,2.5487 -11.27513,4.1523 -17.6516,5.0348 -6.84667,0.9476 -15.3558,1.2169 -26.42452,0.2538 -2.08653,-0.1768 -4.25852,-0.4283 -6.51924,-0.7605 -9.48538,-1.3936 -20.06659,-4.2037 -31.58702,-8.3911 -13.57045,-4.9324 -27.02281,-11.2578 -39.196478,-17.7 -15.33518,-8.1153 -27.865766,-16.008 -34.885887,-20.4728 -1.688899,-1.0742 -3.129609,-1.9957 -4.322439,-2.7508 -2.703655,-1.7116 -5.103201,-3.1245 -7.806855,-4.8361 -0.319876,-0.2024 0.35354,0.2249 0,0 -1.617003,-1.0284 -4.313193,-2.757 -7.437484,-4.8379 -3.031077,-2.0188 -5.201847,-3.5282 -6.263418,-4.2713 a 7.9380478,7.9380478 90 0 0 -9.104348,13.0062 z"
         id="path5224"
         sodipodi:nodetypes="cssssssssssssccssssssc"
         inkscape:path-effect="#path-effect5232"
         inkscape:original-d="m 33.245975,1274.9093 c 26.307693,18.4154 92.829665,58.2515 142.304835,61.5317 43.27667,2.8693 56.02494,-10.6999 69.03363,-25.1875 20.25892,-22.5619 41.11292,-26.0897 54.36923,-26.698 27.47316,-1.2607 45.36479,26.6523 47.08677,42.3221 1.69259,15.4023 -6.27763,23.1337 -23.66339,22.5702 -12.31768,-0.3992 -0.67444,-45.7738 11.65354,-66.6462 12.7125,-21.5234 28.34867,-30.4226 46.6002,-17.1616 16.39265,11.9104 24.25355,44.424 21.7998,58.377 -2.24694,12.7771 -9.29428,25.5625 -21.53925,15.4078 -11.00184,-9.1238 15.25498,-49.9879 31.18541,-54.8693 19.67613,-6.0292 50.97782,18.7922 63.13846,73.6615 12.10375,54.6126 12.38322,146.5837 -0.88392,147.5767 -9.78543,0.7323 -22.95137,-29.3115 -25.42377,-56.3767 -6.02729,-44.2284 17.72712,-121.6162 45.25172,-147.7769 11.01082,-9.4652 44.18743,4.6059 48.07894,27.7687 4.65164,27.6872 -26.64815,41.274 -39.83836,43.7159 -10.13925,1.8771 -21.81909,4.9862 -25.05834,-4.8873 -3.00059,-9.146 16.92834,-18.4201 28.56604,-21.4204 23.41066,-6.0354 40.20503,1.0511 51.73846,8.7693 15.57919,10.4256 37.5586,22.0325 80.60051,19.5723 45.26972,-2.5875 109.14906,-16.518 130.73795,-57.6353" />
      <path
         id="path5226"
         style="display:inline;mix-blend-mode:normal;fill:none;stroke:#ffffff;stroke-width:20;stroke-linecap:round;stroke-linejoin:round;stroke-miterlimit:4;stroke-dasharray:none;stroke-opacity:1"
         d="m 92.2639,1276.2698 c 25.64286,-141.9495 192.5015,-181.6367 297.01285,-175.8681 92.52262,5.1067 159.46845,37.2981 210.60948,73.4522 67.1677,47.4843 104.58793,101.7152 119.38789,157.5151"
         sodipodi:nodetypes="ccsc" />
      <path
         id="path1420"
         style="display:inline;mix-blend-mode:normal;fill:none;stroke:#ffffff;stroke-width:20;stroke-linecap:round;stroke-linejoin:round;stroke-miterlimit:4;stroke-dasharray:none;stroke-opacity:1"
         d="m 726.45706,1382.5123 c 0.59173,10.752 0.42787,15.838 -0.44185,26.5663 -7.58755,93.5949 -92.79158,157.0891 -179.36914,178.8607 -114.18376,28.7137 -197.10448,2.2101 -262.60009,-22.7684 0,0 -35.13055,19.5935 -75.41539,26.3077 -57.87691,9.6461 -99.0923,-5.2616 -99.0923,-5.2616 0,0 22.69478,-16.7355 41.21538,-42.9692 20.69082,-29.3078 25.43077,-49.1077 25.43077,-49.1077 v 0 c 0,0 -79.14821,-65.8187 -86.68854,-155.6306"
         sodipodi:nodetypes="csscscsccc" />
    </g>
  </g>
</svg>
