<?xml version="1.0" encoding="UTF-8" standalone="no"?>
<!-- Created with Inkscape (http://www.inkscape.org/) -->

<svg
   inkscape:version="1.1.1 (c3084ef, 2021-09-22)"
   sodipodi:docname="logo_white.svg"
   viewBox="0 0 1063.7352 915.41785"
   height="915.41785"
   width="1063.7352"
   id="svg879"
   version="1.1"
   xmlns:inkscape="http://www.inkscape.org/namespaces/inkscape"
   xmlns:sodipodi="http://sodipodi.sourceforge.net/DTD/sodipodi-0.dtd"
   xmlns="http://www.w3.org/2000/svg"
   xmlns:svg="http://www.w3.org/2000/svg">
  <defs
     id="defs883">
    <inkscape:path-effect
       effect="powerstroke"
       id="path-effect1439"
       is_visible="true"
       lpeversion="1"
       offset_points="0.14669488,7.9380478 | 0.14669488,7.9380478 | 0.21453733,7.9575942 | 1.8162768,3.5052385 | 0.95501767,4.1484184 | 10.501576,3.5898795 | 20.882333,4.5298606 | 20.636317,3.3075663"
       not_jump="false"
       sort_points="true"
       interpolator_type="CentripetalCatmullRom"
       interpolator_beta="0.8"
       start_linecap_type="round"
       linejoin_type="round"
       miter_limit="4"
       scale_width="1"
       end_linecap_type="round" />
    <inkscape:path-effect
       effect="powerstroke"
       id="path-effect5232"
       is_visible="true"
       lpeversion="1"
       offset_points="0.14669488,7.9380478 | 0.14669488,7.9380478 | 0.21453733,7.9575942 | 1.8162768,3.5052385 | 0.95501767,4.1484184 | 10.501576,3.5898795 | 20.882333,4.5298606 | 20.636317,3.3075663"
       not_jump="false"
       sort_points="true"
       interpolator_type="CentripetalCatmullRom"
       interpolator_beta="0.8"
       start_linecap_type="round"
       linejoin_type="round"
       miter_limit="4"
       scale_width="1"
       end_linecap_type="round" />
    <inkscape:path-effect
       effect="powerstroke"
       id="path-effect5197"
       is_visible="true"
       lpeversion="1"
       offset_points="0.14669488,7.9380478 | 0.14669488,7.9380478 | 0.21453733,7.9575942 | 1.8162768,3.5052385 | 0.95501767,4.1484184 | 10.501576,3.5898795 | 20.882333,4.5298606 | 20.636317,3.3075663"
       not_jump="false"
       sort_points="true"
       interpolator_type="CentripetalCatmullRom"
       interpolator_beta="0.8"
       start_linecap_type="round"
       linejoin_type="round"
       miter_limit="4"
       scale_width="1"
       end_linecap_type="round" />
    <inkscape:path-effect
       effect="powerstroke"
       id="path-effect4109"
       is_visible="true"
       lpeversion="1"
       offset_points="0.14669488,7.9380478 | 0.14669488,7.9380478 | 0.21453733,7.9575942 | 1.8162768,3.5052385 | 0.95501767,4.1484184 | 10.501576,3.5898795 | 20.882333,4.5298606 | 20.636317,3.3075663"
       not_jump="false"
       sort_points="true"
       interpolator_type="CentripetalCatmullRom"
       interpolator_beta="0.8"
       start_linecap_type="round"
       linejoin_type="round"
       miter_limit="4"
       scale_width="1"
       end_linecap_type="round" />
    <inkscape:path-effect
       effect="powerstroke"
       id="path-effect4103"
       is_visible="true"
       lpeversion="1"
       offset_points="0.14669488,7.9380478 | 0.14669488,7.9380478 | 0.21453733,7.9575942 | 1.8162768,3.5052385 | 0.95501767,4.1484184 | 10.501576,3.5898795 | 20.882333,4.5298606 | 20.636317,3.3075663"
       not_jump="false"
       sort_points="true"
       interpolator_type="CentripetalCatmullRom"
       interpolator_beta="0.8"
       start_linecap_type="round"
       linejoin_type="round"
       miter_limit="4"
       scale_width="1"
       end_linecap_type="round" />
    <inkscape:path-effect
       effect="powerstroke"
       id="path-effect3833"
       is_visible="true"
       lpeversion="1"
       offset_points="0.14669488,7.9380478 | 0.14669488,7.9380478 | 0.21453733,7.9575942 | 1.8162768,3.5052385 | 0.95501767,4.1484184 | 10.501576,3.5898795 | 20.882333,4.5298606 | 20.636317,3.3075663"
       not_jump="false"
       sort_points="true"
       interpolator_type="CentripetalCatmullRom"
       interpolator_beta="0.8"
       start_linecap_type="round"
       linejoin_type="round"
       miter_limit="4"
       scale_width="1"
       end_linecap_type="round" />
    <inkscape:path-effect
       effect="powerstroke"
       id="path-effect3230"
       is_visible="true"
       lpeversion="1"
       offset_points="0.14669488,7.9380478 | 0.14669488,7.9380478 | 0.21453733,7.9575942 | 1.8162768,3.5052385 | 0.95501767,4.1484184 | 10.501576,3.5898795 | 20.882333,4.5298606 | 20.636317,3.3075663"
       not_jump="false"
       sort_points="true"
       interpolator_type="CentripetalCatmullRom"
       interpolator_beta="0.8"
       start_linecap_type="round"
       linejoin_type="round"
       miter_limit="4"
       scale_width="1"
       end_linecap_type="round" />
    <inkscape:path-effect
       effect="powerstroke"
       id="path-effect3217"
       is_visible="true"
       lpeversion="1"
       offset_points="0.14669488,7.9380478 | 0.14669488,7.9380478 | 0.21453733,7.9575942 | 1.8162768,3.5052385 | 0.95501767,4.1484184 | 10.501576,3.5898795 | 20.882333,4.5298606 | 20.636317,3.3075663"
       not_jump="false"
       sort_points="true"
       interpolator_type="CentripetalCatmullRom"
       interpolator_beta="0.8"
       start_linecap_type="round"
       linejoin_type="round"
       miter_limit="4"
       scale_width="1"
       end_linecap_type="round" />
    <inkscape:path-effect
       effect="powerstroke"
       id="path-effect2770"
       is_visible="true"
       lpeversion="1"
       offset_points="0.14669488,7.9380478 | 0.14669488,7.9380478 | 0.21453733,7.9575942 | 1.8162768,3.5052385 | 0.95501767,4.1484184 | 10.501576,3.5898795 | 20.882333,4.5298606 | 20.636317,3.3075663"
       not_jump="false"
       sort_points="true"
       interpolator_type="CentripetalCatmullRom"
       interpolator_beta="0.8"
       start_linecap_type="round"
       linejoin_type="round"
       miter_limit="4"
       scale_width="1"
       end_linecap_type="round" />
    <inkscape:path-effect
       effect="powerstroke"
       id="path-effect2353"
       is_visible="true"
       lpeversion="1"
       offset_points="0.14669488,7.9380478 | 0.14669488,7.9380478 | 0.21453733,7.9575942 | 1.8162768,3.5052385 | 0.95501767,4.1484184 | 10.501576,3.5898795 | 20.882333,4.5298606 | 20.636317,3.3075663"
       not_jump="false"
       sort_points="true"
       interpolator_type="CentripetalCatmullRom"
       interpolator_beta="0.8"
       start_linecap_type="round"
       linejoin_type="round"
       miter_limit="4"
       scale_width="1"
       end_linecap_type="round" />
    <filter
       inkscape:collect="always"
       style="color-interpolation-filters:sRGB"
       id="filter5253"
       x="-0.011644525"
       y="-0.032498637"
       width="1.0233681"
       height="1.0647631">
      <feGaussianBlur
         inkscape:collect="always"
         stdDeviation="0.5221976"
         id="feGaussianBlur5255" />
    </filter>
  </defs>
  <sodipodi:namedview
     id="namedview881"
     pagecolor="#a19191"
     bordercolor="#666666"
     borderopacity="1.0"
     inkscape:pageshadow="2"
     inkscape:pageopacity="0.79607843"
     inkscape:pagecheckerboard="0"
     showgrid="false"
     inkscape:zoom="0.51986621"
     inkscape:cx="531.86761"
     inkscape:cy="456.84831"
     inkscape:window-width="1440"
     inkscape:window-height="847"
     inkscape:window-x="0"
     inkscape:window-y="25"
     inkscape:window-maximized="0"
     inkscape:current-layer="layer6"
     height="1000px"
     fit-margin-top="0"
     fit-margin-left="0"
     fit-margin-right="0"
     fit-margin-bottom="0" />
  <g
     inkscape:groupmode="layer"
     id="layer6"
     inkscape:label="top"
     style="display:inline;opacity:1;filter:url(#filter5253)"
     transform="translate(135.64822,-908.93024)">
    <path
       style="display:inline;mix-blend-mode:normal;fill:#ffffff;fill-opacity:1;fill-rule:nonzero;stroke:#ffffff;stroke-width:15;stroke-linecap:butt;stroke-linejoin:miter;stroke-miterlimit:4;stroke-dasharray:none;stroke-opacity:1"
       d="m 28.693801,1281.4124 c 1.129337,0.7905 3.405541,2.373 6.567084,4.4787 3.250388,2.1649 6.047806,3.9582 7.718036,5.0205 0.366383,0.233 -0.330622,-0.2113 0,0 1.134102,0.7247 3.829204,2.5566 8.045663,5.0308 1.25235,0.7349 2.793175,1.6159 4.591506,2.618 7.394884,4.1209 21.065162,11.3566 37.290855,18.5662 12.965035,5.7608 27.262945,11.3757 41.668075,15.6633 12.25382,3.6472 23.47566,6.0052 33.67928,7.1073 2.4289,0.2623 4.77138,0.4468 7.03036,0.5581 11.49886,0.5345 20.6427,0.01 28.00447,-1.1217 6.8937,-1.0589 13.50063,-2.8388 19.65402,-5.7595 4.76695,-2.2626 9.25942,-5.1958 13.78558,-9.2249 0.99435,-0.8851 1.97948,-1.8127 2.97026,-2.7921 2.52624,-2.4973 4.81231,-5.0344 7.4512,-7.9998 8.71529,-9.7641 18.24138,-16.6234 28.4972,-20.7687 8.46566,-3.4217 16.36486,-4.5833 23.45838,-4.9181 6.11425,-0.2846 11.84561,1.0044 17.11628,3.5429 5.02476,2.4201 9.57958,5.9549 13.50634,10.198 3.76022,4.0632 6.86102,8.6901 9.12442,13.3171 1.09692,2.2424 1.98379,4.4586 2.64348,6.5671 0.64979,2.077 1.06914,4.0178 1.25807,5.7431 0.38396,3.5058 0.20975,6.4566 -0.44819,8.8767 -0.63263,2.327 -1.7154,4.183 -3.23851,5.6381 -1.49692,1.4301 -3.54787,2.5951 -6.31766,3.367 -2.72815,0.7603 -6.12151,1.1289 -10.2648,0.9907 -0.23173,-0.01 -0.33758,-0.06 -0.40097,-0.1 -0.0878,-0.055 -0.22823,-0.1654 -0.42394,-0.476 -0.20013,-0.3177 -0.42005,-0.8002 -0.61499,-1.5003 -0.19294,-0.6928 -0.34581,-1.5424 -0.44272,-2.5562 -0.19357,-2.0251 -0.14885,-4.5404 0.13897,-7.464 0.28449,-2.8898 0.79912,-6.1061 1.51305,-9.5279 1.41459,-6.7801 3.5896,-14.259 6.19365,-21.3621 1.28869,-3.5151 2.67642,-6.9214 4.11727,-10.0814 1.43462,-3.1464 2.91274,-6.0285 4.3854,-8.517 3.07258,-5.1925 6.28182,-9.558 9.6045,-12.9814 3.2983,-3.3983 6.64694,-5.8053 10.01983,-7.2121 1.67409,-0.6982 3.36058,-1.1531 5.06496,-1.3622 1.69874,-0.2084 3.44242,-0.1761 5.24059,0.1215 3.58309,0.5931 7.48785,2.2594 11.72041,5.3411 3.61202,2.6308 6.88696,6.5009 9.73294,11.1922 2.83335,4.6704 5.16852,10.0348 6.95246,15.5176 1.78295,5.4797 2.99249,11.0075 3.60694,15.9737 0.30723,2.4832 0.46304,4.8047 0.47193,6.8931 0.009,2.0982 -0.13071,3.9141 -0.39415,5.3986 -0.53306,3.0043 -1.33847,5.9432 -2.39262,8.4918 -0.52724,1.2747 -1.10615,2.4262 -1.72734,3.4277 -0.62416,1.0064 -1.27189,1.8305 -1.926,2.4727 -0.65409,0.6422 -1.29081,1.0796 -1.89832,1.3539 -0.5972,0.2696 -1.21177,0.4031 -1.87666,0.3931 -0.67537,-0.01 -1.49675,-0.1704 -2.488,-0.6048 -1.00402,-0.4401 -2.17108,-1.1571 -3.4977,-2.2595 -0.29085,-0.2422 -0.53461,-0.5457 -0.73534,-0.9417 -0.20627,-0.407 -0.38094,-0.943 -0.48445,-1.6296 -0.10458,-0.6937 -0.13359,-1.5168 -0.0663,-2.4731 0.0673,-0.9568 0.2289,-2.0164 0.48806,-3.1693 0.52215,-2.3229 1.41849,-4.9283 2.63127,-7.6943 1.21721,-2.776 2.73185,-5.6654 4.45506,-8.535 3.49183,-5.8149 7.76687,-11.4293 12.05365,-15.8367 2.16665,-2.2277 4.29867,-4.1086 6.30376,-5.5543 2.04098,-1.4716 3.83576,-2.4091 5.31777,-2.8626 2.00625,-0.6143 4.19724,-0.8455 6.54135,-0.6679 2.3709,0.1795 4.90121,0.7778 7.53968,1.8243 5.37817,2.1332 11.09535,6.0847 16.66403,11.8907 0.0354,0.037 0.0708,0.074 0.10616,0.1109 10.70038,11.2056 21.59119,30.1047 27.75191,57.8442 2.9479,13.2733 5.24151,29.0352 6.78599,45.516 1.49913,15.9971 2.27796,32.5413 2.24992,47.5987 -0.0137,7.3818 -0.22174,14.3816 -0.63189,20.7303 -0.40592,6.283 -1.00776,11.8936 -1.80493,16.5716 -0.39513,2.3187 -0.83434,4.3849 -1.31369,6.1744 -0.47897,1.7881 -0.9846,3.2491 -1.50022,4.3874 -0.25533,0.5637 -0.50286,1.0254 -0.73631,1.396 -0.23412,0.3717 -0.43718,0.6249 -0.59705,0.7909 -0.15919,0.1654 -0.24945,0.2176 -0.261,0.2257 -0.01,0.01 0.0713,-0.025 0.15146,-0.03 -0.15111,0.014 -0.35845,0 -0.64265,-0.076 -0.28876,-0.081 -0.65393,-0.2354 -1.09496,-0.5041 -0.89348,-0.5443 -1.9588,-1.4742 -3.14972,-2.8736 -1.17011,-1.3749 -2.3895,-3.1179 -3.62204,-5.202 -1.22054,-2.0637 -2.43399,-4.428 -3.60853,-7.0405 -2.32645,-5.1748 -4.47074,-11.259 -6.19049,-17.7522 -1.69854,-6.4132 -2.97184,-13.1855 -3.59057,-19.7839 a 0.13318017,1.1183374 0.30136639 0 0 -0.0165,-0.1446 c -1.46459,-10.6303 -1.16681,-23.4346 0.61193,-37.2094 1.76121,-13.639 4.95838,-28.101 9.22459,-42.0788 4.23783,-13.8847 9.51194,-27.2284 15.41762,-38.7013 2.93996,-5.7115 6.02603,-10.9388 9.20356,-15.5241 3.15687,-4.5555 6.38118,-8.4443 9.61399,-11.5374 0.925,-0.7866 2.15634,-1.4022 3.71482,-1.7876 1.5956,-0.3947 3.48353,-0.5342 5.60078,-0.3859 4.24112,0.2971 9.15671,1.7327 13.96006,4.1864 4.79022,2.4469 9.3454,5.844 12.91433,9.9445 1.78192,2.0474 3.30751,4.258 4.4974,6.601 1.19006,2.3434 2.04419,4.8188 2.48712,7.4035 0.5427,3.1785 0.56408,6.1212 0.17983,8.8449 -0.38498,2.7289 -1.18145,5.2683 -2.30029,7.6303 -2.24895,4.7478 -5.81968,8.8155 -10.01322,12.2148 -4.21425,3.416 -8.99087,6.1024 -13.51271,8.0851 -2.2687,0.9948 -4.4618,1.8075 -6.47375,2.4447 -2.02264,0.6406 -3.84694,1.0992 -5.37141,1.3894 -2.6397,0.505 -5.12987,1.0398 -7.65564,1.4493 -2.5187,0.4084 -4.82027,0.6454 -6.84901,0.5616 -1.01429,-0.042 -1.92678,-0.1632 -2.73918,-0.3685 -0.81485,-0.2059 -1.51619,-0.4924 -2.12335,-0.8639 -0.60476,-0.37 -1.13901,-0.8392 -1.60147,-1.4387 -0.46856,-0.6075 -0.88847,-1.3815 -1.22169,-2.3776 -0.11571,-0.343 -0.17457,-0.6757 -0.18673,-1.0037 -0.0123,-0.3308 0.0223,-0.6763 0.10957,-1.0414 0.17762,-0.7431 0.57644,-1.576 1.24408,-2.4884 0.67264,-0.9193 1.57952,-1.8664 2.69401,-2.8212 1.12264,-0.9619 2.42632,-1.9064 3.85664,-2.8174 2.91214,-1.8547 6.28018,-3.527 9.59711,-4.9112 3.40411,-1.4206 6.721,-2.5248 9.4677,-3.239 11.65446,-3.0172 21.32547,-2.5976 29.19128,-0.7794 8.50102,1.965 15.36431,5.6824 20.62197,9.216 8.63367,5.7953 18.07677,11.1402 30.61399,14.9884 14.75183,4.528 31.70221,6.2826 51.46471,5.2296 29.82739,-1.5947 55.72177,-7.184 75.15356,-14.1311 8.00032,-2.8603 14.44953,-5.7671 19.57526,-8.3752 6.46058,-3.2872 11.41535,-6.3831 14.90681,-8.7435 6.3602,-4.3 11.24096,-8.3939 15.07667,-12.6146 5.1493,-5.666 8.1644,-11.0163 9.88597,-14.2951 a 4.5298606,4.5298606 90 0 0 -8.02128,-4.2116 c -1.54343,2.9396 -4.24621,7.2949 -8.6706,12.5269 -3.12584,3.6964 -7.28004,8.2157 -12.70589,12.5395 -3.08718,2.4601 -7.48851,5.6036 -13.56559,8.9514 -4.78784,2.6375 -10.91086,5.5808 -18.59051,8.4865 -18.68685,7.0703 -43.99572,12.8189 -73.34504,14.6068 -19.28426,1.1788 -35.63946,-0.4388 -49.73284,-4.6784 -11.95211,-3.5954 -20.98646,-8.6424 -29.38948,-14.2482 -5.5726,-3.7141 -12.97465,-7.7304 -22.20858,-9.8685 -8.58033,-1.9868 -19.02642,-2.425 -31.45505,0.7665 -2.98395,0.7633 -6.51901,1.9281 -10.12246,3.4141 -3.50535,1.4455 -7.14187,3.2229 -10.35753,5.2468 -1.58336,0.9966 -3.08675,2.0668 -4.42805,3.201 -1.324,1.1195 -2.52339,2.3295 -3.48659,3.6232 -0.95255,1.2793 -1.71486,2.6954 -2.10071,4.232 -0.19261,0.7671 -0.29055,1.5616 -0.27072,2.3755 0.0198,0.8116 0.15623,1.6233 0.41632,2.4259 0.47346,1.4628 1.12479,2.7536 1.96007,3.866 0.83116,1.1069 1.81814,2.0017 2.92896,2.7037 1.09816,0.6939 2.28764,1.1807 3.52181,1.5106 1.22294,0.3269 2.49707,0.5017 3.78683,0.5713 2.54292,0.1371 5.24937,-0.1308 7.90964,-0.5307 2.62463,-0.3945 5.33165,-0.9394 7.81905,-1.3841 1.76575,-0.319 3.8037,-0.8178 6.00786,-1.4984 2.1976,-0.6787 4.57783,-1.5435 7.03392,-2.6021 4.87551,-2.1013 10.11768,-4.9957 14.82007,-8.7622 4.6745,-3.7442 8.89472,-8.4146 11.62884,-14.0996 1.36515,-2.8385 2.35543,-5.9218 2.84409,-9.2501 0.488,-3.3239 0.47134,-6.8623 -0.14963,-10.6102 -0.52947,-3.2032 -1.56245,-6.2344 -2.97602,-9.0599 -1.41147,-2.8212 -3.20176,-5.4363 -5.25082,-7.8191 -4.08936,-4.7553 -9.24561,-8.628 -14.61376,-11.4117 -5.35982,-2.7793 -11.04597,-4.5321 -16.23781,-4.9344 -2.60505,-0.2018 -5.14537,-0.068 -7.48461,0.4884 -2.3468,0.5585 -4.53902,1.5552 -6.35817,3.1076 a 0.12650843,1.0272958 40.865864 0 0 -0.11417,0.1032 c -3.63727,3.4452 -7.15873,7.6834 -10.52245,12.5065 -3.3737,4.8375 -6.61183,10.2967 -9.66823,16.1966 -6.13553,11.8436 -11.5757,25.534 -15.9378,39.7106 -4.39259,14.2757 -7.70444,29.0824 -9.54887,43.1086 -1.85343,14.0946 -2.23674,27.4816 -0.71292,38.8527 0.6263,6.9834 1.93681,14.0987 3.68236,20.8097 1.77223,6.8136 4.00438,13.2567 6.46964,18.8126 1.24604,2.8083 2.5592,5.4072 3.91488,7.7285 1.36302,2.3339 2.78822,4.4203 4.25705,6.1698 1.46936,1.7502 3.05669,3.2526 4.7553,4.31 0.86322,0.5373 1.78648,0.9793 2.76417,1.2699 0.98817,0.2936 2.02955,0.4314 3.09917,0.3545 0.92523,-0.068 1.78523,-0.334 2.55985,-0.7409 0.76613,-0.4024 1.42504,-0.9292 1.98918,-1.5049 0.56482,-0.5765 1.05921,-1.227 1.49569,-1.9119 0.43877,-0.6884 0.83643,-1.4389 1.19954,-2.2319 0.72585,-1.585 1.35408,-3.4287 1.90344,-5.4558 0.55424,-2.045 1.04224,-4.3292 1.47012,-6.8055 0.862,-4.9887 1.49659,-10.8545 1.92328,-17.2941 0.43205,-6.5205 0.65362,-13.6697 0.67743,-21.1702 0.0485,-15.2944 -0.72372,-32.065 -2.22663,-48.2749 -1.54715,-16.6871 -3.86405,-32.7584 -6.88171,-46.4018 -6.36417,-28.7732 -17.76353,-48.9351 -29.52673,-61.2579 -0.039,-0.041 -0.078,-0.082 -0.11704,-0.1224 -6.10855,-6.3711 -12.65563,-11.0022 -19.19872,-13.5968 -3.2237,-1.2784 -6.46346,-2.0683 -9.64584,-2.3085 -3.1554,-0.2383 -6.24983,0.065 -9.18548,0.9648 -2.48403,0.7617 -4.99079,2.1595 -7.41223,3.9073 -2.41963,1.7465 -4.86491,3.9231 -7.24723,6.3751 -4.7055,4.8431 -9.30647,10.9081 -13.04996,17.1516 -1.85498,3.0937 -3.51349,6.2553 -4.86703,9.3492 -1.34189,3.0673 -2.40607,6.1183 -3.05063,9.0006 -0.3217,1.4385 -0.54427,2.8589 -0.63932,4.2359 -0.0947,1.3712 -0.065,2.7307 0.13461,4.0396 0.19993,1.311 0.57307,2.5937 1.18412,3.7921 0.61456,1.2053 1.45433,2.291 2.54036,3.1906 1.72794,1.4308 3.45992,2.5382 5.20029,3.2956 1.74123,0.7577 3.49728,1.1671 5.24477,1.1867 1.74858,0.02 3.39265,-0.3527 4.90013,-1.0408 1.48992,-0.6801 2.79621,-1.6448 3.9319,-2.7677 1.13011,-1.1175 2.11302,-2.4126 2.96686,-3.7989 0.85285,-1.3846 1.59528,-2.8901 2.23754,-4.4558 1.27768,-3.1146 2.19758,-6.5622 2.79036,-9.9599 0.34962,-2.0013 0.50144,-4.2531 0.48612,-6.6531 -0.0153,-2.4048 -0.19889,-5.0053 -0.53999,-7.721 -0.68107,-5.4222 -2.00039,-11.3834 -3.92641,-17.2693 -1.92507,-5.8831 -4.47596,-11.7511 -7.64831,-16.9596 -3.16892,-5.2028 -7.02492,-9.8572 -11.60086,-13.1757 -4.90955,-3.5607 -9.80356,-5.7457 -14.66652,-6.5383 -2.43803,-0.3974 -4.84131,-0.4399 -7.19922,-0.1444 -2.36292,0.2961 -4.65266,0.9281 -6.86277,1.8564 -4.43259,1.8616 -8.51647,4.9013 -12.27064,8.7848 -3.78414,3.9144 -7.29542,8.75 -10.55099,14.2716 -1.61678,2.7422 -3.19939,5.848 -4.70546,9.163 -1.51533,3.3354 -2.96296,6.9041 -4.29968,10.5643 -2.69553,7.3808 -4.95692,15.1779 -6.43632,22.3133 -0.74735,3.6046 -1.30044,7.0651 -1.60891,10.2449 -0.30949,3.1903 -0.37971,6.1666 -0.12692,8.7611 0.12753,1.309 0.34096,2.5606 0.66584,3.717 0.32494,1.1567 0.77758,2.2761 1.41215,3.2755 0.64354,1.0135 1.49129,1.9285 2.58998,2.5985 1.11638,0.6807 2.36281,1.0288 3.66795,1.0701 4.63218,0.1463 8.73311,-0.26 12.27529,-1.2551 3.63061,-1.0199 6.70086,-2.6673 9.11441,-4.9831 2.48076,-2.3802 4.1299,-5.335 5.03918,-8.699 0.92634,-3.4272 1.07878,-7.2472 0.62875,-11.3307 -0.24507,-2.2241 -0.76949,-4.588 -1.52358,-6.9953 -0.76832,-2.4527 -1.78383,-4.9789 -3.01559,-7.4962 -2.5356,-5.1818 -5.99572,-10.3467 -10.20825,-14.9012 -4.40181,-4.7592 -9.60668,-8.8356 -15.48302,-11.6714 -6.19648,-2.9902 -13.01483,-4.5419 -20.29453,-4.2119 -7.60959,0.3398 -16.29364,1.5717 -25.65887,5.3147 -11.35391,4.5377 -21.74462,12.007 -31.12398,22.3945 -2.65672,2.9322 -4.84535,5.305 -7.21793,7.592 -0.92624,0.8928 -1.83361,1.7281 -2.73815,2.5181 -4.08205,3.565 -8.02156,6.1161 -12.16953,8.0783 -5.38782,2.5487 -11.27513,4.1523 -17.6516,5.0348 -6.84667,0.9476 -15.3558,1.2169 -26.42452,0.2538 -2.08653,-0.1768 -4.25852,-0.4283 -6.51924,-0.7605 -9.48538,-1.3936 -20.06659,-4.2037 -31.58702,-8.3911 -13.57045,-4.9324 -27.02281,-11.2578 -39.196478,-17.7 -15.33518,-8.1153 -27.865766,-16.008 -34.885887,-20.4728 -1.688899,-1.0742 -3.129609,-1.9957 -4.322439,-2.7508 -2.703655,-1.7116 -5.103201,-3.1245 -7.806855,-4.8361 -0.319876,-0.2024 0.35354,0.2249 0,0 -1.617003,-1.0284 -4.313193,-2.757 -7.437484,-4.8379 -3.031077,-2.0188 -5.201847,-3.5282 -6.263418,-4.2713 a 7.9380478,7.9380478 90 0 0 -9.104348,13.0062 z"
       id="path5224"
       sodipodi:nodetypes="cssssssssssssccssssssc"
       inkscape:path-effect="#path-effect5232"
       inkscape:original-d="m 33.245975,1274.9093 c 26.307693,18.4154 92.829665,58.2515 142.304835,61.5317 43.27667,2.8693 56.02494,-10.6999 69.03363,-25.1875 20.25892,-22.5619 41.11292,-26.0897 54.36923,-26.698 27.47316,-1.2607 45.36479,26.6523 47.08677,42.3221 1.69259,15.4023 -6.27763,23.1337 -23.66339,22.5702 -12.31768,-0.3992 -0.67444,-45.7738 11.65354,-66.6462 12.7125,-21.5234 28.34867,-30.4226 46.6002,-17.1616 16.39265,11.9104 24.25355,44.424 21.7998,58.377 -2.24694,12.7771 -9.29428,25.5625 -21.53925,15.4078 -11.00184,-9.1238 15.25498,-49.9879 31.18541,-54.8693 19.67613,-6.0292 50.97782,18.7922 63.13846,73.6615 12.10375,54.6126 12.38322,146.5837 -0.88392,147.5767 -9.78543,0.7323 -22.95137,-29.3115 -25.42377,-56.3767 -6.02729,-44.2284 17.72712,-121.6162 45.25172,-147.7769 11.01082,-9.4652 44.18743,4.6059 48.07894,27.7687 4.65164,27.6872 -26.64815,41.274 -39.83836,43.7159 -10.13925,1.8771 -21.81909,4.9862 -25.05834,-4.8873 -3.00059,-9.146 16.92834,-18.4201 28.56604,-21.4204 23.41066,-6.0354 40.20503,1.0511 51.73846,8.7693 15.57919,10.4256 37.5586,22.0325 80.60051,19.5723 45.26972,-2.5875 109.14906,-16.518 130.73795,-57.6353" />
    <path
       style="display:inline;mix-blend-mode:normal;fill:none;stroke:#ffffff;stroke-width:30;stroke-linecap:butt;stroke-linejoin:miter;stroke-miterlimit:4;stroke-dasharray:none;stroke-opacity:1"
       d="m 176.18444,1494.1401 c 0,0 -88.564904,-81.5375 -87.692311,-178.0154 1.546623,-171.0015 187.833461,-221.9574 300.784621,-215.723 92.52262,5.1067 159.46845,37.2981 210.60948,73.4522 98.14999,69.3872 132.78013,153.1806 126.12898,235.2247 -7.58755,93.5949 -92.79158,157.0891 -179.36914,178.8607 -114.18376,28.7137 -197.10448,2.2101 -262.60009,-22.7684 0,0 -35.13055,19.5935 -75.41539,26.3077 -57.87691,9.6461 -99.0923,-5.2616 -99.0923,-5.2616 0,0 22.69478,-16.7355 41.21538,-42.9692 20.69082,-29.3078 25.43077,-49.1077 25.43077,-49.1077 z"
       id="path5226"
       sodipodi:nodetypes="cssssscscsc" />
  </g>
</svg>
